<?xml version="1.0" encoding="utf-8"?>
<!-- Generator: Adobe Illustrator 24.1.3, SVG Export Plug-In . SVG Version: 6.00 Build 0)  -->
<svg version="1.1" id="Camada_1" xmlns="http://www.w3.org/2000/svg" xmlns:xlink="http://www.w3.org/1999/xlink" x="0px" y="0px"
	 viewBox="0 0 777 317" style="enable-background:new 0 0 777 317;" xml:space="preserve">
<style type="text/css">
	.st0{fill:#FFFFFF;}
	.st1{fill-rule:evenodd;clip-rule:evenodd;fill:#FFFFFF;}
</style>
<g>
	<path class="st0" d="M346.09,159.27c2.44,0,4.63-0.57,6.56-1.71c1.93-1.14,3.46-2.73,4.58-4.76c1.12-2.03,1.68-4.35,1.68-6.96
		c0-2.6-0.56-4.92-1.68-6.96c-1.12-2.03-2.65-3.62-4.58-4.76c-1.93-1.15-4.12-1.71-6.56-1.71s-4.63,0.57-6.56,1.71
		c-1.93,1.14-3.46,2.72-4.58,4.76c-1.12,2.03-1.68,4.36-1.68,6.96c0,2.61,0.56,4.92,1.68,6.96c1.13,2.03,2.65,3.62,4.58,4.76
		C341.46,158.7,343.65,159.27,346.09,159.27z M361.96,116.48v45.3h-2.99v-7.51c-1.26,2.48-3.03,4.39-5.31,5.73
		c-2.28,1.35-4.86,2.01-7.75,2.01c-2.97,0-5.66-0.69-8.06-2.08c-2.41-1.38-4.28-3.29-5.65-5.73c-1.37-2.45-2.05-5.23-2.05-8.37
		s0.68-5.93,2.05-8.39c1.36-2.46,3.24-4.37,5.65-5.73c2.4-1.37,5.09-2.05,8.06-2.05c2.85,0,5.4,0.67,7.66,2.01
		c2.26,1.34,4.04,3.21,5.34,5.62v-20.82H361.96z"/>
	<path class="st0" d="M368.92,122.16c-0.69,0-1.28-0.24-1.77-0.71c-0.49-0.46-0.73-1.04-0.73-1.74c0-0.69,0.24-1.28,0.73-1.77
		c0.49-0.49,1.08-0.73,1.77-0.73c0.69,0,1.29,0.23,1.77,0.7c0.49,0.46,0.73,1.04,0.73,1.74s-0.25,1.28-0.73,1.77
		C370.2,121.91,369.61,122.16,368.92,122.16z M367.39,129.9h3.05v31.87h-3.05V129.9z"/>
	<path class="st0" d="M387.61,159.52c2.64,0,4.89-0.61,6.74-1.83c1.85-1.22,3.25-2.99,4.18-5.31v-5.98h-10.87
		c-3.13,0-5.4,0.57-6.81,1.71c-1.4,1.14-2.1,2.7-2.1,4.7c0,2.08,0.77,3.71,2.32,4.92C382.62,158.92,384.8,159.52,387.61,159.52z
		 M389.31,129.66c3.95,0,6.98,1.01,9.1,3.03c2.12,2.01,3.18,4.97,3.18,8.88v20.21h-2.93v-5.67c-1.02,1.87-2.51,3.32-4.46,4.36
		s-4.29,1.56-7.02,1.56c-3.54,0-6.34-0.83-8.39-2.5c-2.05-1.67-3.08-3.87-3.08-6.6c0-2.64,0.94-4.79,2.84-6.44
		c1.89-1.64,4.91-2.47,9.07-2.47h10.93v-2.56c0-2.97-0.81-5.23-2.41-6.78c-1.61-1.54-3.96-2.32-7.05-2.32
		c-2.12,0-4.14,0.36-6.08,1.1c-1.93,0.73-3.57,1.71-4.91,2.93l-1.52-2.2c1.58-1.43,3.5-2.53,5.73-3.33
		C384.53,130.06,386.87,129.66,389.31,129.66z"/>
	<path class="st0" d="M416.11,162.02c-2.56,0-5.01-0.38-7.32-1.16c-2.32-0.77-4.13-1.74-5.44-2.93l1.41-2.44
		c1.3,1.1,2.98,2.01,5.03,2.75c2.05,0.73,4.2,1.1,6.44,1.1c3.21,0,5.59-0.53,7.11-1.59c1.52-1.06,2.29-2.52,2.29-4.39
		c0-1.35-0.42-2.41-1.25-3.17c-0.84-0.77-1.86-1.35-3.09-1.71c-1.22-0.36-2.91-0.75-5.07-1.16c-2.52-0.45-4.55-0.94-6.1-1.47
		c-1.54-0.53-2.87-1.38-3.97-2.56s-1.64-2.81-1.64-4.88c0-2.53,1.04-4.61,3.14-6.26c2.1-1.65,5.08-2.47,8.95-2.47
		c2.03,0,4.05,0.28,6.04,0.86c1.99,0.57,3.62,1.32,4.88,2.26l-1.41,2.45c-1.3-0.94-2.79-1.65-4.45-2.14
		c-1.67-0.49-3.38-0.73-5.13-0.73c-2.97,0-5.21,0.55-6.72,1.64c-1.51,1.1-2.26,2.55-2.26,4.34c0,1.42,0.42,2.53,1.28,3.33
		c0.86,0.79,1.9,1.38,3.15,1.77c1.24,0.39,2.98,0.81,5.21,1.25c2.49,0.45,4.49,0.93,6.02,1.44c1.52,0.51,2.82,1.33,3.87,2.47
		c1.06,1.14,1.59,2.71,1.59,4.7c0,2.64-1.1,4.76-3.3,6.35C423.19,161.23,420.1,162.02,416.11,162.02z"/>
	<path class="st0" d="M453.17,159.27c2.45,0,4.63-0.57,6.56-1.71c1.93-1.14,3.46-2.73,4.58-4.76c1.12-2.03,1.68-4.35,1.68-6.96
		c0-2.6-0.56-4.92-1.68-6.96c-1.12-2.03-2.65-3.62-4.58-4.76c-1.93-1.15-4.12-1.71-6.56-1.71c-2.44,0-4.63,0.57-6.56,1.71
		c-1.93,1.14-3.46,2.72-4.57,4.76c-1.13,2.03-1.68,4.36-1.68,6.96c0,2.61,0.56,4.92,1.68,6.96c1.12,2.03,2.64,3.62,4.57,4.76
		C448.54,158.7,450.73,159.27,453.17,159.27z M469.04,116.48v45.3h-2.99v-7.51c-1.26,2.48-3.03,4.39-5.31,5.73
		c-2.28,1.35-4.86,2.01-7.75,2.01c-2.97,0-5.66-0.69-8.06-2.08c-2.4-1.38-4.28-3.29-5.65-5.73c-1.37-2.45-2.05-5.23-2.05-8.37
		s0.68-5.93,2.05-8.39c1.36-2.46,3.25-4.37,5.65-5.73c2.4-1.37,5.09-2.05,8.06-2.05c2.85,0,5.4,0.67,7.66,2.01
		c2.26,1.34,4.04,3.21,5.34,5.62v-20.82H469.04z"/>
	<path class="st0" d="M487.6,132.35c-2.24,0-4.26,0.5-6.04,1.5c-1.79,1-3.23,2.4-4.31,4.21c-1.08,1.81-1.7,3.85-1.87,6.14h24.42
		c-0.12-2.28-0.73-4.32-1.83-6.1c-1.1-1.79-2.54-3.2-4.33-4.22C491.85,132.86,489.84,132.35,487.6,132.35z M502.74,146.57h-27.41
		c0.08,2.48,0.71,4.69,1.89,6.62s2.78,3.43,4.8,4.49c2.01,1.06,4.28,1.59,6.8,1.59c2.08,0,4-0.38,5.77-1.13
		c1.77-0.75,3.25-1.86,4.43-3.33l1.77,2.01c-1.39,1.67-3.13,2.95-5.22,3.85c-2.1,0.9-4.37,1.34-6.8,1.34c-3.17,0-6-0.69-8.49-2.08
		c-2.48-1.38-4.43-3.29-5.83-5.73c-1.4-2.45-2.11-5.23-2.11-8.37c0-3.09,0.67-5.87,1.99-8.33c1.32-2.46,3.15-4.38,5.46-5.77
		c2.32-1.38,4.92-2.08,7.82-2.08c2.89,0,5.48,0.68,7.78,2.05c2.3,1.36,4.11,3.26,5.43,5.71c1.33,2.44,1.99,5.21,1.99,8.3
		L502.74,146.57z"/>
	<path class="st0" d="M348.64,256.15c5.69,0,10.75-1.3,15.17-3.91c4.42-2.6,7.54-6.33,9.36-11.17v-11.26h-23.44
		c-13.08,0-19.62,4.3-19.62,12.9c0,4.12,1.64,7.39,4.91,9.82C338.28,254.94,342.82,256.15,348.64,256.15z M351.72,173.3
		c14.29,0,25.22,3.42,32.8,10.26c7.57,6.85,11.36,17.17,11.36,30.98v56.87h-21.44V259.6c-2.79,4.24-6.75,7.49-11.9,9.72
		c-5.15,2.24-11.36,3.36-18.62,3.36c-7.27,0-13.63-1.24-19.08-3.73c-5.45-2.48-9.66-5.94-12.63-10.36
		c-2.97-4.42-4.45-9.42-4.45-14.99c0-8.72,3.24-15.71,9.72-20.99c6.48-5.27,16.69-7.9,30.62-7.9h25.07v-1.45
		c0-6.78-2.03-11.99-6.09-15.63c-4.06-3.63-10.08-5.45-18.08-5.45c-5.45,0-10.81,0.85-16.08,2.55c-5.27,1.7-9.72,4.06-13.35,7.09
		l-8.9-16.53c5.09-3.88,11.2-6.85,18.35-8.91C336.16,174.33,343.73,173.3,351.72,173.3z"/>
	<path class="st0" d="M529.24,173.3c12.23,0,21.92,3.54,29.07,10.62c7.15,7.09,10.72,17.72,10.72,31.89v55.6h-22.71v-52.69
		c0-8.48-1.88-14.87-5.63-19.17c-3.75-4.31-9.14-6.45-16.17-6.45c-7.63,0-13.75,2.51-18.35,7.54c-4.6,5.03-6.91,12.21-6.91,21.53
		v49.24h-22.71v-52.69c0-8.48-1.88-14.87-5.63-19.17c-3.76-4.31-9.15-6.45-16.17-6.45c-7.75,0-13.9,2.49-18.44,7.45
		s-6.81,12.17-6.81,21.62v49.24h-22.71v-97.02h21.62v12.35c3.63-4.36,8.18-7.69,13.63-9.99c5.45-2.3,11.51-3.45,18.17-3.45
		c7.27,0,13.72,1.36,19.35,4.09c5.63,2.72,10.08,6.75,13.36,12.08c4-5.09,9.14-9.06,15.44-11.9
		C514.64,174.72,521.6,173.3,529.24,173.3z"/>
	<path class="st0" d="M624.44,253.25c8.36,0,15.26-2.79,20.71-8.36c5.45-5.57,8.18-12.9,8.18-21.98s-2.73-16.41-8.18-21.98
		c-5.45-5.57-12.35-8.36-20.71-8.36c-8.35,0-15.23,2.79-20.62,8.36c-5.39,5.57-8.08,12.9-8.08,21.98s2.69,16.41,8.08,21.98
		C609.21,250.46,616.09,253.25,624.44,253.25z M624.44,272.68c-9.81,0-18.66-2.12-26.53-6.36c-7.88-4.24-14.02-10.15-18.44-17.71
		c-4.43-7.57-6.64-16.14-6.64-25.71c0-9.57,2.21-18.11,6.64-25.62c4.42-7.51,10.56-13.38,18.44-17.62
		c7.87-4.24,16.72-6.36,26.53-6.36c9.93,0,18.84,2.12,26.71,6.36c7.88,4.24,14.02,10.11,18.45,17.62
		c4.42,7.51,6.63,16.06,6.63,25.62c0,9.57-2.21,18.14-6.63,25.71c-4.43,7.57-10.57,13.47-18.45,17.71
		C643.28,270.56,634.37,272.68,624.44,272.68z"/>
	<path class="st0" d="M701.48,188.56c6.54-10.17,18.05-15.26,34.52-15.26v21.62c-1.93-0.36-3.69-0.55-5.27-0.55
		c-8.84,0-15.75,2.57-20.71,7.72c-4.97,5.15-7.45,12.57-7.45,22.26v47.05h-22.71v-97.02h21.62V188.56z"/>
</g>
<g>
	<path class="st1" d="M125.5,39.74c0,0-18.67,29.15-36.57,51.69c-17.9,22.53-42.28,56.4-51.11,65.23
		c-8.82,8.82-17.15,23.47-8.33,32.63c8.82,9.16,20.9,10.25,42.87,5.86c0.84-0.17,0.95-0.28,0.95-0.28s-21.89,31.21-23.17,44.74
		c-1.28,13.53,1.46,14.5,6.29,18.12c0.43,0.32-2.24-3.63,1.71-10.23c3.94-6.61,18.09-24.75,24.75-31.67
		c6.66-6.93,41.12-43.73,50.75-66.21c0.5-1.16,4.6-15.55-8.14-19.61c-3.01-0.96-7.8-1.6-7.8-1.6s-11.77,21.52-19.87,32.18
		c-8.1,10.66-15.13,20.88-16.62,23.12c-1.49,2.24-16.44,9-35.59,6.93c-2.56-0.28-10.29-2.73-10.21-8.18
		c0.09-5.45,4.13-7.09,8.88-11.1c4.76-4.01,34.91-30.57,42.05-37.6c7.14-7.03,41.1-38.31,50.43-49.1
		c9.32-10.79,18.13-20.78,21.86-26.43c3.73-5.64,12.04-20.24-5.97-17.05c-18.01,3.2-23.35-2.62-24.78-3.48
		c-0.27-0.16-1.04-0.92-1.33-0.63C126.48,37.15,125.81,39.37,125.5,39.74z"/>
	<path class="st1" d="M227.8,173.93c0,0,1.86-14.92,17.76-34.63c0,0.09-2.22,15.63-7.81,24.6
		C232.14,172.87,230.19,172.34,227.8,173.93z M203.67,257.69c-0.08,0.03-0.11,0.04-0.1,0.05L203.67,257.69
		c2.08-0.61,36.16-6.8,76.86-54.39c0.13,0.17,26.79-28.57,27.49-60.83c0,0,0.73-20.29-18.84-26.81c-0.83-0.28-5.52-1.1-14.47-0.75
		c-0.14,0.08,0.8-17.3-15.61-28.28c-16.42-10.99-55.94-4.39-80.91,16.57c-24.97,20.95-39.97,42.67-47.12,83.43
		c-0.04,0-2.56,25.23,5.07,39.28c7.63,14.05,18.73,30.53,49.77,40.06c-0.12,0.04,5.64,1.88,11.32,1.44c0.18,0-7.07-3.7-7.49-4
		c-3.39-2.43-31.03-16.77-33.35-62.51c-2.5-49.12,38.71-97.61,65.76-109.68c27.05-12.07,30,2.43,27.69,29.95
		c0.09,0.09-37.76,14.92-39,50.02c-0.01,1.09-0.59,16.21,14.67,19.41c15.26,3.19,28.44-8.74,33.58-15.4
		c5.13-6.66,17.9-25.47,16.51-57.94c0-0.03,8.42-0.58,10.53,3.91c2.11,4.49,9.41,20.93-21.16,74.04
		C262.69,199.41,239.61,239.91,203.67,257.69z"/>
</g>
</svg>
