<?xml version="1.0" encoding="utf-8"?>
<!-- Generator: Adobe Illustrator 24.1.3, SVG Export Plug-In . SVG Version: 6.00 Build 0)  -->
<svg version="1.1" id="Layer_1" xmlns="http://www.w3.org/2000/svg" xmlns:xlink="http://www.w3.org/1999/xlink" x="0px" y="0px"
	 viewBox="0 0 540 327.86" style="enable-background:new 0 0 540 327.86;" xml:space="preserve">
<style type="text/css">
	.st0{fill-rule:evenodd;clip-rule:evenodd;fill:#1C75BC;}
	.st1{fill-rule:evenodd;clip-rule:evenodd;fill:#FFFFFF;}
</style>
<g>
	<path class="st1" d="M285.46,151.19h51.46V16.77h-28.56l-0.7,1.55l-0.7,1.55l-0.85,1.4l-0.85,1.32l-1.01,1.24l-1.01,1.24
		l-1.16,1.09l-1.16,1.09l-1.24,1.01l-1.4,0.93l-1.4,0.85l-1.47,0.78l-1.55,0.7l-1.71,0.7l-1.71,0.62l-1.71,0.54l-1.86,0.47
		l-1.94,0.39l-1.94,0.39l-2.09,0.23l-2.1,0.23l-2.17,0.23l-2.25,0.08l-2.25,0.08h-2.41l-2.41-0.08l-2.48-0.08l-2.56-0.15l-2.64-0.23
		l-2.64-0.23l-2.72-0.31L251.47,34l-15.06,48.12l49.05,0.31V151.19L285.46,151.19z M350.27,298.67V252.8l99.19-121.47l1.4-1.78
		l1.32-1.79l1.32-1.86l1.24-1.86l1.24-1.86l1.17-1.86l1.09-1.86l1.09-1.86l1.01-1.94l0.93-1.86l0.86-1.94l0.85-1.94l0.77-1.86
		l0.78-1.86l0.62-1.86l0.7-1.86l0.54-1.86l0.46-1.86l0.47-1.79l0.39-1.78l0.39-1.71l0.23-1.71l0.23-1.71l0.16-1.63l0.15-1.63v-1.55
		v-1.47l-0.08-1.48l-0.15-1.4l-0.16-1.32l-0.31-1.32l-0.31-1.24l-0.93-2.79l-1.24-2.72l-1.4-2.41l-1.63-2.33l-1.78-2.1l-1.94-1.94
		l-2.1-1.71l-2.17-1.47l-2.33-1.32l-2.41-1.09l-2.48-0.93l-2.48-0.7l-2.56-0.39l-2.64-0.23h-2.56l-2.56,0.23l-2.48,0.47l-2.48,0.78
		l-2.4,0.93l-2.33,1.24l-2.25,1.48l-2.09,1.78l-1.94,1.94l-1.78,2.33l-1.63,2.56l-1.4,2.79l-1.24,3.11l-1.01,3.41l-0.78,3.65
		l-0.46,4.04l-0.23,4.27l0.08,4.58h-57.98l0.08-9.24l1.01-8.77l1.86-8.15l2.64-7.68l3.41-7.14l4.11-6.52l4.66-6.05l5.36-5.51
		l5.82-4.89l6.21-4.35l6.68-3.8l7.06-3.18l7.22-2.64l7.53-2.1l7.68-1.47l7.76-0.85l7.84-0.31l7.84,0.31l7.76,0.85l7.61,1.55
		l7.45,2.17l7.14,2.72l6.91,3.34l6.52,4.03l6.13,4.58l5.67,5.28l5.12,5.9l4.5,6.6l3.88,7.14l3.18,7.84l2.41,8.54l1.55,9.16
		l0.23,2.09l0.16,2.1l0.08,2.09l0.08,2.1v2.09l-0.08,2.1l-0.15,2.09l-0.16,2.1l-0.23,2.1l-0.31,2.09l-0.31,2.1l-0.39,2.1l-0.46,2.1
		l-0.47,2.09l-0.54,2.1l-0.62,2.02l-0.7,2.1l-0.7,2.02l-0.7,2.02l-0.85,2.02l-0.85,1.94l-0.85,2.02l-1.01,1.94l-0.93,1.94
		l-1.09,1.86l-1.09,1.86l-1.16,1.86l-1.16,1.86l-1.24,1.79l-1.24,1.78l-1.32,1.71l-1.4,1.71l-94.07,113.55h116.27v5.12v5.12v5.12
		v5.12v5.12v5.12v5.12v5.12l-10.94-0.08h-10.94h-11.02l-10.94-0.08h-10.94l-10.94-0.08h-10.94l-10.94-0.08h-10.94l-10.94-0.08
		h-10.95h-10.94l-10.94-0.08h-10.94l-11.02-0.08H350.27L350.27,298.67z"/>
	<path class="st1" d="M236.5,210.94h20.8l-1.63,3.18l-1.71,3.03l-1.86,3.03l-1.94,2.95l-2.09,2.87l-2.1,2.79l-2.25,2.72l-2.33,2.64
		l-2.41,2.56l-2.48,2.48l-2.56,2.41l-2.64,2.33l-2.72,2.17l-2.79,2.1l-2.87,2.1l-2.95,1.86l-3.03,1.86l-3.11,1.71l-3.18,1.63
		l-3.18,1.55l-3.26,1.4l-3.34,1.32l-3.41,1.16l-3.42,1.09l-3.49,0.93l-3.49,0.85l-3.65,0.7l-3.57,0.62l-3.72,0.47l-3.65,0.31
		l-3.73,0.23l-3.8,0.08l-5.36-0.16l-5.2-0.39l-5.2-0.7l-5.05-0.85l-5.04-1.16l-4.89-1.4l-4.81-1.63l-4.66-1.86l-4.58-2.02
		l-4.43-2.33l-4.34-2.48l-4.19-2.72l-4.04-2.87l-3.96-3.03l-3.73-3.26l-3.57-3.41l-3.42-3.57l-3.26-3.8l-3.03-3.88l-2.95-4.03
		l-2.64-4.19l-2.48-4.35l-2.33-4.42l-2.02-4.58l-1.86-4.66l-1.63-4.81l-1.4-4.89l-1.16-5.04l-0.93-5.05l-0.62-5.2l-0.39-5.28
		l-0.16-5.28l0.16-5.36l0.39-5.2l0.62-5.2l0.93-5.05l1.16-5.04l1.4-4.89l1.63-4.81l1.86-4.66l2.02-4.58l2.33-4.43l2.48-4.34
		l2.64-4.19l2.95-4.04l3.03-3.88l3.26-3.8l3.42-3.57l3.57-3.42l3.73-3.26l3.96-3.03l4.04-2.87l4.19-2.72l4.34-2.48l4.43-2.33
		l4.58-2.02l4.66-1.86l4.81-1.63l4.89-1.4l5.04-1.16l5.05-0.85l5.2-0.7l5.2-0.39l5.36-0.16l2.33,0.08l2.25,0.08l2.25,0.08l2.25,0.15
		l2.25,0.23l2.25,0.31l2.25,0.31l2.17,0.31l2.17,0.47l2.17,0.47l2.17,0.47l2.18,0.54l2.09,0.62l2.1,0.62l2.09,0.62l2.02,0.78
		l2.02,0.7l2.02,0.85l2.02,0.85l2.02,0.85l1.94,0.93l1.94,0.93l1.86,1.01l1.94,1.09l1.86,1.09l1.79,1.09l1.86,1.16L223,79.3
		l1.71,1.24l1.78,1.24l1.63,1.32l1.71,1.32l14.75-47.19l-2.18-1.32l-2.17-1.32l-2.25-1.24l-2.25-1.24l-2.25-1.16l-2.33-1.16
		l-2.25-1.16l-2.41-1.01l-2.33-1.09l-2.41-1.01l-2.41-0.93l-2.41-0.93l-2.41-0.85l-2.48-0.85l-2.48-0.78l-2.48-0.78l-2.56-0.7
		l-2.48-0.7l-2.56-0.62l-2.56-0.54l-2.56-0.54l-2.64-0.47l-2.64-0.47l-2.56-0.39l-2.72-0.39l-2.64-0.31l-2.64-0.23l-2.72-0.23
		l-2.72-0.16l-2.72-0.15l-2.72-0.08h-2.72l-7.76,0.23l-7.61,0.55l-7.53,0.93l-7.37,1.32l-7.3,1.71l-7.14,2.02l-6.99,2.41l-6.83,2.64
		l-6.68,3.03l-6.44,3.34l-6.29,3.65l-6.13,3.88l-5.9,4.19l-5.67,4.43l-5.43,4.73l-5.28,4.97l-4.97,5.28l-4.73,5.43l-4.42,5.67
		l-4.19,5.9l-3.96,6.13l-3.57,6.29l-3.34,6.44l-3.03,6.68l-2.72,6.83l-2.33,6.99l-2.02,7.14l-1.71,7.3l-1.32,7.37l-0.93,7.53
		L14.75,157l-0.16,7.76l0.16,7.76l0.62,7.61l0.93,7.53l1.32,7.37l1.71,7.3l2.02,7.14l2.33,6.99l2.72,6.83l3.03,6.67l3.34,6.44
		l3.57,6.29l3.96,6.13l4.19,5.9l4.42,5.67l4.73,5.43l4.97,5.28l5.28,4.97l5.43,4.74l5.67,4.42l5.9,4.19l6.13,3.96l6.29,3.57
		l6.44,3.34l6.68,3.03l6.83,2.64l6.99,2.41l7.14,2.02l7.3,1.71l7.37,1.32l7.53,0.93l7.61,0.54l7.76,0.23l4.58-0.08l4.5-0.23
		l4.42-0.31l4.5-0.47l4.35-0.54l4.42-0.78l4.27-0.85l4.27-0.93l4.27-1.09l4.19-1.16l4.11-1.32l4.04-1.47l4.03-1.55l3.96-1.63
		l3.96-1.78l3.8-1.86l3.8-2.02l3.73-2.1l3.65-2.17l3.57-2.25l3.49-2.41l3.49-2.48l3.34-2.56l3.34-2.64l3.18-2.8l3.11-2.79l3.1-2.95
		l2.95-3.03l2.87-3.11l2.79-3.18l2.72-3.18l2.64-3.34v50.22h51.46V165.15h-20.57h-30.89h-16.14h-14.23l0.01-0.14l0.23-3.65
		l0.08-3.65v-0.08v-1.63l-0.08-1.71l-0.08-1.63l-0.08-1.63l-0.16-1.63l-0.15-1.63l-0.23-1.63l-0.23-1.63l-0.31-2.1l-0.31-1.86
		l-0.39-1.86l-0.46-1.86l-0.47-1.86l-0.54-1.86l-0.47-1.78l-0.62-1.78l-0.62-1.79l-0.62-1.78l-0.7-1.71l-0.78-1.71l-0.7-1.71
		l-1.63-3.42l-1.78-3.26l-0.93-1.63l-1.47-2.41l-1.55-2.33l-1.55-2.25l-1.71-2.17l-1.71-2.17l-1.78-2.09l-1.86-2.02l-1.94-2.02
		l-1.09-1.09l-1.16-1.09L225,91.9l-1.09-1.09l-1.94-1.55l-2.79-2.25l-2.95-2.1l-3.03-2.02l-3.03-1.86l-3.18-1.71l-3.26-1.63
		l-3.34-1.55l-3.34-1.32l-3.49-1.24l-3.49-1.09l-3.57-0.93l-3.65-0.78l-3.73-0.62l-3.72-0.46l-1.86-0.23l-1.94-0.15l-1.86-0.08
		l-1.94-0.08h-0.62h-0.23h-0.47h-0.62h-0.08h-0.7h-0.47h-0.16l-2.02,0.08l-1.94,0.08l-2.02,0.15l-1.94,0.16l-1.94,0.23l-1.94,0.23
		l-1.86,0.31l-1.94,0.39L147,71.17l-1.86,0.39l-1.86,0.47l-1.87,0.54l-1.78,0.54l-1.86,0.54l-1.78,0.62l-1.79,0.7l-1.71,0.7
		l-1.79,0.7l-1.71,0.78l-1.71,0.78l-3.34,1.71l-3.18,1.86l-3.18,1.94l-3.1,2.09L113,86.62l-1.47,1.09l-1.47,1.16l-1.4,1.16
		l-0.08-0.08l-0.85,0.85l-1.16,1.09l-1.17,1.01l-1.09,1.09l-1.09,1.09l-2.1,2.1l-1.94,2.25l-1.94,2.25L95.38,104l-1.71,2.33
		l-1.71,2.48l-1.63,2.48l-1.47,2.56h-0.08l-0.08,0.31l-0.93,1.63l-0.85,1.63l-0.85,1.71l-0.78,1.63l-0.78,1.78l-0.7,1.71l-0.7,1.71
		l-0.62,1.78l-0.62,1.79l-0.62,1.78l-0.54,1.78l-0.47,1.86l-0.47,1.86l-0.47,1.86l-0.39,1.86l-0.31,1.86l-0.39,2.1L78,146.15
		l-0.16,1.63l-0.16,1.63l-0.15,1.63l-0.16,1.63l-0.08,1.63v1.71v1.63v0.08v1.86l0.08,1.94l0.08,1.86l0.16,1.86l0.15,1.94l0.23,1.78
		l0.23,1.86l0.31,1.86l0.31,1.79l0.39,1.78l0.39,1.86l0.47,1.71l0.47,1.78l0.54,1.78l0.54,1.71l0.54,1.71v0.08l0.93,2.33l0.85,2.41
		l1.01,2.25l1.09,2.25l1.09,2.25l1.16,2.17l1.24,2.17l1.32,2.1l1.32,2.09l1.47,2.02l1.4,2.02l1.55,1.94l1.55,1.94l1.63,1.87
		l1.63,1.78l1.78,1.78l1.47,1.47l1.55,1.48l1.63,1.4l1.63,1.4l1.63,1.32l1.71,1.32l1.71,1.24l1.71,1.16l1.78,1.16l1.86,1.16
		l1.79,1.09l1.86,1.01l1.94,1.01l1.94,1.01l1.94,0.85l1.94,0.86l2.02,0.85l2.02,0.78l2.02,0.7l2.09,0.7l2.1,0.62l2.1,0.54l2.09,0.54
		l2.17,0.46l2.17,0.39l2.17,0.39l2.25,0.31l2.17,0.23l2.25,0.23l2.25,0.16l2.33,0.08h2.25h0.08h2.25l2.25-0.08l2.25-0.16l2.25-0.23
		l2.25-0.23l2.17-0.31l2.17-0.39l2.17-0.39l2.17-0.46l2.17-0.54l2.1-0.54l2.09-0.62l2.02-0.7l2.09-0.7l2.02-0.78l1.94-0.85
		l2.02-0.86l1.94-0.85l1.94-1.01l1.86-1.01l1.86-1.01l1.86-1.09l1.78-1.16l1.79-1.16l1.78-1.16l1.71-1.24l1.71-1.32l1.63-1.32
		l1.63-1.4l1.55-1.4l1.55-1.48l1.55-1.47l1.71-1.78l1.71-1.78l1.63-1.87l1.55-1.94l1.48-1.94L236.5,210.94L236.5,210.94z
		 M250.06,165.15h-0.94l0.32-0.91l0.47-1.24l0.39-1.24l-0.08,2.02L250.06,165.15L250.06,165.15z M243.64,165.15h-11.17l0.05-0.06
		l1.94-2.33l1.78-2.41l1.63-2.48l1.55-2.56l1.24,2.79l1.24,2.87l1.16,2.79L243.64,165.15L243.64,165.15z M227.19,165.15h-7.24
		l-0.93-2.08l-1.01-2.25l-1.09-2.25l-1.09-2.25l-1.09-2.25l-1.16-2.25l0.93-0.62l2.17-1.55l2.1-1.63l1.94-1.63l1.86-1.79l1.71-1.78
		l1.63-1.86l1.47-1.86l1.4-1.94l1.16,1.71l1.16,1.71l1.09,1.71l1.09,1.71l1.01,1.71l1.01,1.78l0.93,1.78l1.01,1.79l-0.7,1.32
		l-0.7,1.32l-0.78,1.24l-0.78,1.24l-0.78,1.24l-0.93,1.24l-0.85,1.24l-0.93,1.16l-1.01,1.24l-1.01,1.09l-1.01,1.16L227.19,165.15
		L227.19,165.15z M215.65,165.15h-5.47v12.79l-0.48,0.27l-1.94,1.01l-2.02,0.93l-2.02,0.93l-2.1,0.93l-2.17,0.78l-2.09,0.86
		l-2.25,0.7l-2.25,0.7l-2.25,0.62l-2.25,0.54l-2.33,0.54l-0.39-2.41l-0.39-2.41l-0.31-2.41l-0.39-2.41l-0.39-2.41l-0.39-2.41
		l-0.39-2.4l-0.39-2.33l-0.7-3.96l1.94-0.31l1.94-0.39l1.86-0.47l1.94-0.47l1.78-0.47l1.86-0.54l1.79-0.54l1.78-0.62l1.71-0.62
		l1.71-0.7l1.71-0.7l1.63-0.7l1.63-0.78l1.55-0.78l1.55-0.78l1.55-0.85l1.16,2.25l1.09,2.33l1.16,2.33l1.09,2.25L215.65,165.15
		L215.65,165.15z M210.19,182.39v18.83l-1.72,0.89l-2.25,1.09l-2.33,1.01l-2.41,1.01l-2.41,0.85l-2.48,0.85l-2.48,0.78l-2.56,0.78
		l-2.64,0.62l-0.23-2.33l-0.31-2.33l-0.31-2.33l-0.23-2.25l-0.31-2.33l-0.31-2.33l-0.31-2.33l-0.31-2.25l2.33-0.54l2.4-0.54
		l2.33-0.7l2.25-0.62l2.25-0.78l2.25-0.78l2.17-0.85l2.17-0.85l2.1-0.93l2.09-1.01L210.19,182.39L210.19,182.39z M210.19,205.6v5.34
		h13.97l-1.8,1.42l-2.33,1.63l-2.41,1.63l-2.41,1.48l-2.48,1.47l-2.56,1.4l-2.56,1.24l-2.64,1.24l-2.72,1.16l-2.72,1.01l-2.79,1.01
		l-2.87,0.86l-2.87,0.85l-0.23-1.78l-0.16-1.79l-0.23-1.78l-0.16-1.79l-0.23-1.78l-0.16-1.86l-0.23-1.78l-0.23-1.79l2.72-0.62
		l2.72-0.78l2.56-0.78l2.64-0.85l2.48-1.01l2.56-1.01l2.41-1.01l2.41-1.16L210.19,205.6L210.19,205.6z M230.32,210.94h1.2l-0.7,0.87
		l-1.71,1.94l-1.71,1.94l-1.78,1.79l-1.78,1.78l-1.79,1.63l-1.86,1.63l-1.94,1.55l-1.94,1.48l-2.02,1.47l-2.02,1.4l-2.1,1.32
		l-2.17,1.24l-2.17,1.24l-2.17,1.16l-2.25,1.09l-2.25,1.01l-2.33,0.93l-2.33,0.85l-2.41,0.85l-0.15-1.71l-0.16-1.71l-0.23-1.71
		l-0.16-1.71l2.95-0.85l2.87-0.86l2.87-1.01l2.79-1.01l2.72-1.16l2.72-1.16l2.64-1.32l2.64-1.32l2.48-1.47l2.48-1.47l2.48-1.55
		l2.33-1.63l2.33-1.71l2.25-1.79l2.17-1.86L230.32,210.94L230.32,210.94z M184.48,83.2l-1.55-0.62l-1.63-0.62l-1.71-0.54l-1.78-0.47
		l2.33-6.44l1.94,0.47l1.87,0.47l1.86,0.62l1.86,0.55l1.78,0.7l1.71,0.7l1.71,0.7l1.63,0.78L184.48,83.2L184.48,83.2z M198.92,82.04
		l0.85,0.62l1.32,0.93l1.24,0.93l1.24,1.01l1.16,1.09l1.09,1.09l1.01,1.09l0.93,1.16l0.93,1.16l0.78,1.16l0.78,1.24l0.7,1.24
		l0.54,1.24l0.54,1.24l0.47,1.32l0.31,1.32l0.31,1.32l-2.17-1.24l-2.25-1.24l-2.25-1.16l-2.25-1.16l-2.33-1.09l-2.33-1.09
		l-2.33-1.09l-2.41-1.01l-0.47-0.85l-0.54-0.85l-0.62-0.85l-0.7-0.85l-0.78-0.78l-0.85-0.78l-0.85-0.7l-1.01-0.78L198.92,82.04
		L198.92,82.04z M184.33,87.47l0.46,0.23l0.62,0.39l0.62,0.39l0.62,0.39l0.54,0.39l-1.01-0.39l-1.01-0.31l-1.01-0.31l-1.01-0.39
		L184.33,87.47L184.33,87.47z M173.93,80.18l-2.02-0.31l-1.94-0.15l-2.1-0.16h-2.02h-0.08h-1.71l-1.63,0.08l-1.63,0.15l-1.63,0.16
		l-1.63-6.44l1.55-0.16l1.63-0.08l1.55-0.15h1.63h0.62l0.16-0.08h0.46h0.62h0.08h0.62h0.47l0.15,0.08h0.54l2.17,0.08l2.17,0.15
		l2.09,0.23l2.1,0.23L173.93,80.18L173.93,80.18z M155.3,80.56l-1.94,0.47l-1.78,0.54l-1.78,0.54l-1.71,0.7l-0.93-0.62l-1.01-0.62
		l-1.47-0.86l-1.55-0.78l-1.71-0.78l-1.86-0.78l1.63-0.7l1.63-0.7l1.71-0.54l1.79-0.62l1.78-0.47l1.86-0.47l1.86-0.47l1.86-0.31
		L155.3,80.56L155.3,80.56z M148.78,88.48l-0.31,0.54l-0.16,0.55L147,89.72l-1.24,0.16l-1.32,0.16l-1.24,0.15l0.78-0.62l0.93-0.62
		l0.93-0.62l1.01-0.62l0.7-0.39l0.62,0.62L148.78,88.48L148.78,88.48z M143.97,84.83l-1.09,0.7l-1.01,0.7l-0.93,0.78l-0.93,0.77
		l-0.78,0.85l-0.7,0.78l-0.7,0.93l-0.54,0.85l-2.02,0.46l-2.02,0.39l-2.02,0.54l-2.02,0.47l-2.02,0.62l-2.02,0.54l-2.1,0.7
		l-2.02,0.62l-0.93,0.39l0.47-0.93l0.46-0.93l0.54-0.93l0.54-0.93l0.62-0.85l0.62-0.93l0.7-0.85l0.7-0.85l1.55-1.63l1.71-1.55
		l1.86-1.47l1.94-1.47l0.7-0.47l0.7-0.39l0.78-0.47l0.7-0.46l2.72,0.93l2.4,1.01l2.17,1.01L143.97,84.83L143.97,84.83z
		 M217.32,103.85l-0.08-1.32l-0.16-1.4l-0.23-1.32l-0.31-1.32l-0.39-1.24l-0.39-1.32l-0.54-1.24l-0.54-1.24l-0.62-1.24l-0.7-1.16
		l-0.78-1.16l-0.78-1.16l-0.85-1.16l-0.93-1.09l-1.01-1.09L208,84.37l1.78,1.01l1.71,1.09l1.71,1.16l1.71,1.16l1.63,1.16l1.63,1.24
		l1.55,1.24l1.55,1.32l0.54,0.62l0.54,0.62l0.7,0.85l0.62,0.78l0.62,0.86l0.62,0.78l1.24,1.86l1.09,1.94l1.01,1.94l0.86,2.02
		l0.7,2.02l0.54,2.02l0.46,2.1l0.23,2.17l-2.25-2.02l-2.33-1.86l-2.41-1.86l-2.41-1.71l-1.09-0.78l-1.09-0.78l-1.09-0.7
		L217.32,103.85L217.32,103.85z M235.09,118.05v-0.47l0.08-0.47v-0.08l-0.08-1.24l-0.08-1.24l-0.08-1.32l-0.16-1.24l-0.23-1.24
		l-0.23-1.24l-0.31-1.16l-0.39-1.24l1.55,2.1l1.47,2.17l1.4,2.17l1.32,2.25l0.16,0.39l0.31,1.09l0.39,1.24l0.47,1.55l0.31,1.63
		l0.31,1.55l0.23,1.55l-1.55-1.71l-1.55-1.71l-1.63-1.71L235.09,118.05L235.09,118.05z M248.75,141.03l0.23,0.93l0.16,0.93
		l0.15,0.93l0.16,0.93l-0.16,2.1l-0.15,2.17l-0.31,2.1l-0.39,2.1l-0.39,2.02l-0.54,2.02l-0.54,2.02l-0.62,2.02l-1.09-2.64
		l-1.16-2.56l-1.24-2.56l-1.24-2.56l0.7-1.78l0.7-1.79l0.62-1.78l0.55-1.79l0.46-1.86l0.39-1.86l0.31-1.86l0.23-1.94l0.85,1.16
		l0.78,1.16l0.78,1.16L248.75,141.03L248.75,141.03z M242,131.48l-0.08,1.94l-0.15,1.86l-0.23,1.94l-0.31,1.86l-0.39,1.86
		l-0.46,1.86l-0.54,1.78l-0.62,1.79l-0.93-1.63l-0.93-1.63l-1.01-1.63l-1.01-1.63l-1.09-1.63l-1.01-1.63l-1.09-1.55l-1.16-1.63
		l0.62-1.24l0.62-1.24l0.54-1.32l0.47-1.24l0.39-1.32l0.39-1.32l0.31-1.32l0.31-1.32l1.86,1.94l1.86,2.1l1.86,2.17L242,131.48
		L242,131.48z M231.13,119.61l-0.16,1.32l-0.23,1.32l-0.23,1.32l-0.31,1.32l-0.39,1.24l-0.47,1.32l-0.47,1.24l-0.54,1.24l-1.47-1.94
		l-1.55-1.86l-1.55-1.86l-1.63-1.78l-1.71-1.86l-1.71-1.78l-1.78-1.79l-1.86-1.78l0.7-1.63l0.54-1.71l0.47-1.71l0.31-1.78l1.16,0.78
		l1.16,0.85l3.03,2.25l2.95,2.33l2.87,2.41L231.13,119.61L231.13,119.61z M213.36,106.02l-0.16,1.63l-0.23,1.63l-0.47,1.63
		l-0.47,1.55l-1.94-1.63l-1.94-1.63l-1.94-1.55l-2.1-1.63l-2.1-1.55l-2.09-1.55l-2.17-1.47l-2.25-1.47l0.16-0.78l0.16-0.78l0.08-0.7
		l0.08-0.85l2.25,1.01l2.25,1.09l2.18,1.09l2.25,1.09l2.17,1.16l2.1,1.24l2.09,1.16L213.36,106.02L213.36,106.02z M191.78,95.16
		l0.16,0.85l0.08,0.85v0.47l-0.08,0.39l-2.02-1.24l-2.1-1.16l-2.09-1.24l-2.35-1.24l0.17-0.7l2.09,0.7l2.1,0.78l2.02,0.78
		L191.78,95.16L191.78,95.16z M146.76,93.68l-1.78,1.01l-1.78,1.01l-1.79,1.01l-1.78,1.01v-0.39l-0.08-0.39h0.08v-0.08h-0.08
		l0.08-0.54l0.08-0.54l0.08-0.54l0.15-0.54l1.71-0.31l1.71-0.23l1.71-0.23L146.76,93.68L146.76,93.68z M135.74,95.54l-0.08,0.62v0.7
		v0.08v0.7l0.08,0.78l0.16,0.7l0.23,0.78l-2.17,1.32l-2.17,1.4l-2.09,1.32l-2.1,1.48l-2.09,1.4l-2.1,1.47l-2.09,1.55l-2.1,1.47
		l-0.47-1.55l-0.31-1.63l-0.15-1.63l-0.08-1.63v-1.09l0.08-1.09l0.15-1.01l0.16-1.01l0.93-0.39l1.01-0.31l0.93-0.39l0.93-0.31
		l1.63-0.54l1.71-0.54l1.63-0.46l1.71-0.54l1.71-0.39l1.63-0.47l1.71-0.39L135.74,95.54L135.74,95.54z M114.4,102.3l-0.08,0.62v0.62
		v0.62l-0.08,0.7l0.08,1.16l0.08,1.16l0.08,1.16l0.23,1.09l0.23,1.09l0.23,1.16l0.39,1.09l0.39,1.01l-1.01,0.78l-0.93,0.7
		l-0.93,0.78l-0.93,0.78l-2.64,2.09l-2.64,2.25l-2.64,2.25l-2.56,2.25l-0.31-1.01l-0.23-1.09l-0.23-1.01l-0.16-1.09l-0.15-1.09
		l-0.08-1.09l-0.08-1.09v-1.09v-0.08v-1.09l0.08-1.16l0.08-1.09l0.15-1.09l0.16-1.09l0.23-1.09l0.31-1.09l0.23-1.09l1.63-0.78
		l1.55-0.85l1.63-0.78l1.55-0.78l1.63-0.7l1.55-0.7l1.63-0.7L114.4,102.3L114.4,102.3z M97.09,110.83l-0.31,1.55l-0.16,1.55
		l-0.08,1.55l-0.08,1.55v0.08l0.08,1.47l0.08,1.47l0.16,1.48l0.23,1.4l0.23,1.47l0.39,1.4l0.39,1.4l0.47,1.4l-2.09,2.02l-2.17,2.02
		l-2.09,2.1l-2.1,2.1l-0.15-1.47l-0.16-1.48l-0.08-1.47v-1.47v-0.08v-2.02l0.16-2.02l0.23-1.94l0.31-2.02l0.16-0.54l0.16-0.7
		l0.31-1.47l0.39-1.47l0.47-1.4l0.46-1.48l0.47-0.78l0.47-0.85l0.54-0.86l0.54-0.85l0.7-0.39l0.7-0.39l0.7-0.39L97.09,110.83
		L97.09,110.83z M104,102.76l0.23-0.54l0.62-1.09l0.62-1.09l0.78-1.09l0.7-1.09l0.78-1.01l0.85-1.09l0.85-1.01l0.93-1.01l1.55-1.32
		l1.55-1.24l1.63-1.24l1.63-1.24l1.71-1.16l1.63-1.09l1.78-1.09l1.71-1.01l-1.4,1.48l-1.32,1.55l-1.24,1.63l-1.09,1.63l-1.01,1.71
		l-0.85,1.71l-0.78,1.78l-0.54,1.86l-2.87,1.16l-2.79,1.16l-2.87,1.32L104,102.76L104,102.76z M226.32,133.73l-1.24,1.94l-1.47,1.94
		l-1.55,1.86l-1.71,1.86l-1.86,1.71l-1.94,1.71l-2.02,1.63l-2.17,1.55l-0.62,0.39l-1.16-2.17l-1.24-2.25l-1.24-2.25l-1.32-2.17
		l-1.32-2.18l-1.32-2.17l-1.4-2.17l-1.4-2.17l0.62-0.46l1.78-1.24l1.63-1.24l1.55-1.4l1.47-1.4l1.32-1.47l1.32-1.47l1.16-1.55
		l1.01-1.63l1.71,1.63l1.63,1.71l1.63,1.71l1.55,1.71l1.55,1.71l1.47,1.79l1.48,1.78l1.4,1.78L226.32,133.73L226.32,133.73z
		 M210.25,116.19l-0.93,1.48l-1.09,1.55l-1.16,1.4l-1.24,1.4l-1.4,1.4l-1.47,1.24l-1.55,1.24l-1.63,1.24l-0.62,0.39l-1.55-2.25
		l-1.63-2.18l-1.63-2.25l-1.63-2.17L191,116.5l-1.78-2.18l-1.79-2.17l-1.78-2.1l0.54-0.23l0.46-0.31l1.09-0.62l1.09-0.7l1.01-0.7
		l0.93-0.78l0.85-0.78l0.78-0.78l0.7-0.85l0.62-0.85l2.25,1.55l2.25,1.47l2.1,1.55l2.09,1.63l2.02,1.55l2.02,1.63l1.94,1.63
		L210.25,116.19L210.25,116.19z M190.46,101.37l-0.54,0.7l-0.54,0.62l-0.62,0.62l-0.7,0.54l-0.7,0.62l-0.78,0.54l-0.85,0.54
		l-0.93,0.54l-0.93,0.47l-0.93,0.46l-1.71-1.94l-1.79-1.86l-1.78-1.78l-1.78-1.86l1.16-0.47l1.09-0.54l1.01-0.62l0.93-0.62
		l0.78-0.62l0.58-0.5l0.35,0.19l2.25,1.16l2.17,1.24l2.17,1.32L190.46,101.37L190.46,101.37z M208.39,150.42l-1.4,0.78l-1.47,0.86
		l-1.55,0.7l-1.55,0.78l-1.55,0.7l-1.63,0.62l-1.63,0.7l-1.71,0.54l-1.63,0.62l-1.79,0.54l-1.71,0.47l-1.79,0.54l-1.78,0.39
		l-1.86,0.39l-1.86,0.39l-1.86,0.31l-0.47-2.48l-0.47-2.56l-0.47-2.56l-0.54-2.48l-0.47-2.56l-0.54-2.49l-0.54-2.48l-0.54-2.49
		l2.87-0.54l2.72-0.62l2.64-0.7l2.64-0.78l2.48-0.93l2.41-1.01l2.41-1.09l2.25-1.16l1.4,2.17l1.32,2.17l1.4,2.17l1.32,2.17
		l1.32,2.25l1.24,2.17l1.24,2.25L208.39,150.42L208.39,150.42z M195.74,129.54l-2.1,1.09l-2.17,1.01l-2.25,0.85l-2.41,0.86
		l-2.41,0.78l-2.48,0.62l-2.56,0.62l-2.64,0.46l-0.62-2.79l-0.62-2.79l-0.7-2.72l-0.62-2.72l-0.7-2.72l-0.7-2.72l-0.78-2.72
		l-0.7-2.64l1.4-0.23l1.4-0.16l1.4-0.23l1.32-0.31l1.32-0.31l1.24-0.31l1.24-0.39l1.24-0.39l1.86,2.17l1.86,2.17l1.79,2.25
		l1.78,2.17l1.71,2.25l1.63,2.25l1.63,2.25L195.74,129.54L195.74,129.54z M178.97,108.5l-2.02,0.55l-2.17,0.47l-2.25,0.39
		l-2.33,0.23l-0.62-2.25l-0.7-2.17l-0.7-2.25l-0.62-2.17l1.63-0.15l1.55-0.23l0.8-0.07l0.83,0.85l1.71,1.71l1.63,1.63l1.63,1.71
		L178.97,108.5L178.97,108.5z M150.25,96.24l0.93,0.85l1.09,0.7l1.16,0.7l1.32,0.62l-2.33,1.63l-2.17,1.55l-2.17,1.63l-2.1,1.63
		l-1.47-0.93l-1.32-1.01l-0.54-0.54l-0.54-0.54l-0.47-0.54l-0.47-0.62l2.25-1.32l2.25-1.32l2.33-1.24L150.25,96.24L150.25,96.24z
		 M137.84,103.38l0.46,0.7l0.54,0.62l0.54,0.62l0.62,0.62l0.62,0.62l0.7,0.54l0.7,0.54l0.78,0.54l-2.1,1.86l-2.02,1.86l-2.02,1.86
		l-1.94,1.94l-1.86,1.94l-1.87,1.94l-1.78,2.02l-1.71,2.1l-1.01-1.01l-1.01-1.01l-0.93-1.09l-0.93-1.01l-0.78-1.09l-0.78-1.16
		l-0.7-1.09l-0.62-1.16l2.1-1.55l2.09-1.55l2.1-1.47l2.17-1.47l2.1-1.47l2.17-1.4l2.17-1.4L137.84,103.38L137.84,103.38z
		 M117.58,117.51l0.7,1.24l0.78,1.24l0.85,1.16l0.93,1.16l1.01,1.16l1.01,1.09l1.09,1.16l1.16,1.01l-1.55,2.02l-1.55,2.09l-1.47,2.1
		l-1.4,2.09l-1.4,2.17l-1.32,2.17l-1.32,2.17l-1.24,2.17l-1.71-1.55l-1.63-1.71l-1.55-1.63l-1.4-1.78l-1.24-1.78l-1.24-1.86
		l-1.01-1.86l-0.93-1.94l2.79-2.48l2.87-2.48l2.87-2.48l2.95-2.33l0.7-0.62l0.78-0.54l0.7-0.62L117.58,117.51L117.58,117.51z
		 M100.12,132.41l1.09,2.1l1.16,1.94l1.32,1.94l1.4,1.86l1.55,1.86l1.71,1.78l1.78,1.71l1.86,1.71l-1.09,2.17l-1.09,2.09l-1.01,2.17
		l-1.01,2.25l-0.93,2.17l-0.93,2.25l-0.85,2.25l-0.86,2.25l-1.24-1.24l-1.16-1.32l-1.09-1.4l-1.09-1.32l-1.01-1.4l-0.93-1.4
		l-0.93-1.47l-0.85-1.47l-0.85-1.47l-0.78-1.47l-0.7-1.55l-0.62-1.55l-0.62-1.55l-0.54-1.55l-0.47-1.55l-0.39-1.63l2.25-2.33
		l2.25-2.33l2.33-2.25L100.12,132.41L100.12,132.41z M87.77,144.91l0.54,1.63l0.54,1.71l0.7,1.63l0.7,1.63l0.78,1.55l0.78,1.55
		l0.85,1.55l0.93,1.55l1.01,1.47l1.01,1.55l1.09,1.4l1.09,1.47l1.16,1.4l1.24,1.4l1.24,1.32l1.32,1.32l-0.62,1.78l-0.54,1.78
		l-0.54,1.86l-0.54,1.78l-0.54,1.86l-0.54,1.78l-0.47,1.86l-0.47,1.86l-1.55-1.79l-1.47-1.86l-1.4-1.86l-1.4-1.94l-1.24-1.94
		l-1.16-2.02l-1.16-2.02l-1.01-2.1l-1.01-2.1l-0.85-2.1l-0.78-2.17l-0.78-2.17l-0.62-2.25l-0.54-2.25l-0.47-2.25l-0.31-2.33
		l1.24-1.4l1.24-1.4l1.24-1.4L87.77,144.91L87.77,144.91z M82.19,145.14v-0.39l0.31-1.86l0.31-1.86l0.39-1.79l0.47-1.78l0.47-1.78
		l0.46-1.79l0.54-1.78l0.54-1.78v0.54v0.08l0.08,2.41l0.16,2.33l0.31,2.4l0.39,2.25l-1.09,1.24l-1.09,1.16l-1.16,1.24L82.19,145.14
		L82.19,145.14z M158.02,101.68l-0.85,1.86l-0.85,1.79l-0.78,1.86l-0.78,1.86l-1.32-0.31l-1.24-0.39l-1.16-0.39l-1.16-0.47
		l1.94-1.47l2.02-1.47l2.1-1.47L158.02,101.68L158.02,101.68z M146.45,110.29l1.55,0.7l1.63,0.62l1.78,0.62l1.79,0.47l-1.01,2.56
		l-1.01,2.64l-1.01,2.64l-0.93,2.56l-0.85,2.64l-0.93,2.64l-0.85,2.64l-0.78,2.72l-1.94-0.7l-1.94-0.7l-1.78-0.7l-1.79-0.85
		l-1.71-0.85l-1.71-0.85l-1.55-1.01l-1.55-0.93l-0.7-0.47l-0.62-0.47l1.78-2.17l1.86-2.02l1.86-2.1l2.02-1.94l1.94-2.02l2.1-1.94
		l2.09-1.86L146.45,110.29L146.45,110.29z M128.13,129.23l0.7,0.54l0.78,0.54l1.71,1.09l1.71,1.01l1.79,1.01l1.86,0.93l1.94,0.85
		l1.94,0.78l2.02,0.78l2.1,0.7l-0.7,2.48l-0.7,2.48l-0.62,2.49l-0.62,2.48l-0.62,2.49l-0.54,2.48l-0.62,2.56l-0.46,2.48l-2.87-0.85
		l-2.79-1.01l-2.72-1.09l-2.56-1.09l-2.56-1.24l-2.41-1.32l-2.33-1.4l-2.25-1.47l-1.17-0.78l-1.16-0.85l1.24-2.25l1.32-2.17
		l1.32-2.17l1.32-2.17l1.47-2.1l1.4-2.09l1.55-2.1L128.13,129.23L128.13,129.23z M115.09,149.8l1.01,0.7l0.93,0.7l2.41,1.55
		l2.48,1.47l2.64,1.4l2.72,1.32l2.79,1.24l2.87,1.09l2.95,1.09l3.11,0.93l-0.31,1.32l-0.23,1.32l-0.23,1.32l-0.23,1.32l-0.39,2.18
		l-0.31,2.17l-0.39,2.17l-0.31,2.17l-0.31,2.17l-0.23,2.17l-0.31,2.25l-0.23,2.17l-3.34-1.16l-3.18-1.32l-3.18-1.4l-3.03-1.47
		l-2.87-1.63l-2.87-1.71l-2.72-1.78l-2.56-1.86l-1.16-0.93l-1.16-0.93l-1.09-0.93l-1.01-0.93l0.85-2.33l0.86-2.33l0.93-2.33
		l0.93-2.25l1.01-2.25l1.01-2.25l1.09-2.25L115.09,149.8L115.09,149.8z M105.94,172l0.85,0.7l0.85,0.7l0.85,0.7l0.85,0.7l1.4,1.01
		l1.4,1.01l1.47,1.01l1.47,0.93l1.47,0.93l1.55,0.93l1.63,0.85l1.55,0.86l1.63,0.85l1.63,0.78l1.71,0.7l1.71,0.78l1.71,0.7
		l1.78,0.62l1.79,0.62l1.78,0.62l-0.23,2.33l-0.16,2.25l-0.23,2.33l-0.16,2.33l-0.16,2.33l-0.15,2.33l-0.16,2.33l-0.08,2.33
		l-1.94-0.7l-1.86-0.7l-1.86-0.78l-1.86-0.78l-1.78-0.85l-1.79-0.85l-1.78-0.93l-1.71-0.93l-1.71-0.93l-1.63-1.01l-1.63-1.09
		l-1.63-1.09l-1.55-1.09l-1.55-1.09l-1.47-1.16l-1.48-1.24l-1.24-1.01l-1.16-1.09l-1.24-1.09l-1.16-1.16l0.47-1.86l0.54-1.94
		l0.47-1.86l0.54-1.86l0.54-1.94l0.54-1.86l0.54-1.86L105.94,172L105.94,172z M100.66,191.48l0.85,0.7l0.78,0.78l0.85,0.7l0.85,0.7
		l1.55,1.32l1.63,1.24l1.71,1.24l1.71,1.16l1.71,1.17l1.79,1.09l1.78,1.09l1.86,1.01l1.86,1.01l1.86,1.01l1.94,0.93l2.02,0.85
		l1.94,0.85l2.02,0.78l2.09,0.78l2.1,0.7l-0.08,1.78l-0.08,1.86V216l-0.08,1.79v1.86v1.78v1.86v1.79l-1.78-0.62l-1.78-0.7
		l-1.79-0.78l-1.71-0.7l-2.17-1.01L122,220.2l-2.1-1.09l-2.09-1.16l-2.64-1.55l-2.64-1.71l-2.48-1.79l-2.48-1.86l-2.41-1.94
		l-2.25-2.02l-2.25-2.02l-2.1-2.17l0.47-2.87l0.54-2.87l0.54-2.87L100.66,191.48L100.66,191.48z M97.09,207l2.09,2.02l2.17,1.94
		l2.25,1.94l2.33,1.87l2.41,1.71l2.41,1.71l2.56,1.63l2.56,1.55l2.09,1.16l2.25,1.16l2.17,1.09l2.25,1.09l2.17,0.93l2.17,0.85
		l2.17,0.85l2.25,0.78v1.63l0.08,1.63v1.71l0.08,1.71l-1.94-0.85l-1.94-0.85l-1.86-0.93l-1.86-1.01l-1.86-1.01l-1.78-1.01
		l-1.78-1.09l-1.71-1.16l-1.71-1.16l-1.71-1.24l-1.63-1.24l-1.63-1.32l-1.63-1.32l-1.55-1.4l-1.47-1.4l-1.55-1.47l-2.33-2.48
		l-2.33-2.56l-2.17-2.72L97.09,207L97.09,207z M95.23,199.16l-1.4-1.63l-1.24-1.63l-1.24-1.71l-1.24-1.71l-1.16-1.79l-1.09-1.71
		l-1.01-1.86l-1.01-1.79l-0.93-2.79l-0.86-2.87l-0.7-2.87l-0.62-2.95l-0.54-3.03l-0.39-2.95l-0.31-3.03l-0.23-3.11l0.7,1.86
		l0.62,1.78l0.78,1.79l0.78,1.71l0.85,1.78l0.85,1.71l0.93,1.71l1.01,1.63l1.01,1.71l1.09,1.63l1.16,1.55l1.16,1.55l1.24,1.55
		l1.24,1.55l1.32,1.48l1.4,1.47l-0.62,2.72l-0.54,2.72l-0.54,2.72L95.23,199.16L95.23,199.16z M188.29,239.29l-2.72,0.7l-2.72,0.62
		l-2.79,0.47l-2.79,0.47l-2.79,0.31l-2.87,0.23l-2.87,0.16l-2.87,0.08h-0.08l-1.86-0.08h-1.86l-1.79-0.16l-1.86-0.08l-1.78-0.23
		l-1.79-0.15l-1.78-0.31l-1.78-0.23l-3.57-0.7l-3.41-0.85l-3.42-1.01l-3.34-1.09l-0.08-1.71l-0.08-1.78v-1.71l-0.08-1.78l3.42,0.93
		l3.42,0.85l3.49,0.7l3.57,0.54l3.57,0.47l3.65,0.31l3.65,0.15l3.73,0.08h2.79l2.79-0.15l2.79-0.16l2.72-0.23l2.72-0.31l2.64-0.46
		l2.72-0.47l2.64-0.47L188.29,239.29L188.29,239.29z M187.12,228.27l-2.56,0.54l-2.56,0.47l-2.64,0.39l-2.72,0.31l-2.64,0.23
		l-2.71,0.23l-2.72,0.08l-2.79,0.08l-3.73-0.08l-3.65-0.23l-3.65-0.31l-3.65-0.47l-3.49-0.62l-3.49-0.7l-3.49-0.85l-3.34-0.93v-1.86
		v-1.86v-1.78v-1.86v-1.79l0.08-1.86v-1.78l0.08-1.79l3.34,0.85l3.41,0.78l3.49,0.7l3.49,0.54l3.57,0.47l3.65,0.31l3.65,0.15
		l3.73,0.08h0.08h2.48l2.56-0.08l2.48-0.15l2.48-0.23l2.48-0.23l2.41-0.31l2.41-0.39l2.4-0.47l0.23,1.78l0.15,1.79l0.23,1.86
		l0.15,1.78l0.23,1.79l0.15,1.78l0.23,1.86L187.12,228.27L187.12,228.27z M185.11,209.95l-2.33,0.39l-2.33,0.39l-2.41,0.31
		l-2.41,0.31l-2.41,0.15l-2.48,0.16l-2.41,0.08l-2.48,0.08h-0.08l-3.73-0.08l-3.65-0.23l-3.57-0.31l-3.57-0.47l-3.49-0.54l-3.49-0.7
		l-3.34-0.78l-3.34-0.93l0.08-2.41l0.16-2.33l0.08-2.33l0.16-2.33l0.23-2.33l0.16-2.33l0.23-2.33l0.23-2.25l3.18,0.78l3.18,0.7
		l3.34,0.62l3.34,0.54l3.42,0.39l3.41,0.31l3.49,0.15l3.49,0.08h0.08h2.17l2.1-0.08l2.17-0.15l2.09-0.16l2.1-0.16l2.1-0.23
		l2.02-0.31l2.1-0.31l0.31,2.33l0.31,2.33l0.31,2.33l0.31,2.33l0.31,2.33l0.31,2.33l0.23,2.33L185.11,209.95L185.11,209.95z
		 M182.15,187.44l-2.02,0.31l-1.94,0.31l-2.02,0.23l-2.02,0.15l-2.1,0.16l-2.02,0.08l-2.1,0.08h-2.09h-0.08h-3.49l-3.42-0.23
		l-3.42-0.23l-3.34-0.47l-3.26-0.47l-3.26-0.62l-3.18-0.78l-3.1-0.78l0.23-2.25l0.31-2.25l0.31-2.25l0.31-2.25l0.31-2.25l0.31-2.25
		l0.39-2.17l0.39-2.25l0.23-1.24l0.15-1.24l0.23-1.24l0.31-1.24l2.72,0.62l2.72,0.54l2.87,0.47l2.87,0.39l2.87,0.31l2.95,0.23
		l2.95,0.08l3.03,0.08h0.08h1.63l1.55-0.08l1.63-0.08l1.55-0.08l1.55-0.08l1.55-0.16l1.55-0.15l1.55-0.16l0.7,3.96l0.39,2.41
		l0.39,2.4l0.39,2.33l0.39,2.41l0.39,2.48l0.39,2.4l0.31,2.41L182.15,187.44L182.15,187.44z M177.73,160.35l-1.47,0.16l-1.4,0.16
		l-1.47,0.15l-1.47,0.08l-1.55,0.08l-1.47,0.08h-1.47h-1.55h-0.08h-2.95l-2.87-0.16l-2.79-0.23l-2.79-0.23l-2.79-0.39l-2.72-0.47
		l-2.72-0.54l-2.64-0.62l0.54-2.48l0.54-2.56l0.62-2.48l0.62-2.48l0.62-2.48l0.62-2.49l0.7-2.48l0.7-2.49l2.02,0.54l2.09,0.39
		l2.1,0.39l2.17,0.23l2.17,0.23l2.25,0.15l2.25,0.16h2.25h0.08h2.02l1.94-0.08l1.94-0.15l1.94-0.16l0.54,2.48l0.54,2.48l0.54,2.48
		l0.47,2.56l0.54,2.48l0.47,2.56l0.47,2.56L177.73,160.35L177.73,160.35z M172.84,136.29l-1.71,0.16l-1.71,0.15h-1.78l-1.78,0.08
		h-0.08l-2.1-0.08l-2.09-0.08l-2.1-0.15l-2.02-0.23l-2.02-0.23l-2.02-0.31l-1.94-0.39l-1.94-0.47l0.85-2.72l0.85-2.64l0.93-2.64
		l0.93-2.72l0.93-2.64l1.01-2.64l1.01-2.56l1.01-2.64l2.09,0.31l2.17,0.23l2.17,0.16h2.25h0.08h0.7h0.78l0.7,2.71l0.78,2.72
		l0.7,2.72l0.7,2.72l0.7,2.79l0.62,2.79l0.7,2.79L172.84,136.29L172.84,136.29z M166.17,110.37h-0.31h-0.08l-1.86-0.08l-1.79-0.08
		l-1.78-0.16l-1.71-0.23l0.93-2.02l0.85-2.02l0.93-2.1l0.93-2.25l1.24,0l0.7,2.25l0.62,2.17l0.7,2.25L166.17,110.37L166.17,110.37z"
		/>
</g>
</svg>
