<?xml version="1.0" encoding="utf-8"?>
<!-- Generator: Adobe Illustrator 24.1.3, SVG Export Plug-In . SVG Version: 6.00 Build 0)  -->
<svg version="1.1" id="Camada_1" xmlns="http://www.w3.org/2000/svg" xmlns:xlink="http://www.w3.org/1999/xlink" x="0px" y="0px"
	 viewBox="0 0 612 435" style="enable-background:new 0 0 612 435;" xml:space="preserve">
<style type="text/css">
	.st0{fill:#FFFFFF;}
</style>
<path class="st0" d="M590.59,93.78c0-40.77-33.35-74.12-74.12-74.12c0,0-157.84-4.41-210.47-4.41c-52.63,0-210.47,4.41-210.47,4.41
	c-40.77,0-74.12,33.35-74.12,74.12c0,0-4.41,92.74-4.41,123.72c0,30.97,4.41,123.72,4.41,123.72c0,40.77,33.35,74.12,74.12,74.12
	c0,0,157.84,4.41,210.47,4.41c52.63,0,210.47-4.41,210.47-4.41c40.77,0,74.12-33.35,74.12-74.12c0,0,4.41-92.67,4.41-123.72
	S590.59,93.78,590.59,93.78z M250.64,307.88V127.12l146.03,90.36L250.64,307.88z"/>
</svg>
