<?xml version="1.0" encoding="UTF-8" standalone="no"?>
<!DOCTYPE svg PUBLIC "-//W3C//DTD SVG 1.1//EN" "http://www.w3.org/Graphics/SVG/1.1/DTD/svg11.dtd">
<svg width="100%" height="100%" viewBox="0 0 513 512" version="1.1" xmlns="http://www.w3.org/2000/svg" xmlns:xlink="http://www.w3.org/1999/xlink" xml:space="preserve" xmlns:serif="http://www.serif.com/" style="fill-rule:evenodd;clip-rule:evenodd;stroke-linejoin:round;stroke-miterlimit:2;">
    <g transform="matrix(1,0,0,1,0,62)">
        <path d="M334.809,170.992L221.695,109.102C215.191,105.543 207.504,105.676 201.129,109.453C194.75,113.234 190.945,119.914 190.945,127.328L190.945,250.047C190.945,257.426 194.727,264.094 201.063,267.879C204.371,269.855 208.039,270.848 211.715,270.848C215.082,270.848 218.457,270.016 221.563,268.344L334.68,207.52C341.395,203.906 345.586,196.926 345.617,189.297C345.645,181.668 341.504,174.656 334.809,170.992Z" style="fill:white;fill-rule:nonzero;"/>
    </g>
    <g transform="matrix(1,0,0,1,0,62)">
        <path d="M508.234,91.527L508.211,91.293C507.777,87.172 503.461,50.516 485.641,31.871C465.043,9.941 441.691,7.277 430.461,6C429.531,5.895 428.68,5.797 427.918,5.695L427.023,5.602C359.336,0.68 257.113,0.008 256.09,0.004L256,0L255.91,0.004C254.887,0.008 152.664,0.68 84.367,5.602L83.465,5.695C82.738,5.793 81.937,5.883 81.066,5.984C69.965,7.266 46.863,9.934 26.207,32.656C9.234,51.102 4.328,86.973 3.824,91.004L3.766,91.527C3.613,93.242 -0,134.066 -0,175.051L-0,213.363C-0,254.348 3.613,295.172 3.766,296.891L3.793,297.148C4.227,301.203 8.539,337.188 26.277,355.84C45.645,377.035 70.133,379.84 83.305,381.348C85.387,381.586 87.18,381.789 88.402,382.004L89.586,382.168C128.668,385.887 251.203,387.719 256.398,387.793L256.555,387.797L256.711,387.793C257.734,387.789 359.953,387.117 427.641,382.195L428.535,382.102C429.391,381.988 430.352,381.887 431.406,381.777C442.445,380.605 465.422,378.172 485.793,355.758C502.766,337.309 507.676,301.437 508.176,297.41L508.234,296.887C508.387,295.168 512.004,254.348 512.004,213.363L512.004,175.051C512,134.066 508.387,93.246 508.234,91.527ZM481.996,213.363C481.996,251.297 478.684,290.363 478.371,293.949C477.098,303.828 471.922,326.523 463.652,335.512C450.902,349.539 437.805,350.93 428.242,351.941C427.086,352.063 426.016,352.18 425.047,352.301C359.578,357.035 261.215,357.762 256.684,357.789C251.602,357.715 130.859,355.867 92.969,352.348C91.027,352.031 88.93,351.789 86.719,351.539C75.504,350.254 60.152,348.496 48.348,335.512L48.07,335.215C39.945,326.75 34.918,305.527 33.641,294.066C33.402,291.355 30.004,251.828 30.004,213.363L30.004,175.051C30.004,137.16 33.309,98.137 33.629,94.477C35.148,82.84 40.422,61.52 48.348,52.902C61.488,38.449 75.344,36.848 84.508,35.789C85.383,35.687 86.199,35.594 86.953,35.496C153.375,30.738 252.445,30.031 256,30.004C259.555,30.027 358.59,30.738 424.422,35.496C425.23,35.598 426.113,35.699 427.063,35.809C436.488,36.883 450.734,38.508 463.809,52.453L463.93,52.582C472.055,61.047 477.082,82.641 478.359,94.332C478.586,96.891 481.996,136.504 481.996,175.051L481.996,213.363Z" style="fill:white;fill-rule:nonzero;"/>
    </g>
</svg>
