<?xml version="1.0" encoding="UTF-8" standalone="no"?>
<!DOCTYPE svg PUBLIC "-//W3C//DTD SVG 1.1//EN" "http://www.w3.org/Graphics/SVG/1.1/DTD/svg11.dtd">
<svg width="100%" height="100%" viewBox="0 0 256 256" version="1.1" xmlns="http://www.w3.org/2000/svg" xmlns:xlink="http://www.w3.org/1999/xlink" xml:space="preserve" xmlns:serif="http://www.serif.com/" style="fill-rule:evenodd;clip-rule:evenodd;stroke-linejoin:round;stroke-miterlimit:2;">
    <g transform="matrix(2.35903,0,0,2.35903,147.482,353.678)">
        <g id="Layer-1" serif:id="Layer 1">
            <path d="M-46.008,-68.491C-49.431,-66.571 -52.132,-64.711 -54.033,-62.883C-55.114,-61.84 -55.96,-60.801 -56.564,-59.738L-56.564,-65.731C-55.118,-66.66 -53.526,-67.602 -51.785,-68.547C-48.129,-70.555 -44.023,-72.415 -39.367,-74.176C-35.763,-75.532 -31.875,-76.805 -27.619,-77.983C-33.4,-84.613 -40.7,-92.285 -40.757,-98.66C-40.596,-101.974 -39.898,-107.708 -32.553,-108.773C-31.059,-108.843 -29.648,-108.554 -28.383,-108.069C-27.443,-112.541 -25.773,-116.588 -23.073,-120.422C-21.059,-122.923 -19.049,-124.522 -16.73,-126.066C-15.393,-126.96 -14.401,-135.13 -14.348,-137.8C-14.31,-139.787 -14.445,-141.816 -14.854,-143.916C-15.123,-144.861 -15.798,-145.582 -16.626,-146.192C-17.092,-146.603 -16.986,-147.391 -16.659,-147.55C-11.356,-147.519 -7.452,-146.724 -3.282,-146.638C0.825,-146.564 4.615,-146.536 8.707,-146.397C13.623,-146.446 12.094,-144.831 10.626,-144.472C10.088,-144.336 9.986,-143.632 9.74,-143.296C8.839,-141.388 8.36,-139.345 8.79,-136.981L9.942,-127.152C12.332,-121.003 13.851,-123.022 18.131,-116.519C22.217,-109.336 22.723,-102.089 20.174,-92.258C17.216,-81.869 12.126,-70.268 6.064,-58.119C4.288,-55.279 0.999,-53.744 -5.647,-53.693C-10.049,-53.651 -15.755,-54.957 -17.332,-59.567L-22.443,-74.456C-22.829,-73.923 -23.17,-73.415 -23.477,-72.93C-24.273,-74.011 -25.195,-75.145 -26.189,-76.326C-28.874,-75.549 -31.438,-74.72 -33.918,-73.831C-38.705,-72.114 -42.696,-70.344 -46.008,-68.491M-26.515,-78.294L-26.427,-78.16L-26.377,-78.092L-26.327,-78.027L-26.289,-77.963L-26.247,-77.891L-26.189,-77.826L-26.153,-77.76L-26.112,-77.697L-26.059,-77.626L-26.013,-77.559L-25.964,-77.498L-25.924,-77.429L-25.87,-77.363L-25.828,-77.294L-25.786,-77.228L-25.736,-77.16L-25.686,-77.093L-25.65,-77.024L-25.606,-76.963L-25.556,-76.895L-25.51,-76.83L-25.422,-76.692L-25.368,-76.629L-25.335,-76.569L-23.636,-74.103L-22.725,-75.273L-22.706,-75.289L-22.648,-75.361L-22.583,-75.447L-22.525,-75.524L-22.457,-75.604L-22.403,-75.681L-22.334,-75.76L-22.276,-75.837L-22.211,-75.919L-22.146,-75.994L-22.084,-76.082L-22.027,-76.157L-21.962,-76.226L-21.904,-76.314L-21.843,-76.393L-21.778,-76.47L-21.717,-76.55L-21.663,-76.629L-21.597,-76.709L-21.529,-76.786L-21.463,-76.865L-21.401,-76.942L-21.344,-77.024L-21.279,-77.101L-21.218,-77.183L-21.157,-77.258L-21.095,-77.342L-21.033,-77.417L-20.969,-77.498L-20.915,-77.575L-20.85,-77.655L-20.784,-77.732L-20.715,-77.812L-20.662,-77.889L-20.596,-77.969L-20.535,-78.048L-20.47,-78.125L-20.413,-78.206L-20.347,-78.286L-20.286,-78.363L-20.228,-78.443L-20.167,-78.526L-20.098,-78.603L-20.045,-78.679L-19.971,-78.759L-19.914,-78.834L-19.849,-78.913L-19.787,-78.994L-19.725,-79.074L-19.67,-79.151C-20.47,-79.377 -21.382,-79.151 -22.316,-78.881C-21.644,-79.521 -20.692,-79.951 -19.533,-80.227C-17.674,-80.528 -16.979,-81.449 -17.436,-82.988C-17.547,-84.151 -18.416,-85.497 -19.626,-86.916C-19.787,-87.682 -19.87,-88.351 -19.307,-88.368C-19.465,-88.821 -19.269,-89.149 -18.702,-89.348C-19.572,-90.804 -20.508,-91.124 -21.496,-90.332C-22.042,-89.676 -22.06,-88.804 -21.998,-87.906C-22.042,-86.485 -22.569,-85.497 -23.601,-84.951L-23.607,-85.058L-23.607,-85.07L-23.615,-85.169L-23.623,-85.186L-23.636,-85.277L-23.64,-85.303L-23.657,-85.38L-23.662,-85.417L-23.676,-85.486L-23.676,-85.53L-23.693,-85.585L-23.698,-85.639L-23.711,-85.689L-23.723,-85.745L-23.73,-85.791L-23.746,-85.856L-23.746,-85.883L-23.78,-85.957L-23.78,-85.98L-23.807,-86.059L-23.807,-86.07L-23.832,-86.159L-23.857,-86.251L-23.857,-86.259L-23.893,-86.347L-23.893,-86.36L-23.925,-86.428L-23.934,-86.447L-23.958,-86.518L-23.958,-86.542L-23.987,-86.598L-23.999,-86.636L-24.02,-86.686L-24.037,-86.723L-24.056,-86.767L-24.081,-86.813L-24.095,-86.844L-24.122,-86.897L-24.135,-86.916L-24.171,-86.981L-24.175,-86.999L-24.217,-87.059L-24.221,-87.064L-24.256,-87.131L-24.256,-87.137L-24.306,-87.212L-24.309,-87.215L-24.355,-87.281L-24.355,-87.285L-24.396,-87.346L-24.413,-87.356L-24.449,-87.41L-24.467,-87.431L-24.501,-87.469L-24.522,-87.503L-24.555,-87.538L-24.576,-87.565L-24.605,-87.598L-24.638,-87.626L-24.667,-87.649L-24.716,-87.714L-24.763,-87.75L-24.781,-87.758L-24.826,-87.805L-24.836,-87.818L-24.885,-87.86L-24.901,-87.866L-24.963,-87.917L-25.021,-87.958L-25.025,-87.963L-25.09,-88.002L-25.1,-88.012L-25.157,-88.044L-25.184,-88.063L-25.226,-88.09L-25.249,-88.1L-25.299,-88.131L-25.322,-88.144L-25.364,-88.165L-25.404,-88.186L-25.437,-88.2L-25.514,-88.238L-25.568,-88.257L-25.592,-88.263L-25.65,-88.29L-25.667,-88.299L-25.744,-88.318L-25.828,-88.351L-25.907,-88.372L-25.924,-88.374L-25.997,-88.397L-26.009,-88.397L-26.078,-88.414L-26.112,-88.418L-26.17,-88.43L-26.205,-88.435L-26.262,-88.449L-26.3,-88.449L-26.348,-88.457L-26.406,-88.472L-26.449,-88.474L-26.5,-88.476L-26.532,-88.481L-26.611,-88.483L-26.63,-88.483L-26.713,-88.487L-26.749,-88.487C-26.868,-88.495 -26.991,-88.495 -27.117,-88.491L-27.136,-88.487L-27.148,-88.487L-27.251,-88.483C-27.447,-88.474 -27.66,-88.449 -27.884,-88.418C-30.278,-87.607 -32.599,-88.272 -34.861,-89.958C-36.618,-91.314 -38.068,-92.856 -39.211,-94.584C-37.292,-89.841 -29.511,-81.368 -27.884,-81.351C-26.918,-81.046 -25.87,-81.109 -24.797,-81.335L-24.754,-81.339L-24.739,-81.343L-24.467,-81.4L-24.461,-81.403L-24.428,-81.412L-24.385,-81.415L-24.363,-81.424L-24.016,-81.516L-23.995,-81.52L-23.972,-81.525L-23.934,-81.533L-23.903,-81.537L-23.815,-81.569L-23.807,-81.569L-23.723,-81.589L-23.711,-81.589L-23.636,-81.618L-23.627,-81.618L-23.601,-81.625L-23.55,-81.637L-23.534,-81.64L-23.518,-81.65L-23.473,-81.656L-23.444,-81.671L-23.431,-81.671L-23.391,-81.688L-23.346,-81.694L-23.304,-81.706L-23.217,-81.728L-23.182,-81.744L-23.158,-81.748L-23.13,-81.75L-23.068,-81.774L-23.014,-81.793L-22.928,-81.814L-22.888,-81.829L-22.881,-81.829L-22.844,-81.842L-22.787,-81.863L-22.768,-81.869L-22.725,-81.876L-22.693,-81.884L-22.679,-81.886L-22.635,-81.905L-22.603,-81.915L-22.591,-81.916L-22.545,-81.926L-22.514,-81.938L-22.504,-81.939L-22.464,-81.955L-22.422,-81.966L-22.411,-81.972L-22.386,-81.978L-22.345,-81.99L-22.326,-81.999L-22.299,-82.006L-22.255,-82.018L-22.223,-82.028L-22.219,-82.032L-22.172,-82.04L-22.129,-82.051L-22.166,-82.009L-22.2,-81.964L-22.2,-81.955L-22.223,-81.915L-22.259,-81.869L-22.259,-81.863L-22.288,-81.829L-22.326,-81.774L-22.334,-81.758L-22.354,-81.728L-22.386,-81.688L-22.403,-81.671L-22.422,-81.64L-22.453,-81.592L-22.464,-81.573L-22.479,-81.554L-22.514,-81.51L-22.53,-81.479L-22.545,-81.466L-22.58,-81.415L-22.603,-81.387L-22.603,-81.374L-22.645,-81.335L-22.671,-81.297L-22.671,-81.291L-22.706,-81.242L-22.768,-81.163L-22.802,-81.119L-22.802,-81.117L-22.829,-81.08L-22.863,-81.029L-22.898,-80.992L-22.928,-80.952L-22.932,-80.94L-22.963,-80.912L-22.99,-80.872L-23.011,-80.854L-23.025,-80.831L-23.051,-80.792L-23.073,-80.775L-23.093,-80.743L-23.112,-80.708L-23.134,-80.685L-23.15,-80.67L-23.191,-80.635L-23.208,-80.603L-23.212,-80.597L-23.252,-80.555L-23.274,-80.524L-23.285,-80.511L-23.312,-80.474L-23.346,-80.443L-23.346,-80.44L-23.409,-80.363L-23.409,-80.361L-23.444,-80.328L-23.477,-80.287L-23.506,-80.258L-23.571,-80.183L-23.604,-80.148L-23.615,-80.137L-23.672,-80.081L-23.676,-80.058L-23.698,-80.039L-23.73,-80.002L-23.746,-79.987L-23.767,-79.976L-23.795,-79.943L-23.815,-79.918L-23.832,-79.911L-23.857,-79.87L-23.889,-79.851L-23.893,-79.839L-23.934,-79.805L-24.026,-79.709L-24.053,-79.682L-24.095,-79.645L-24.122,-79.617L-24.159,-79.584L-24.159,-79.582L-24.196,-79.561C-24.963,-78.852 -25.744,-78.418 -26.561,-78.363L-26.515,-78.294ZM-9.871,-94.214L-9.963,-94.214L-9.963,-94.17L-10.046,-94.17L-10.046,-94.12L-10.136,-94.12L-10.136,-94.076L-10.271,-94.076L-10.271,-94.03L-10.397,-94.03L-10.397,-93.978L-10.483,-93.978L-10.483,-93.934L-10.565,-93.934L-10.565,-93.886L-10.613,-93.886L-10.613,-93.831L-10.7,-93.831L-10.7,-93.786L-10.737,-93.786L-10.737,-93.74L-10.784,-93.74L-10.784,-93.696L-10.827,-93.696L-10.827,-93.648L-10.875,-93.648L-10.875,-93.6L-10.907,-93.6L-10.907,-93.548L-10.953,-93.548L-10.953,-93.5L-10.997,-93.5L-10.997,-93.455L-11.051,-93.455L-11.051,-93.412L-11.133,-93.412L-11.133,-93.363L-11.214,-93.363L-11.214,-93.313L-11.304,-93.313L-11.304,-93.267L-11.435,-93.267L-11.435,-93.219L-11.517,-93.219L-11.517,-93.167L-11.605,-93.167L-11.605,-93.121L-11.697,-93.121L-11.697,-93.077L-11.741,-93.077L-11.741,-93.029L-11.782,-93.029L-11.782,-92.935L-11.818,-92.935L-11.818,-92.833L-11.862,-92.833L-11.862,-92.697L-11.912,-92.697L-11.912,-92.492L-12.067,-92.436L-12.103,-92.419L-12.146,-92.409L-12.177,-92.398L-12.215,-92.376L-12.261,-92.365L-12.303,-92.352L-12.338,-92.334L-12.382,-92.319L-12.418,-92.308L-12.464,-92.292L-12.505,-92.285L-12.542,-92.273L-12.583,-92.254L-12.66,-92.23L-12.71,-92.216L-12.75,-92.2L-12.791,-92.191L-12.836,-92.181L-12.881,-92.162L-12.963,-92.137L-13.003,-92.127L-13.052,-92.114L-13.09,-92.102L-13.17,-92.082L-13.216,-92.068L-13.26,-92.059L-13.264,-92.059L-13.305,-92.051L-13.35,-92.036L-13.397,-92.024L-13.436,-92.014L-13.481,-92.006L-13.527,-91.991L-13.575,-91.979L-13.608,-91.97L-13.615,-91.97L-13.669,-91.962L-13.701,-91.951L-13.75,-91.943L-13.795,-91.934L-13.846,-91.924L-13.893,-91.91L-13.933,-91.905L-13.955,-91.899L-13.987,-91.893L-14.029,-91.89L-14.073,-91.88L-14.171,-91.857L-14.217,-91.853L-14.265,-91.844L-14.313,-91.84L-14.317,-91.834L-14.359,-91.832L-14.409,-91.82L-14.45,-91.809L-14.498,-91.801L-14.597,-91.786L-14.655,-91.78L-14.699,-91.776C-16.887,-91.243 -18.126,-90.551 -18.408,-89.692C-19.044,-90.568 -19.706,-91.33 -20.504,-91.222C-21.858,-91.27 -22.566,-89.891 -22.518,-87.773C-22.497,-86.622 -22.833,-86.4 -23.073,-85.585C-23.492,-86.669 -23.906,-88.242 -24.739,-88.829L-24.781,-88.855L-24.781,-88.859L-24.808,-88.876L-24.826,-88.888L-24.842,-88.896L-24.869,-88.911L-24.874,-88.921L-24.908,-88.932L-24.946,-88.954L-24.946,-88.957L-24.98,-88.974L-24.992,-88.976L-25.021,-88.992L-25.042,-88.994L-25.053,-89.005L-25.086,-89.011L-25.09,-89.011L-25.123,-89.032L-25.126,-89.032L-25.165,-89.045L-25.184,-89.045L-25.195,-89.059L-25.226,-89.07L-25.245,-89.07L-25.271,-89.084L-25.283,-89.084L-25.322,-89.099L-25.36,-89.105L-25.368,-89.105L-25.401,-89.115L-25.422,-89.116L-25.437,-89.118L-25.466,-89.124L-25.483,-89.124L-25.486,-89.133L-25.56,-89.147L-25.571,-89.147L-25.61,-89.149L-25.625,-89.151L-25.65,-89.155L-25.675,-89.158L-25.683,-89.158L-25.729,-89.168L-25.776,-89.17L-25.786,-89.172L-25.863,-89.172L-25.886,-89.174L-25.903,-89.184L-25.997,-89.184L-26.039,-89.185L-26.078,-89.185L-26.112,-89.193L-26.496,-89.193L-26.532,-89.185L-26.615,-89.185L-26.626,-89.184L-26.781,-89.184L-26.814,-89.174L-26.833,-89.174L-26.86,-89.172L-26.905,-89.172L-26.991,-89.17L-27.014,-89.17L-27.034,-89.168L-27.121,-89.168L-27.132,-89.158L-27.24,-89.158L-27.271,-89.155L-27.292,-89.155L-27.316,-89.151L-27.346,-89.151L-27.359,-89.149L-27.447,-89.149C-27.673,-89.139 -27.884,-89.133 -28.097,-89.147C-33.803,-88.29 -36.083,-91.277 -39.756,-96.685C-41.319,-105.462 -34.72,-110.063 -28.264,-107.363L-28.21,-107.351L-28.18,-107.332L-27.865,-107.188L-27.538,-107.039L-27.5,-107.018L-27.462,-106.998L-27.148,-106.841L-27.148,-106.833L-27.136,-106.828L-26.826,-106.65L-26.803,-106.632C-26.577,-106.498 -26.348,-106.347 -26.112,-106.197L-26.112,-106.189C-25.763,-105.944 -25.422,-105.688 -25.086,-105.403L-25.708,-105.403L-25.708,-105.359L-26.695,-105.359L-26.695,-105.403L-27.787,-105.403L-27.787,-105.359L-28.268,-105.359L-28.268,-105.305L-28.737,-105.305L-28.737,-105.257L-28.828,-105.257L-28.828,-105.211L-28.87,-105.211L-28.87,-105.167L-28.908,-105.167L-28.908,-105.111L-28.955,-105.111L-28.955,-105.065L-29,-105.065L-29,-104.972L-29.045,-104.972L-29.045,-104.922L-29.084,-104.922L-29.084,-104.875L-29.131,-104.875L-29.131,-104.831L-29.171,-104.831L-29.171,-104.78L-29.208,-104.78L-29.208,-104.738L-29.257,-104.738L-29.257,-104.689L-29.302,-104.689L-29.302,-104.645L-29.346,-104.645L-29.346,-104.592L-29.434,-104.592L-29.434,-104.546L-29.518,-104.546L-29.518,-104.592L-29.691,-104.592L-29.691,-104.645L-29.818,-104.645L-29.818,-104.689L-29.955,-104.689L-29.955,-104.738L-30.123,-104.738L-30.123,-104.78L-30.339,-104.78L-30.339,-104.738L-30.469,-104.738L-30.469,-104.689L-30.516,-104.689L-30.516,-104.645L-30.556,-104.645L-30.556,-104.592L-30.516,-104.592L-30.516,-104.45L-30.469,-104.45L-30.469,-104.356L-30.516,-104.356L-30.516,-104.262L-30.556,-104.262L-30.556,-104.212L-30.863,-104.212L-30.863,-104.262L-30.949,-104.262L-30.949,-104.31L-30.993,-104.31L-30.993,-104.45L-31.033,-104.45L-31.033,-104.546L-31.083,-104.546L-31.083,-104.592L-31.164,-104.592L-31.164,-104.645L-31.344,-104.645L-31.344,-104.592L-31.425,-104.592L-31.425,-104.546L-31.47,-104.546L-31.47,-104.5L-31.513,-104.5L-31.513,-104.45L-31.557,-104.45L-31.557,-104.4L-31.647,-104.4L-31.647,-104.356L-31.684,-104.356L-31.684,-104.31L-31.818,-104.31L-31.818,-104.262L-32.207,-104.262L-32.207,-104.212L-32.638,-104.212L-32.638,-104.164L-32.99,-104.164L-32.99,-104.212L-33.335,-104.212L-33.335,-104.262L-33.726,-104.262L-33.726,-104.31L-34.283,-104.31L-34.283,-104.262L-34.501,-104.262L-34.501,-104.212L-34.678,-104.212L-34.678,-104.164L-34.804,-104.164L-34.804,-104.116L-34.891,-104.116L-34.891,-104.07L-34.98,-104.07L-34.98,-104.022L-35.064,-104.022L-35.064,-103.974L-35.111,-103.974L-35.111,-103.926L-35.199,-103.926L-35.199,-103.88L-35.287,-103.88L-35.287,-103.832L-35.375,-103.832L-35.375,-103.788L-35.462,-103.788L-35.462,-103.734L-35.498,-103.734L-35.498,-103.692L-35.544,-103.692L-35.544,-103.644L-35.584,-103.644L-35.584,-103.598L-35.632,-103.598L-35.632,-103.54L-35.674,-103.54L-35.674,-103.493L-35.715,-103.493L-35.715,-103.456L-35.763,-103.456L-35.763,-103.406L-35.809,-103.406L-35.809,-103.361L-35.851,-103.361L-35.851,-103.309L-35.896,-103.309L-35.896,-102.975L-35.851,-102.975L-35.851,-102.929L-35.674,-102.929L-35.674,-102.879L-35.632,-102.879L-35.632,-102.929L-35.462,-102.929L-35.462,-102.975L-35.375,-102.975L-35.375,-103.019L-35.326,-103.019L-35.326,-103.071L-35.237,-103.071L-35.237,-103.117L-35.111,-103.117L-35.111,-103.163L-34.98,-103.163L-34.98,-103.205L-34.804,-103.205L-34.804,-103.265L-34.424,-103.265L-34.424,-103.205L-34.283,-103.205L-34.283,-103.163L-34.244,-103.163L-34.244,-103.117L-34.156,-103.117L-34.156,-103.071L-34.114,-103.071L-34.114,-102.975L-34.077,-102.975L-34.077,-102.829L-34.025,-102.829L-34.025,-102.261L-33.983,-102.261L-33.983,-102.02L-33.937,-102.02L-33.937,-101.548L-33.983,-101.548L-33.983,-101.452L-34.025,-101.452L-34.025,-101.356L-34.077,-101.356L-34.077,-101.258L-34.114,-101.258L-34.114,-101.168L-34.156,-101.168L-34.156,-101.119L-34.204,-101.119L-34.204,-101.026L-34.244,-101.026L-34.244,-100.925L-34.283,-100.925L-34.283,-100.74L-34.334,-100.74L-34.334,-100.451L-34.283,-100.451L-34.283,-100.261L-34.244,-100.261L-34.244,-100.167L-34.204,-100.167L-34.204,-100.071L-34.156,-100.071L-34.156,-100.023L-34.114,-100.023L-34.114,-99.931L-34.077,-99.931L-34.077,-99.784L-34.025,-99.784L-34.025,-99.592L-33.983,-99.592L-33.983,-99.406L-33.937,-99.406L-33.937,-99.258L-33.896,-99.258L-33.896,-99.164L-33.853,-99.164L-33.853,-99.122L-33.815,-99.122L-33.815,-99.072L-33.763,-99.072L-33.763,-99.02L-33.726,-99.02L-33.726,-98.98L-33.64,-98.98L-33.64,-98.928L-33.546,-98.928L-33.546,-98.876L-33.509,-98.876L-33.509,-98.832L-33.416,-98.832L-33.416,-98.786L-33.379,-98.786L-33.379,-98.69L-33.335,-98.69L-33.335,-98.646L-33.296,-98.646L-33.296,-98.549L-33.247,-98.549L-33.247,-98.408L-33.208,-98.408L-33.208,-98.307L-33.163,-98.307L-33.163,-98.265L-33.116,-98.265L-33.116,-98.216L-33.072,-98.216L-33.072,-98.165L-33.036,-98.165L-33.036,-98.123L-32.99,-98.123L-32.99,-98.073L-32.901,-98.073L-32.901,-98.017L-32.81,-98.017L-32.81,-97.978L-32.729,-97.978L-32.729,-97.931L-32.595,-97.931L-32.595,-97.877L-32.378,-97.877L-32.378,-97.831L-32.248,-97.831L-32.248,-97.787L-32.161,-97.787L-32.161,-97.745L-32.071,-97.745L-32.071,-97.689L-31.985,-97.689L-31.985,-97.639L-31.944,-97.639L-31.944,-97.597L-31.862,-97.597L-31.862,-97.549L-31.774,-97.549L-31.774,-97.501L-31.684,-97.501L-31.684,-97.451L-31.647,-97.451L-31.647,-97.407L-31.557,-97.407L-31.557,-97.357L-31.513,-97.357L-31.513,-97.308L-31.47,-97.308L-31.47,-97.262L-31.344,-97.262L-31.344,-97.308L-31.304,-97.308L-31.304,-97.597L-31.344,-97.597L-31.344,-97.689L-31.381,-97.689L-31.381,-97.745L-31.425,-97.745L-31.425,-97.787L-31.47,-97.787L-31.47,-97.831L-31.513,-97.831L-31.513,-97.877L-31.557,-97.877L-31.557,-97.978L-31.597,-97.978L-31.597,-98.123L-31.647,-98.123L-31.647,-98.216L-31.684,-98.216L-31.684,-98.265L-31.818,-98.265L-31.818,-98.216L-31.908,-98.216L-31.908,-98.165L-32.035,-98.165L-32.035,-98.123L-32.248,-98.123L-32.248,-98.165L-32.338,-98.165L-32.338,-98.216L-32.378,-98.216L-32.378,-98.265L-32.426,-98.265L-32.426,-98.357L-32.468,-98.357L-32.468,-98.453L-32.504,-98.453L-32.504,-98.832L-32.468,-98.832L-32.468,-99.02L-32.426,-99.02L-32.426,-99.122L-32.378,-99.122L-32.378,-99.212L-32.338,-99.212L-32.338,-99.258L-32.292,-99.258L-32.292,-99.31L-32.248,-99.31L-32.248,-99.36L-32.207,-99.36L-32.207,-99.406L-32.161,-99.406L-32.161,-99.457L-32.071,-99.457L-32.071,-99.504L-31.774,-99.504L-31.774,-99.547L-31.425,-99.547L-31.425,-99.592L-31.209,-99.592L-31.209,-99.547L-31.083,-99.547L-31.083,-99.504L-30.993,-99.504L-30.993,-99.457L-30.818,-99.457L-30.818,-99.504L-30.78,-99.504L-30.78,-99.592L-30.734,-99.592L-30.734,-99.693L-30.692,-99.693L-30.692,-99.784L-30.639,-99.784L-30.639,-99.833L-30.6,-99.833L-30.6,-99.883L-30.556,-99.883L-30.556,-99.931L-30.516,-99.931L-30.516,-99.977L-30.469,-99.977L-30.469,-100.023L-30.433,-100.023L-30.433,-100.071L-30.339,-100.071L-30.339,-100.115L-30.293,-100.115L-30.293,-100.167L-30.263,-100.167L-30.263,-100.215L-30.213,-100.215L-30.213,-100.261L-30.172,-100.261L-30.172,-100.313L-30.123,-100.313L-30.123,-100.357L-30.082,-100.357L-30.082,-100.403L-30.037,-100.403L-30.037,-100.505L-29.992,-100.505L-29.992,-100.552L-29.955,-100.552L-29.955,-100.637L-29.909,-100.637L-29.909,-100.687L-29.87,-100.687L-29.87,-100.74L-29.818,-100.74L-29.818,-100.787L-29.779,-100.787L-29.779,-100.834L-29.731,-100.834L-29.731,-100.884L-29.691,-100.884L-29.691,-100.925L-29.648,-100.925L-29.648,-100.975L-29.568,-100.975L-29.568,-101.026L-29.468,-101.026L-29.468,-101.068L-29.434,-101.068L-29.434,-101.119L-29.384,-101.119L-29.384,-101.168L-29.302,-101.168L-29.302,-101.21L-29.257,-101.21L-29.257,-101.258L-29.171,-101.258L-29.171,-101.309L-29,-101.309L-29,-101.356L-28.737,-101.356L-28.737,-101.407L-28.607,-101.407L-28.607,-101.452L-28.521,-101.452L-28.521,-101.498L-28.436,-101.498L-28.436,-101.548L-28.346,-101.548L-28.346,-101.594L-28.268,-101.594L-28.268,-101.644L-28.176,-101.644L-28.176,-101.692L-27.917,-101.692L-27.917,-101.74L-27.823,-101.74L-27.823,-101.784L-27.787,-101.784L-27.787,-101.88L-27.742,-101.88L-27.742,-102.066L-27.787,-102.066L-27.787,-102.349L-27.823,-102.349L-27.823,-102.501L-27.869,-102.501L-27.869,-102.545L-27.917,-102.545L-27.917,-102.639L-27.961,-102.639L-27.961,-102.737L-27.999,-102.737L-27.999,-102.829L-28.04,-102.829L-28.04,-102.929L-28.084,-102.929L-28.084,-102.975L-28.129,-102.975L-28.129,-103.071L-28.176,-103.071L-28.176,-103.117L-28.214,-103.117L-28.214,-103.205L-28.268,-103.205L-28.268,-103.265L-28.214,-103.265L-28.214,-103.361L-28.176,-103.361L-28.176,-103.456L-28.129,-103.456L-28.129,-103.493L-28.084,-103.493L-28.084,-103.54L-27.999,-103.54L-27.999,-103.598L-27.961,-103.598L-27.961,-103.644L-27.917,-103.644L-27.917,-103.692L-27.869,-103.692L-27.869,-103.734L-27.823,-103.734L-27.823,-103.832L-27.787,-103.832L-27.787,-104.116L-27.823,-104.116L-27.823,-104.164L-27.869,-104.164L-27.869,-104.212L-27.917,-104.212L-27.917,-104.262L-27.961,-104.262L-27.961,-104.31L-27.999,-104.31L-27.999,-104.356L-28.04,-104.356L-28.04,-104.4L-28.084,-104.4L-28.084,-104.45L-28.129,-104.45L-28.129,-104.5L-28.176,-104.5L-28.176,-104.546L-28.214,-104.546L-28.214,-104.831L-28.176,-104.831L-28.176,-104.875L-28.129,-104.875L-28.129,-104.922L-28.084,-104.922L-28.084,-104.972L-28.04,-104.972L-28.04,-105.023L-27.917,-105.023L-27.917,-105.065L-27.656,-105.065L-27.656,-105.023L-27.52,-105.023L-27.52,-104.972L-27.443,-104.972L-27.443,-104.922L-27.259,-104.922L-27.259,-104.875L-27.049,-104.875L-27.049,-104.831L-26.956,-104.831L-26.956,-104.78L-26.912,-104.78L-26.912,-104.738L-26.876,-104.738L-26.876,-104.689L-26.833,-104.689L-26.833,-104.592L-26.785,-104.592L-26.785,-104.164L-26.833,-104.164L-26.833,-103.644L-26.785,-103.644L-26.785,-103.493L-26.741,-103.493L-26.741,-103.456L-26.695,-103.456L-26.695,-103.406L-26.65,-103.406L-26.65,-103.361L-26.615,-103.361L-26.615,-103.309L-26.348,-103.309L-26.348,-103.361L-26.304,-103.361L-26.304,-103.406L-26.227,-103.406L-26.227,-103.456L-26.174,-103.456L-26.174,-103.493L-26.127,-103.493L-26.127,-103.54L-26.091,-103.54L-26.091,-103.598L-26.046,-103.598L-26.046,-103.644L-26.009,-103.644L-26.009,-103.692L-25.96,-103.692L-25.96,-103.734L-25.87,-103.734L-25.87,-103.788L-25.786,-103.788L-25.786,-103.832L-25.708,-103.832L-25.708,-103.88L-25.571,-103.88L-25.571,-103.926L-25.483,-103.926L-25.483,-103.974L-25.357,-103.974L-25.357,-104.022L-25.226,-104.022L-25.226,-104.07L-25.053,-104.07L-25.053,-104.116L-24.792,-104.116L-24.792,-104.164L-24.699,-104.164L-24.699,-104.212L-24.658,-104.212L-24.658,-104.262L-24.62,-104.262L-24.62,-104.31L-24.576,-104.31L-24.576,-104.356L-24.532,-104.356L-24.532,-104.4L-24.485,-104.4L-24.485,-104.5L-24.444,-104.5L-24.444,-104.546L-24.396,-104.546L-24.396,-104.592L-24.355,-104.592L-24.355,-104.689L-24.317,-104.689L-24.317,-104.708L-24.279,-104.67L-24.265,-104.659L-24.256,-104.647L-24.241,-104.636L-24.229,-104.617L-24.217,-104.609L-24.213,-104.603L-24.204,-104.601L-24.196,-104.584L-24.178,-104.576L-24.171,-104.559L-24.159,-104.547L-24.143,-104.543L-24.135,-104.524L-24.125,-104.524L-24.117,-104.511L-24.11,-104.506L-24.095,-104.49L-24.081,-104.48L-24.069,-104.467L-24.056,-104.457L-24.056,-104.45L-24.049,-104.442L-24.037,-104.433L-24.026,-104.419L-24.016,-104.4L-23.995,-104.392L-23.987,-104.383L-23.979,-104.365L-23.958,-104.356L-23.951,-104.34L-23.941,-104.331L-23.934,-104.317L-23.915,-104.31L-23.911,-104.306L-23.903,-104.29L-23.893,-104.277L-23.876,-104.262L-23.873,-104.256L-23.857,-104.241L-23.845,-104.229L-23.838,-104.218L-23.832,-104.216L-23.815,-104.206L-23.811,-104.195L-23.791,-104.18L-23.787,-104.165L-23.78,-104.154L-23.767,-104.146L-23.763,-104.145L-23.746,-104.131L-23.733,-104.116L-23.723,-104.104L-23.711,-104.085L-23.698,-104.078L-23.693,-104.064L-23.693,-104.059L-23.676,-104.051L-23.672,-104.037L-23.657,-104.024L-23.64,-104.012L-23.636,-103.998L-23.615,-103.986L-23.607,-103.974L-23.601,-103.961L-23.579,-103.947L-23.571,-103.93L-23.554,-103.916L-23.55,-103.903C-19.322,-108.662 -13.792,-109.695 -9.612,-105.502L-9.496,-105.34L-9.424,-105.236L-9.384,-105.178L-9.265,-105.011L-9.243,-104.972L-9.077,-104.728L-9.066,-104.712L-9.045,-104.68L-8.943,-104.511L-8.897,-104.442L-8.836,-104.348L-8.734,-104.173L-8.648,-104.007L-8.583,-103.903L-8.556,-103.836L-8.456,-103.675L-8.444,-103.636L-8.318,-103.383L-8.307,-103.364L-8.303,-103.335L-8.21,-103.163L-8.176,-103.096L-8.167,-103.08L-8.069,-102.845L-8.062,-102.826L-8.062,-102.822L-8.053,-102.798C-7.984,-102.639 -7.917,-102.469 -7.862,-102.313L-7.848,-102.279L-7.8,-102.141L-7.75,-101.999L-7.739,-101.968L-7.689,-101.795L-7.67,-101.728L-7.635,-101.624L-7.585,-101.458L-7.538,-101.283L-7.513,-101.18L-7.501,-101.117L-7.455,-100.944L-7.455,-100.906L-7.424,-100.775L-7.394,-100.631L-7.389,-100.601L-7.366,-100.436L-7.35,-100.371L-7.342,-100.263L-7.325,-100.098L-7.325,-100.092L-7.305,-99.931L-7.284,-99.83L-7.284,-99.757L-7.271,-99.592L-7.263,-99.555L-7.263,-99.425L-7.26,-99.292L-7.26,-99.258L-7.256,-99.091L-7.256,-99.02L-7.26,-99.003L-7.263,-98.782L-7.263,-98.763L-7.271,-98.606L-7.284,-98.502L-7.284,-98.443L-7.305,-98.282L-7.305,-98.242L-7.313,-98.216L-7.342,-97.984L-7.342,-97.963L-7.366,-97.804L-7.378,-97.733L-7.389,-97.718L-7.411,-97.561L-7.429,-97.485L-7.429,-97.484L-7.468,-97.329L-7.49,-97.234L-7.505,-97.181L-7.551,-97.025L-7.558,-96.991L-7.585,-96.876L-7.635,-96.751L-7.64,-96.728L-7.693,-96.581L-7.712,-96.516L-7.75,-96.427L-7.811,-96.279L-7.811,-96.277L-7.913,-96.061L-7.917,-96.049L-7.946,-95.994L-8.015,-95.85L-8.036,-95.821L-8.142,-95.614L-8.155,-95.593L-8.167,-95.572L-8.252,-95.436L-8.289,-95.378L-8.333,-95.307L-8.433,-95.173L-8.444,-95.173L-8.444,-95.215L-8.485,-95.215L-8.485,-95.265L-8.534,-95.265L-8.534,-95.313L-8.613,-95.313L-8.613,-95.361L-8.655,-95.361L-8.655,-95.409L-8.744,-95.409L-8.744,-95.455L-8.836,-95.455L-8.836,-95.501L-8.962,-95.501L-8.962,-95.552L-9.446,-95.552L-9.446,-95.409L-9.396,-95.409L-9.396,-95.361L-9.355,-95.361L-9.355,-95.313L-9.315,-95.313L-9.315,-95.265L-9.265,-95.265L-9.265,-95.173L-9.22,-95.173L-9.22,-95.125L-9.185,-95.125L-9.185,-95.029L-9.139,-95.029L-9.139,-94.972L-9.089,-94.972L-9.089,-94.927L-9.009,-94.927L-9.009,-94.881L-8.918,-94.881L-8.918,-94.833L-8.702,-94.833L-8.702,-94.881L-8.64,-94.881L-8.648,-94.866L-8.662,-94.856L-8.673,-94.835L-8.678,-94.826L-8.697,-94.812L-8.702,-94.793L-8.717,-94.78L-8.73,-94.759L-8.734,-94.749L-8.756,-94.732L-8.779,-94.701L-8.795,-94.696L-8.799,-94.678L-8.821,-94.663L-8.828,-94.651L-8.836,-94.636L-8.854,-94.619L-8.866,-94.607L-8.881,-94.59L-8.943,-94.519L-8.958,-94.501L-8.966,-94.486L-8.983,-94.473L-8.997,-94.463L-9.004,-94.452L-9.02,-94.429L-9.028,-94.415L-9.045,-94.404L-9.058,-94.387L-9.124,-94.317L-9.139,-94.306L-9.15,-94.293L-9.164,-94.283L-9.185,-94.262L-9.185,-94.252L-9.201,-94.231L-9.22,-94.222L-9.232,-94.208L-9.246,-94.193L-9.276,-94.17L-9.276,-94.168L-9.291,-94.158L-9.302,-94.139L-9.319,-94.125L-9.335,-94.109L-9.346,-94.104L-9.359,-94.082L-9.373,-94.066L-9.417,-94.03L-9.438,-94.015L-9.449,-94.005L-9.461,-93.996L-9.479,-93.982L-9.479,-93.978L-9.479,-94.076L-9.526,-94.076L-9.526,-94.17L-9.573,-94.17L-9.573,-94.214L-9.66,-94.214L-9.66,-94.27L-9.871,-94.27L-9.871,-94.214ZM-12.994,-96.504L-13.076,-96.504L-13.076,-96.41L-13.126,-96.41L-13.126,-96.166L-13.076,-96.166L-13.076,-96.07L-13.04,-96.07L-13.04,-95.986L-12.994,-95.986L-12.994,-95.883L-12.95,-95.883L-12.95,-95.836L-12.909,-95.836L-12.909,-95.737L-12.867,-95.737L-12.867,-95.693L-12.823,-95.693L-12.823,-95.593L-12.78,-95.593L-12.78,-95.552L-12.733,-95.552L-12.733,-95.501L-12.693,-95.501L-12.693,-95.455L-12.652,-95.455L-12.652,-95.409L-12.522,-95.409L-12.522,-95.552L-12.563,-95.552L-12.563,-95.693L-12.603,-95.693L-12.603,-95.932L-12.652,-95.932L-12.652,-96.218L-12.693,-96.218L-12.693,-96.358L-12.733,-96.358L-12.733,-96.41L-12.78,-96.41L-12.78,-96.458L-12.823,-96.458L-12.823,-96.504L-12.867,-96.504L-12.867,-96.552L-12.994,-96.552L-12.994,-96.504ZM-18.162,-94.076L-18.285,-94.076L-18.285,-94.03L-18.33,-94.03L-18.33,-93.978L-18.419,-93.978L-18.419,-93.934L-18.464,-93.934L-18.464,-93.831L-18.51,-93.831L-18.51,-93.786L-18.542,-93.786L-18.542,-93.648L-18.586,-93.648L-18.586,-93.412L-18.636,-93.412L-18.636,-93.167L-18.678,-93.167L-18.678,-93.077L-18.636,-93.077L-18.636,-92.935L-18.586,-92.935L-18.586,-92.885L-18.419,-92.885L-18.419,-92.935L-18.372,-92.935L-18.372,-92.977L-18.33,-92.977L-18.33,-93.077L-18.285,-93.077L-18.285,-93.121L-18.241,-93.121L-18.241,-93.267L-18.199,-93.267L-18.199,-93.363L-18.162,-93.363L-18.162,-93.5L-18.115,-93.5L-18.115,-93.6L-18.072,-93.6L-18.072,-93.74L-18.022,-93.74L-18.022,-94.076L-18.115,-94.076L-18.115,-94.12L-18.162,-94.12L-18.162,-94.076ZM-19.106,-98.216L-19.024,-98.216L-19.024,-98.165L-18.939,-98.165L-18.939,-98.073L-18.889,-98.073L-18.889,-98.017L-18.849,-98.017L-18.849,-97.831L-18.889,-97.831L-18.889,-97.787L-18.939,-97.787L-18.939,-97.831L-19.024,-97.831L-19.024,-97.877L-19.066,-97.877L-19.066,-97.978L-19.106,-97.978L-19.106,-98.216ZM-30.213,-97.165L-30.293,-97.165L-30.293,-97.122L-30.385,-97.122L-30.385,-97.078L-30.469,-97.078L-30.469,-97.025L-30.516,-97.025L-30.516,-96.978L-30.6,-96.978L-30.6,-96.93L-30.639,-96.93L-30.639,-96.884L-30.692,-96.884L-30.692,-96.833L-30.734,-96.833L-30.734,-96.696L-30.692,-96.696L-30.692,-96.218L-30.734,-96.218L-30.734,-96.117L-30.78,-96.117L-30.78,-96.026L-30.818,-96.026L-30.818,-95.986L-30.863,-95.986L-30.863,-95.883L-30.903,-95.883L-30.903,-95.737L-30.949,-95.737L-30.949,-95.409L-30.993,-95.409L-30.993,-95.313L-30.949,-95.313L-30.949,-95.125L-30.903,-95.125L-30.903,-94.972L-30.863,-94.972L-30.863,-94.927L-30.818,-94.927L-30.818,-94.833L-30.78,-94.833L-30.78,-94.74L-30.734,-94.74L-30.734,-94.651L-30.692,-94.651L-30.692,-94.602L-30.639,-94.602L-30.639,-94.501L-30.6,-94.501L-30.6,-94.404L-30.556,-94.404L-30.556,-94.314L-30.516,-94.314L-30.516,-94.214L-30.469,-94.214L-30.469,-94.17L-30.433,-94.17L-30.433,-94.076L-30.385,-94.076L-30.385,-94.03L-30.339,-94.03L-30.339,-93.978L-30.293,-93.978L-30.293,-93.934L-30.263,-93.934L-30.263,-93.886L-30.172,-93.886L-30.172,-93.831L-30.123,-93.831L-30.123,-93.786L-30.082,-93.786L-30.082,-93.74L-29.992,-93.74L-29.992,-93.648L-29.955,-93.648L-29.955,-93.6L-29.909,-93.6L-29.909,-93.548L-29.87,-93.548L-29.87,-93.412L-29.818,-93.412L-29.818,-93.121L-29.779,-93.121L-29.779,-92.026L-29.731,-92.026L-29.731,-91.079L-29.691,-91.079L-29.691,-90.794L-29.648,-90.794L-29.648,-90.503L-29.608,-90.503L-29.608,-90.221L-29.568,-90.221L-29.568,-89.981L-29.518,-89.981L-29.518,-89.841L-29.468,-89.841L-29.468,-89.744L-29.434,-89.744L-29.434,-89.649L-29.384,-89.649L-29.384,-89.554L-29.346,-89.554L-29.346,-89.508L-29.302,-89.508L-29.302,-89.41L-29.257,-89.41L-29.257,-89.362L-29.208,-89.362L-29.208,-89.319L-29.131,-89.319L-29.131,-89.271L-29.084,-89.271L-29.084,-89.222L-28.955,-89.222L-28.955,-89.172L-28.908,-89.172L-28.908,-89.222L-28.828,-89.222L-28.828,-89.41L-28.87,-89.41L-28.87,-90.409L-28.828,-90.409L-28.828,-90.551L-28.782,-90.551L-28.782,-90.693L-28.737,-90.693L-28.737,-90.794L-28.697,-90.794L-28.697,-90.888L-28.644,-90.888L-28.644,-90.929L-28.607,-90.929L-28.607,-90.984L-28.567,-90.984L-28.567,-91.032L-28.521,-91.032L-28.521,-91.079L-28.481,-91.079L-28.481,-91.124L-28.436,-91.124L-28.436,-91.174L-28.387,-91.174L-28.387,-91.222L-28.346,-91.222L-28.346,-91.314L-28.296,-91.314L-28.296,-91.366L-28.268,-91.366L-28.268,-91.454L-28.214,-91.454L-28.214,-91.506L-28.176,-91.506L-28.176,-91.602L-28.129,-91.602L-28.129,-91.648L-28.084,-91.648L-28.084,-91.696L-28.04,-91.696L-28.04,-91.742L-27.999,-91.742L-27.999,-91.788L-27.961,-91.788L-27.961,-91.89L-27.917,-91.89L-27.917,-91.934L-27.869,-91.934L-27.869,-92.026L-27.823,-92.026L-27.823,-92.124L-27.787,-92.124L-27.787,-92.273L-27.742,-92.273L-27.742,-92.411L-27.696,-92.411L-27.696,-92.545L-27.656,-92.545L-27.656,-92.645L-27.606,-92.645L-27.606,-92.747L-27.566,-92.747L-27.566,-92.791L-27.52,-92.791L-27.52,-92.833L-27.476,-92.833L-27.476,-92.885L-27.443,-92.885L-27.443,-92.935L-27.354,-92.935L-27.354,-92.977L-27.259,-92.977L-27.259,-93.029L-27.215,-93.029L-27.215,-93.077L-27.132,-93.077L-27.132,-93.121L-27.092,-93.121L-27.092,-93.167L-27.049,-93.167L-27.049,-93.219L-27.006,-93.219L-27.006,-93.313L-26.956,-93.313L-26.956,-93.412L-26.912,-93.412L-26.912,-93.548L-26.876,-93.548L-26.876,-93.934L-26.833,-93.934L-26.833,-94.17L-26.785,-94.17L-26.785,-94.27L-26.741,-94.27L-26.741,-94.36L-26.695,-94.36L-26.695,-94.452L-26.65,-94.452L-26.65,-94.552L-26.615,-94.552L-26.615,-94.651L-26.577,-94.651L-26.577,-94.74L-26.528,-94.74L-26.528,-95.029L-26.577,-95.029L-26.577,-95.073L-26.615,-95.073L-26.615,-95.173L-26.695,-95.173L-26.695,-95.215L-26.741,-95.215L-26.741,-95.265L-26.785,-95.265L-26.785,-95.313L-26.876,-95.313L-26.876,-95.361L-26.956,-95.361L-26.956,-95.409L-27.092,-95.409L-27.092,-95.455L-27.215,-95.455L-27.215,-95.501L-27.354,-95.501L-27.354,-95.552L-27.443,-95.552L-27.443,-95.593L-27.52,-95.593L-27.52,-95.646L-27.606,-95.646L-27.606,-95.693L-27.696,-95.693L-27.696,-95.737L-27.787,-95.737L-27.787,-95.783L-27.823,-95.783L-27.823,-95.836L-27.869,-95.836L-27.869,-95.883L-27.917,-95.883L-27.917,-95.932L-27.961,-95.932L-27.961,-95.986L-27.999,-95.986L-27.999,-96.07L-28.04,-96.07L-28.04,-96.166L-28.084,-96.166L-28.084,-96.218L-28.129,-96.218L-28.129,-96.309L-28.176,-96.309L-28.176,-96.358L-28.214,-96.358L-28.214,-96.41L-28.296,-96.41L-28.296,-96.458L-28.387,-96.458L-28.387,-96.504L-28.481,-96.504L-28.481,-96.552L-28.607,-96.552L-28.607,-96.596L-28.697,-96.596L-28.697,-96.642L-28.737,-96.642L-28.737,-96.696L-28.828,-96.696L-28.828,-96.738L-28.87,-96.738L-28.87,-96.788L-28.908,-96.788L-28.908,-96.833L-28.955,-96.833L-28.955,-96.884L-29,-96.884L-29,-96.978L-29.045,-96.978L-29.045,-97.025L-29.131,-97.025L-29.131,-97.078L-29.257,-97.078L-29.257,-97.122L-29.648,-97.122L-29.648,-97.165L-29.818,-97.165L-29.818,-97.217L-30.213,-97.217L-30.213,-97.165ZM-29.568,-102.975L-29.568,-102.879L-29.648,-102.879L-29.648,-102.829L-29.87,-102.829L-29.87,-102.879L-29.955,-102.879L-29.955,-102.929L-29.992,-102.929L-29.992,-102.975L-30.037,-102.975L-30.037,-103.019L-30.082,-103.019L-30.082,-103.163L-30.037,-103.163L-30.037,-103.205L-29.992,-103.205L-29.992,-103.265L-29.909,-103.265L-29.909,-103.309L-29.608,-103.309L-29.608,-103.265L-29.518,-103.265L-29.518,-103.205L-29.468,-103.205L-29.468,-103.071L-29.518,-103.071L-29.518,-102.975L-29.568,-102.975ZM-36.156,-99.547L-36.108,-99.547L-36.108,-99.457L-36.069,-99.457L-36.069,-99.406L-36.025,-99.406L-36.025,-99.31L-35.978,-99.31L-35.978,-99.258L-35.928,-99.258L-35.928,-99.212L-35.896,-99.212L-35.896,-99.164L-35.851,-99.164L-35.851,-99.122L-35.715,-99.122L-35.715,-99.072L-35.674,-99.072L-35.674,-99.122L-35.544,-99.122L-35.544,-99.164L-35.498,-99.164L-35.498,-99.457L-35.544,-99.457L-35.544,-99.547L-35.584,-99.547L-35.584,-99.592L-35.674,-99.592L-35.674,-99.644L-35.715,-99.644L-35.715,-99.693L-35.851,-99.693L-35.851,-99.734L-36.192,-99.734L-36.192,-99.592L-36.156,-99.592L-36.156,-99.547ZM-28.782,-104.164L-28.908,-104.164L-28.908,-104.116L-29,-104.116L-29,-104.07L-29.045,-104.07L-29.045,-104.022L-29.084,-104.022L-29.084,-103.974L-29.131,-103.974L-29.131,-103.926L-29.171,-103.926L-29.171,-103.832L-29.208,-103.832L-29.208,-103.788L-29.257,-103.788L-29.257,-103.734L-29.302,-103.734L-29.302,-103.692L-29.384,-103.692L-29.384,-103.644L-29.909,-103.644L-29.909,-103.598L-30.037,-103.598L-30.037,-103.54L-30.123,-103.54L-30.123,-103.493L-30.213,-103.493L-30.213,-103.456L-30.263,-103.456L-30.263,-103.406L-30.339,-103.406L-30.339,-103.361L-30.385,-103.361L-30.385,-103.309L-30.433,-103.309L-30.433,-103.205L-30.469,-103.205L-30.469,-102.975L-30.433,-102.975L-30.433,-102.879L-30.385,-102.879L-30.385,-102.829L-30.339,-102.829L-30.339,-102.787L-30.293,-102.787L-30.293,-102.737L-30.263,-102.737L-30.263,-102.687L-30.172,-102.687L-30.172,-102.639L-30.082,-102.639L-30.082,-102.597L-30.037,-102.597L-30.037,-102.545L-29.955,-102.545L-29.955,-102.501L-29.909,-102.501L-29.909,-102.449L-29.818,-102.449L-29.818,-102.401L-29.648,-102.401L-29.648,-102.449L-29.568,-102.449L-29.568,-102.501L-29.518,-102.501L-29.518,-102.545L-29.434,-102.545L-29.434,-102.597L-29.384,-102.597L-29.384,-102.639L-29.346,-102.639L-29.346,-102.687L-29.302,-102.687L-29.302,-102.787L-29.257,-102.787L-29.257,-102.879L-29.208,-102.879L-29.208,-102.975L-29.171,-102.975L-29.171,-103.071L-29.131,-103.071L-29.131,-103.205L-29.084,-103.205L-29.084,-103.309L-29.045,-103.309L-29.045,-103.406L-29,-103.406L-29,-103.493L-28.955,-103.493L-28.955,-103.54L-28.908,-103.54L-28.908,-103.598L-28.87,-103.598L-28.87,-103.644L-28.828,-103.644L-28.828,-103.692L-28.737,-103.692L-28.737,-103.734L-28.697,-103.734L-28.697,-103.788L-28.607,-103.788L-28.607,-103.832L-28.567,-103.832L-28.567,-103.88L-28.521,-103.88L-28.521,-104.116L-28.567,-104.116L-28.567,-104.164L-28.607,-104.164L-28.607,-104.212L-28.782,-104.212L-28.782,-104.164ZM-17.979,-99.164L-17.938,-99.164L-17.938,-99.212L-17.9,-99.212L-17.9,-99.164L-17.812,-99.164L-17.812,-99.122L-17.721,-99.122L-17.721,-98.98L-17.77,-98.98L-17.77,-98.928L-17.852,-98.928L-17.852,-98.98L-17.938,-98.98L-17.938,-99.02L-17.979,-99.02L-17.979,-99.164ZM-23.051,-100.599L-23.014,-100.599L-23.014,-100.74L-22.967,-100.74L-22.967,-100.834L-22.928,-100.834L-22.928,-100.925L-22.881,-100.925L-22.881,-100.975L-22.844,-100.975L-22.844,-101.026L-22.794,-101.026L-22.794,-101.068L-22.754,-101.068L-22.754,-101.119L-22.671,-101.119L-22.671,-101.168L-22.583,-101.168L-22.583,-101.21L-22.453,-101.21L-22.453,-101.258L-22.23,-101.258L-22.23,-101.21L-22.146,-101.21L-22.146,-101.168L-22.104,-101.168L-22.104,-101.119L-22.06,-101.119L-22.06,-101.026L-22.012,-101.026L-22.012,-100.884L-21.97,-100.884L-21.97,-100.787L-21.933,-100.787L-21.933,-100.74L-21.843,-100.74L-21.843,-100.687L-21.452,-100.687L-21.452,-100.74L-21.103,-100.74L-21.103,-100.687L-21.018,-100.687L-21.018,-100.637L-20.969,-100.637L-20.969,-100.599L-20.888,-100.599L-20.888,-100.552L-20.802,-100.552L-20.802,-100.505L-20.669,-100.505L-20.669,-100.451L-20.278,-100.451L-20.278,-100.403L-20.067,-100.403L-20.067,-100.357L-19.971,-100.357L-19.971,-100.313L-19.894,-100.313L-19.894,-100.261L-19.804,-100.261L-19.804,-100.215L-19.76,-100.215L-19.76,-100.167L-19.718,-100.167L-19.718,-100.115L-19.674,-100.115L-19.674,-99.833L-19.718,-99.833L-19.718,-99.784L-19.76,-99.784L-19.76,-99.734L-19.849,-99.734L-19.849,-99.693L-19.971,-99.693L-19.971,-99.644L-20.324,-99.644L-20.324,-99.693L-20.535,-99.693L-20.535,-99.734L-20.711,-99.734L-20.711,-99.784L-20.888,-99.784L-20.888,-99.734L-21.018,-99.734L-21.018,-99.693L-21.148,-99.693L-21.148,-99.644L-21.321,-99.644L-21.321,-99.693L-21.496,-99.693L-21.496,-99.734L-21.578,-99.734L-21.578,-99.784L-21.666,-99.784L-21.666,-99.833L-21.756,-99.833L-21.756,-99.883L-21.797,-99.883L-21.797,-99.931L-21.843,-99.931L-21.843,-99.977L-21.884,-99.977L-21.884,-100.023L-21.933,-100.023L-21.933,-100.071L-21.97,-100.071L-21.97,-100.167L-22.012,-100.167L-22.012,-100.261L-22.06,-100.261L-22.06,-100.313L-22.104,-100.313L-22.104,-100.357L-22.967,-100.357L-22.967,-100.403L-23.014,-100.403L-23.014,-100.451L-23.051,-100.451L-23.051,-100.599ZM-21.194,-102.787L-21.232,-102.787L-21.232,-102.737L-21.276,-102.737L-21.276,-102.687L-21.321,-102.687L-21.321,-102.639L-21.54,-102.639L-21.54,-102.687L-21.578,-102.687L-21.578,-102.787L-21.623,-102.787L-21.623,-103.019L-21.578,-103.019L-21.578,-103.205L-21.54,-103.205L-21.54,-103.309L-21.496,-103.309L-21.496,-103.361L-21.452,-103.361L-21.452,-103.406L-21.321,-103.406L-21.321,-103.361L-21.276,-103.361L-21.276,-103.309L-21.232,-103.309L-21.232,-103.265L-21.194,-103.265L-21.194,-103.205L-21.148,-103.205L-21.148,-102.829L-21.194,-102.829L-21.194,-102.787ZM-16.684,-105.023L-16.768,-105.023L-16.768,-104.972L-16.811,-104.972L-16.811,-104.922L-16.856,-104.922L-16.856,-104.875L-16.895,-104.875L-16.895,-104.831L-16.941,-104.831L-16.941,-104.78L-17.031,-104.78L-17.031,-104.738L-17.071,-104.738L-17.071,-104.689L-17.157,-104.689L-17.157,-104.645L-17.248,-104.645L-17.248,-104.592L-17.332,-104.592L-17.332,-104.546L-17.547,-104.546L-17.547,-104.5L-18.022,-104.5L-18.022,-104.45L-18.115,-104.45L-18.115,-104.4L-18.162,-104.4L-18.162,-104.356L-18.241,-104.356L-18.241,-104.31L-18.33,-104.31L-18.33,-104.262L-18.464,-104.262L-18.464,-104.212L-18.542,-104.212L-18.542,-104.262L-18.759,-104.262L-18.759,-104.31L-18.889,-104.31L-18.889,-104.356L-19.066,-104.356L-19.066,-104.31L-19.106,-104.31L-19.106,-104.262L-19.154,-104.262L-19.154,-104.212L-19.204,-104.212L-19.204,-104.164L-19.241,-104.164L-19.241,-104.116L-19.284,-104.116L-19.284,-104.07L-19.417,-104.07L-19.417,-104.022L-20.108,-104.022L-20.108,-104.07L-20.278,-104.07L-20.278,-104.116L-20.413,-104.116L-20.413,-104.164L-20.585,-104.164L-20.585,-104.212L-20.761,-104.212L-20.761,-104.262L-20.969,-104.262L-20.969,-104.31L-21.232,-104.31L-21.232,-104.262L-21.452,-104.262L-21.452,-104.212L-21.623,-104.212L-21.623,-104.164L-21.717,-104.164L-21.717,-104.116L-21.797,-104.116L-21.797,-104.07L-21.843,-104.07L-21.843,-104.022L-21.884,-104.022L-21.884,-103.974L-21.933,-103.974L-21.933,-103.88L-21.97,-103.88L-21.97,-103.832L-22.012,-103.832L-22.012,-103.788L-22.06,-103.788L-22.06,-103.734L-22.104,-103.734L-22.104,-103.692L-22.146,-103.692L-22.146,-103.644L-22.182,-103.644L-22.182,-103.598L-22.23,-103.598L-22.23,-103.54L-22.276,-103.54L-22.276,-103.493L-22.326,-103.493L-22.326,-103.456L-22.364,-103.456L-22.364,-103.406L-22.407,-103.406L-22.407,-103.309L-22.453,-103.309L-22.453,-103.117L-22.407,-103.117L-22.407,-103.019L-22.364,-103.019L-22.364,-102.929L-22.326,-102.929L-22.326,-102.787L-22.276,-102.787L-22.276,-102.597L-22.326,-102.597L-22.326,-102.501L-22.364,-102.501L-22.364,-102.449L-22.407,-102.449L-22.407,-102.401L-22.453,-102.401L-22.453,-102.349L-22.533,-102.349L-22.533,-102.311L-22.844,-102.311L-22.844,-102.349L-22.928,-102.349L-22.928,-102.401L-22.967,-102.401L-22.967,-102.449L-23.014,-102.449L-23.014,-102.501L-23.051,-102.501L-23.051,-102.545L-23.097,-102.545L-23.097,-102.639L-23.147,-102.639L-23.147,-102.687L-23.191,-102.687L-23.191,-102.737L-23.231,-102.737L-23.231,-102.787L-23.404,-102.787L-23.404,-102.737L-23.448,-102.737L-23.448,-102.687L-23.492,-102.687L-23.492,-102.639L-23.534,-102.639L-23.534,-102.597L-23.571,-102.597L-23.571,-102.501L-23.615,-102.501L-23.615,-102.349L-23.571,-102.349L-23.571,-102.261L-23.534,-102.261L-23.534,-102.211L-23.492,-102.211L-23.492,-102.164L-23.448,-102.164L-23.448,-102.122L-23.404,-102.122L-23.404,-102.066L-23.358,-102.066L-23.358,-101.974L-23.312,-101.974L-23.312,-101.932L-23.27,-101.932L-23.27,-101.828L-23.231,-101.828L-23.231,-101.74L-23.191,-101.74L-23.191,-101.644L-23.147,-101.644L-23.147,-101.356L-23.191,-101.356L-23.191,-101.309L-23.231,-101.309L-23.231,-101.258L-23.27,-101.258L-23.27,-101.21L-23.404,-101.21L-23.404,-101.168L-23.534,-101.168L-23.534,-101.119L-23.615,-101.119L-23.615,-101.068L-23.669,-101.068L-23.669,-100.975L-23.711,-100.975L-23.711,-100.552L-23.669,-100.552L-23.669,-100.451L-23.615,-100.451L-23.615,-100.357L-23.571,-100.357L-23.571,-100.115L-23.615,-100.115L-23.615,-100.023L-23.669,-100.023L-23.669,-99.977L-23.711,-99.977L-23.711,-99.883L-23.746,-99.883L-23.746,-99.784L-23.791,-99.784L-23.791,-99.734L-23.832,-99.734L-23.832,-99.644L-23.876,-99.644L-23.876,-99.547L-23.925,-99.547L-23.925,-99.457L-23.968,-99.457L-23.968,-99.406L-24.016,-99.406L-24.016,-99.36L-24.053,-99.36L-24.053,-99.31L-24.095,-99.31L-24.095,-99.258L-24.139,-99.258L-24.139,-99.212L-24.183,-99.212L-24.183,-99.164L-24.229,-99.164L-24.229,-99.122L-24.273,-99.122L-24.273,-99.02L-24.317,-99.02L-24.317,-98.98L-24.355,-98.98L-24.355,-98.876L-24.396,-98.876L-24.396,-98.786L-24.444,-98.786L-24.444,-98.69L-24.485,-98.69L-24.485,-98.549L-24.532,-98.549L-24.532,-97.787L-24.576,-97.787L-24.576,-97.549L-24.532,-97.549L-24.532,-97.407L-24.485,-97.407L-24.485,-97.308L-24.444,-97.308L-24.444,-97.217L-24.396,-97.217L-24.396,-97.165L-24.355,-97.165L-24.355,-97.122L-24.317,-97.122L-24.317,-97.025L-24.273,-97.025L-24.273,-96.978L-24.229,-96.978L-24.229,-96.884L-24.183,-96.884L-24.183,-96.833L-24.139,-96.833L-24.139,-96.788L-24.095,-96.788L-24.095,-96.738L-24.053,-96.738L-24.053,-96.696L-24.016,-96.696L-24.016,-96.642L-23.968,-96.642L-23.968,-96.596L-23.876,-96.596L-23.876,-96.552L-23.791,-96.552L-23.791,-96.504L-23.191,-96.504L-23.191,-96.552L-22.967,-96.552L-22.967,-96.596L-22.533,-96.596L-22.533,-96.552L-22.453,-96.552L-22.453,-96.504L-22.364,-96.504L-22.364,-96.458L-22.326,-96.458L-22.326,-96.41L-22.23,-96.41L-22.23,-96.358L-22.182,-96.358L-22.182,-96.309L-22.146,-96.309L-22.146,-96.268L-22.104,-96.268L-22.104,-96.218L-22.06,-96.218L-22.06,-96.117L-22.012,-96.117L-22.012,-95.883L-21.97,-95.883L-21.97,-95.646L-21.933,-95.646L-21.933,-95.501L-21.884,-95.501L-21.884,-95.455L-21.843,-95.455L-21.843,-95.361L-21.797,-95.361L-21.797,-95.265L-21.756,-95.265L-21.756,-95.173L-21.717,-95.173L-21.717,-95.073L-21.666,-95.073L-21.666,-94.927L-21.623,-94.927L-21.623,-94.696L-21.578,-94.696L-21.578,-94.36L-21.623,-94.36L-21.623,-94.17L-21.666,-94.17L-21.666,-94.03L-21.717,-94.03L-21.717,-93.5L-21.666,-93.5L-21.666,-93.412L-21.623,-93.412L-21.623,-93.267L-21.578,-93.267L-21.578,-93.121L-21.54,-93.121L-21.54,-92.935L-21.496,-92.935L-21.496,-92.697L-21.452,-92.697L-21.452,-92.507L-21.405,-92.507L-21.405,-92.411L-21.366,-92.411L-21.366,-92.273L-21.321,-92.273L-21.321,-92.177L-21.276,-92.177L-21.276,-92.026L-21.232,-92.026L-21.232,-91.89L-21.194,-91.89L-21.194,-91.788L-21.148,-91.788L-21.148,-91.742L-21.103,-91.742L-21.103,-91.696L-21.018,-91.696L-21.018,-91.648L-20.631,-91.648L-20.631,-91.696L-20.504,-91.696L-20.504,-91.742L-20.413,-91.742L-20.413,-91.788L-20.324,-91.788L-20.324,-91.84L-20.278,-91.84L-20.278,-91.89L-20.234,-91.89L-20.234,-91.934L-20.194,-91.934L-20.194,-91.978L-20.151,-91.978L-20.151,-92.026L-20.108,-92.026L-20.108,-92.074L-20.067,-92.074L-20.067,-92.124L-20.021,-92.124L-20.021,-92.177L-19.971,-92.177L-19.971,-92.273L-19.931,-92.273L-19.931,-92.31L-19.894,-92.31L-19.894,-92.411L-19.849,-92.411L-19.849,-92.507L-19.804,-92.507L-19.804,-92.6L-19.76,-92.6L-19.76,-92.645L-19.718,-92.645L-19.718,-92.747L-19.674,-92.747L-19.674,-92.791L-19.626,-92.791L-19.626,-92.885L-19.587,-92.885L-19.587,-93.029L-19.547,-93.029L-19.547,-93.267L-19.503,-93.267L-19.503,-93.412L-19.457,-93.412L-19.457,-93.5L-19.417,-93.5L-19.417,-93.548L-19.367,-93.548L-19.367,-93.6L-19.322,-93.6L-19.322,-93.648L-19.284,-93.648L-19.284,-93.696L-19.241,-93.696L-19.241,-93.74L-19.204,-93.74L-19.204,-93.786L-19.154,-93.786L-19.154,-93.831L-19.106,-93.831L-19.106,-93.886L-19.066,-93.886L-19.066,-93.934L-19.024,-93.934L-19.024,-94.03L-18.979,-94.03L-18.979,-94.602L-19.024,-94.602L-19.024,-94.74L-19.066,-94.74L-19.066,-95.265L-19.024,-95.265L-19.024,-95.409L-18.979,-95.409L-18.979,-95.501L-18.939,-95.501L-18.939,-95.552L-18.889,-95.552L-18.889,-95.646L-18.849,-95.646L-18.849,-95.693L-18.805,-95.693L-18.805,-95.737L-18.759,-95.737L-18.759,-95.836L-18.723,-95.836L-18.723,-95.883L-18.678,-95.883L-18.678,-95.932L-18.636,-95.932L-18.636,-95.986L-18.586,-95.986L-18.586,-96.026L-18.542,-96.026L-18.542,-96.07L-18.51,-96.07L-18.51,-96.117L-18.464,-96.117L-18.464,-96.166L-18.419,-96.166L-18.419,-96.218L-18.372,-96.218L-18.372,-96.268L-18.33,-96.268L-18.33,-96.309L-18.285,-96.309L-18.285,-96.41L-18.241,-96.41L-18.241,-96.458L-18.199,-96.458L-18.199,-96.552L-18.162,-96.552L-18.162,-96.642L-18.115,-96.642L-18.115,-96.738L-18.072,-96.738L-18.072,-96.833L-18.022,-96.833L-18.022,-97.078L-18.072,-97.078L-18.072,-97.165L-18.162,-97.165L-18.162,-97.217L-18.199,-97.217L-18.199,-97.262L-18.285,-97.262L-18.285,-97.308L-18.33,-97.308L-18.33,-97.451L-18.285,-97.451L-18.285,-97.501L-18.241,-97.501L-18.241,-97.549L-18.199,-97.549L-18.199,-97.597L-18.115,-97.597L-18.115,-97.639L-18.072,-97.639L-18.072,-97.689L-18.022,-97.689L-18.022,-97.745L-17.938,-97.745L-17.938,-97.787L-17.9,-97.787L-17.9,-97.831L-17.812,-97.831L-17.812,-97.877L-17.77,-97.877L-17.77,-97.931L-17.674,-97.931L-17.674,-97.978L-17.632,-97.978L-17.632,-98.017L-17.547,-98.017L-17.547,-98.073L-17.505,-98.073L-17.505,-98.123L-17.459,-98.123L-17.459,-98.165L-17.424,-98.165L-17.424,-98.216L-17.374,-98.216L-17.374,-98.265L-17.332,-98.265L-17.332,-98.357L-17.288,-98.357L-17.288,-98.453L-17.248,-98.453L-17.248,-98.786L-17.198,-98.786L-17.198,-98.876L-17.157,-98.876L-17.157,-98.928L-17.071,-98.928L-17.071,-98.98L-16.895,-98.98L-16.895,-99.02L-16.73,-99.02L-16.73,-98.98L-16.549,-98.98L-16.549,-98.928L-16.42,-98.928L-16.42,-98.876L-16.374,-98.876L-16.374,-98.832L-16.341,-98.832L-16.341,-98.786L-16.292,-98.786L-16.292,-98.736L-16.204,-98.736L-16.204,-98.646L-16.163,-98.646L-16.163,-98.594L-16.07,-98.594L-16.07,-98.549L-16.025,-98.549L-16.025,-98.502L-15.99,-98.502L-15.99,-98.453L-15.944,-98.453L-15.944,-98.408L-15.903,-98.408L-15.903,-98.357L-15.859,-98.357L-15.859,-98.307L-15.817,-98.307L-15.817,-98.216L-15.769,-98.216L-15.769,-98.123L-15.729,-98.123L-15.729,-98.017L-15.675,-98.017L-15.675,-97.877L-15.643,-97.877L-15.643,-97.787L-15.602,-97.787L-15.602,-97.689L-15.557,-97.689L-15.557,-97.597L-15.506,-97.597L-15.506,-97.451L-15.462,-97.451L-15.462,-97.357L-15.422,-97.357L-15.422,-97.262L-15.38,-97.262L-15.38,-97.217L-15.336,-97.217L-15.336,-97.122L-15.295,-97.122L-15.295,-97.078L-15.209,-97.078L-15.209,-97.025L-15.115,-97.025L-15.115,-97.078L-15.083,-97.078L-15.083,-97.451L-15.034,-97.451L-15.034,-97.689L-14.988,-97.689L-14.988,-97.787L-14.952,-97.787L-14.952,-97.877L-14.898,-97.877L-14.898,-97.931L-14.861,-97.931L-14.861,-97.978L-14.815,-97.978L-14.815,-98.073L-14.777,-98.073L-14.777,-98.123L-14.731,-98.123L-14.731,-98.165L-14.686,-98.165L-14.686,-98.216L-14.646,-98.216L-14.646,-98.265L-14.597,-98.265L-14.597,-98.307L-14.559,-98.307L-14.559,-98.357L-14.514,-98.357L-14.514,-98.408L-14.424,-98.408L-14.424,-98.453L-14.378,-98.453L-14.378,-98.502L-14.252,-98.502L-14.252,-98.549L-14.077,-98.549L-14.077,-98.502L-13.951,-98.502L-13.951,-98.453L-13.911,-98.453L-13.911,-98.408L-13.865,-98.408L-13.865,-98.357L-13.817,-98.357L-13.817,-98.307L-13.776,-98.307L-13.776,-98.265L-13.734,-98.265L-13.734,-98.216L-13.684,-98.216L-13.684,-98.123L-13.65,-98.123L-13.65,-98.073L-13.608,-98.073L-13.608,-98.017L-13.558,-98.017L-13.558,-97.931L-13.469,-97.931L-13.469,-97.877L-13.431,-97.877L-13.431,-97.831L-13.391,-97.831L-13.391,-97.787L-13.343,-97.787L-13.343,-97.745L-13.3,-97.745L-13.3,-97.689L-13.247,-97.689L-13.247,-97.639L-13.216,-97.639L-13.216,-97.597L-13.163,-97.597L-13.163,-97.501L-13.126,-97.501L-13.126,-97.451L-13.076,-97.451L-13.076,-97.407L-13.04,-97.407L-13.04,-97.357L-12.95,-97.357L-12.95,-97.308L-12.78,-97.308L-12.78,-97.262L-12.693,-97.262L-12.693,-97.217L-12.603,-97.217L-12.603,-97.165L-12.388,-97.165L-12.388,-97.217L-12.303,-97.217L-12.303,-97.308L-12.261,-97.308L-12.261,-97.407L-12.215,-97.407L-12.215,-97.549L-12.261,-97.549L-12.261,-97.745L-12.303,-97.745L-12.303,-97.877L-12.342,-97.877L-12.342,-98.017L-12.388,-98.017L-12.388,-98.216L-12.342,-98.216L-12.342,-98.307L-12.303,-98.307L-12.303,-98.357L-12.215,-98.357L-12.215,-98.408L-12.177,-98.408L-12.177,-98.453L-12.084,-98.453L-12.084,-98.502L-12.039,-98.502L-12.039,-98.549L-11.962,-98.549L-11.962,-98.594L-11.912,-98.594L-11.912,-98.646L-11.818,-98.646L-11.818,-98.69L-11.741,-98.69L-11.741,-98.736L-11.647,-98.736L-11.647,-98.786L-11.571,-98.786L-11.571,-98.832L-11.517,-98.832L-11.517,-98.876L-11.435,-98.876L-11.435,-98.98L-11.394,-98.98L-11.394,-99.072L-11.348,-99.072L-11.348,-99.592L-11.394,-99.592L-11.394,-99.734L-11.435,-99.734L-11.435,-99.784L-11.47,-99.784L-11.47,-99.883L-11.517,-99.883L-11.517,-99.931L-11.571,-99.931L-11.571,-100.023L-11.605,-100.023L-11.605,-100.215L-11.647,-100.215L-11.647,-100.357L-11.605,-100.357L-11.605,-100.505L-11.571,-100.505L-11.571,-100.552L-11.517,-100.552L-11.517,-100.599L-11.172,-100.599L-11.172,-100.687L-11.133,-100.687L-11.133,-100.884L-11.088,-100.884L-11.088,-100.975L-11.051,-100.975L-11.051,-101.068L-10.997,-101.068L-10.997,-101.119L-10.953,-101.119L-10.953,-101.168L-10.907,-101.168L-10.907,-101.258L-10.875,-101.258L-10.875,-101.309L-10.827,-101.309L-10.827,-101.356L-10.784,-101.356L-10.784,-101.498L-10.737,-101.498L-10.737,-101.594L-10.7,-101.594L-10.7,-101.692L-10.654,-101.692L-10.654,-101.784L-10.613,-101.784L-10.613,-101.932L-10.565,-101.932L-10.565,-102.122L-10.613,-102.122L-10.613,-102.211L-10.654,-102.211L-10.654,-102.261L-10.7,-102.261L-10.7,-102.311L-10.737,-102.311L-10.737,-102.349L-10.784,-102.349L-10.784,-102.401L-10.875,-102.401L-10.875,-102.449L-11.088,-102.449L-11.088,-102.501L-11.348,-102.501L-11.348,-102.545L-11.394,-102.545L-11.394,-102.597L-11.435,-102.597L-11.435,-102.639L-11.47,-102.639L-11.47,-102.687L-11.517,-102.687L-11.517,-102.929L-11.47,-102.929L-11.47,-103.019L-11.435,-103.019L-11.435,-103.071L-11.348,-103.071L-11.348,-103.117L-11.088,-103.117L-11.088,-103.163L-10.7,-103.163L-10.7,-103.205L-10.565,-103.205L-10.565,-103.265L-10.439,-103.265L-10.439,-103.309L-10.397,-103.309L-10.397,-103.265L-10.271,-103.265L-10.271,-103.205L-10.168,-103.205L-10.168,-103.163L-10.136,-103.163L-10.136,-103.071L-10.09,-103.071L-10.09,-102.929L-10.046,-102.929L-10.046,-102.829L-10.002,-102.829L-10.002,-102.737L-9.963,-102.737L-9.963,-102.687L-9.919,-102.687L-9.919,-102.639L-9.871,-102.639L-9.871,-102.597L-9.826,-102.597L-9.826,-102.545L-9.787,-102.545L-9.787,-102.501L-9.573,-102.501L-9.573,-102.687L-9.612,-102.687L-9.612,-102.787L-9.66,-102.787L-9.66,-102.929L-9.699,-102.929L-9.699,-103.019L-9.66,-103.019L-9.66,-103.117L-9.612,-103.117L-9.612,-103.205L-9.526,-103.205L-9.526,-103.265L-9.479,-103.265L-9.479,-103.309L-9.396,-103.309L-9.396,-103.361L-9.355,-103.361L-9.355,-103.456L-9.315,-103.456L-9.315,-103.598L-9.355,-103.598L-9.355,-103.692L-9.396,-103.692L-9.396,-103.734L-9.446,-103.734L-9.446,-103.788L-9.479,-103.788L-9.479,-103.832L-9.573,-103.832L-9.573,-103.88L-9.612,-103.88L-9.612,-103.926L-9.699,-103.926L-9.699,-103.974L-9.743,-103.974L-9.743,-104.022L-9.826,-104.022L-9.826,-104.07L-9.919,-104.07L-9.919,-104.116L-10.046,-104.116L-10.046,-104.164L-10.271,-104.164L-10.271,-104.212L-11.47,-104.212L-11.47,-104.262L-11.697,-104.262L-11.697,-104.31L-11.995,-104.31L-11.995,-104.356L-12.303,-104.356L-12.303,-104.4L-12.522,-104.4L-12.522,-104.45L-12.78,-104.45L-12.78,-104.5L-13.126,-104.5L-13.126,-104.45L-13.391,-104.45L-13.391,-104.4L-13.817,-104.4L-13.817,-104.45L-13.951,-104.45L-13.951,-104.5L-14.125,-104.5L-14.125,-104.546L-14.898,-104.546L-14.898,-104.592L-15.115,-104.592L-15.115,-104.645L-15.253,-104.645L-15.253,-104.689L-15.336,-104.689L-15.336,-104.738L-15.422,-104.738L-15.422,-104.78L-15.506,-104.78L-15.506,-104.831L-15.675,-104.831L-15.675,-104.875L-15.903,-104.875L-15.903,-104.922L-16.07,-104.922L-16.07,-104.972L-16.204,-104.972L-16.204,-105.023L-16.341,-105.023L-16.341,-105.065L-16.684,-105.065L-16.684,-105.023ZM-11.47,-96.358L-11.571,-96.358L-11.571,-96.309L-11.605,-96.309L-11.605,-96.268L-11.647,-96.268L-11.647,-96.218L-11.697,-96.218L-11.697,-96.166L-11.782,-96.166L-11.782,-96.117L-11.818,-96.117L-11.818,-96.07L-11.862,-96.07L-11.862,-96.026L-11.912,-96.026L-11.912,-95.932L-11.962,-95.932L-11.962,-95.693L-11.912,-95.693L-11.912,-95.593L-11.862,-95.593L-11.862,-95.552L-11.818,-95.552L-11.818,-95.501L-11.741,-95.501L-11.741,-95.455L-11.47,-95.455L-11.47,-95.501L-11.348,-95.501L-11.348,-95.552L-11.214,-95.552L-11.214,-95.593L-11.172,-95.593L-11.172,-95.552L-11.088,-95.552L-11.088,-95.501L-11.051,-95.501L-11.051,-95.455L-10.997,-95.455L-10.997,-95.409L-10.875,-95.409L-10.875,-95.455L-10.827,-95.455L-10.827,-95.552L-10.784,-95.552L-10.784,-95.783L-10.827,-95.783L-10.827,-95.836L-10.907,-95.836L-10.907,-95.883L-11.051,-95.883L-11.051,-95.932L-11.088,-95.932L-11.088,-95.986L-11.133,-95.986L-11.133,-96.07L-11.172,-96.07L-11.172,-96.218L-11.214,-96.218L-11.214,-96.358L-11.265,-96.358L-11.265,-96.41L-11.47,-96.41L-11.47,-96.358ZM-10.046,-100.357L-10.09,-100.357L-10.09,-100.313L-10.136,-100.313L-10.136,-100.261L-10.168,-100.261L-10.168,-100.215L-10.221,-100.215L-10.221,-100.167L-10.271,-100.167L-10.271,-100.071L-10.308,-100.071L-10.308,-100.023L-10.136,-100.023L-10.136,-100.071L-10.046,-100.071L-10.046,-100.115L-10.002,-100.115L-10.002,-100.167L-9.963,-100.167L-9.963,-100.261L-9.919,-100.261L-9.919,-100.313L-9.963,-100.313L-9.963,-100.403L-10.046,-100.403L-10.046,-100.357ZM-20.274,-89.41C-20.075,-89.41 -19.914,-89.579 -19.914,-89.789C-19.914,-89.991 -20.075,-90.156 -20.274,-90.156C-20.478,-90.156 -20.631,-89.991 -20.631,-89.789C-20.631,-89.579 -20.478,-89.41 -20.274,-89.41M-8.167,-94.54C-10.819,-90.409 -13.669,-86.535 -16.341,-83.455C-16.887,-84.995 -17.954,-86.001 -19.119,-86.916C-19.587,-87.244 -19.572,-87.632 -19.077,-88.09L-17.664,-88.09C-17.873,-88.476 -18.081,-88.865 -18.292,-89.26C-17.773,-90.499 -16.066,-90.662 -14.413,-90.891C-11.647,-91.124 -9.718,-92.562 -8.167,-94.54M18.004,-85.469C25.297,-85.996 32.343,-86.259 39.067,-86.205C39.393,-86.203 39.725,-86.196 40.047,-86.196L40.047,-81.936C36.587,-82.447 32.911,-82.766 29.042,-82.92C25.264,-83.069 21.269,-83.056 17.083,-82.898C17.397,-83.766 17.711,-84.617 18.004,-85.469M-56.564,-43.781L-56.564,-52.592C-56.152,-51.944 -55.609,-51.322 -54.946,-50.726C-52.594,-48.627 -48.672,-46.789 -42.936,-45.291C-40.653,-44.681 -38.206,-44.181 -35.613,-43.781L-56.564,-43.781ZM-0.856,-43.781C2.94,-44.223 6.836,-44.784 10.844,-45.467C21.968,-47.351 31.856,-49.867 40.047,-52.914L40.047,-43.781L-0.856,-43.781Z" style="fill:white;"/>
        </g>
    </g>
</svg>
