<?xml version="1.0" encoding="UTF-8" standalone="no"?>
<!DOCTYPE svg PUBLIC "-//W3C//DTD SVG 1.1//EN" "http://www.w3.org/Graphics/SVG/1.1/DTD/svg11.dtd">
<svg width="100%" height="100%" viewBox="0 0 512 512" version="1.1" xmlns="http://www.w3.org/2000/svg" xmlns:xlink="http://www.w3.org/1999/xlink" xml:space="preserve" xmlns:serif="http://www.serif.com/" style="fill-rule:evenodd;clip-rule:evenodd;stroke-linejoin:round;stroke-miterlimit:2;">
    <path d="M261.039,512C259.344,512 257.648,512 255.941,511.992C215.809,512.09 178.727,511.07 142.664,508.875C109.602,506.863 79.422,495.438 55.383,475.836C32.188,456.922 16.348,431.348 8.305,399.832C1.305,372.395 0.934,345.461 0.578,319.41C0.32,300.719 0.055,278.57 -0,256.047C0.055,233.43 0.32,211.281 0.578,192.59C0.934,166.543 1.305,139.609 8.305,112.168C16.348,80.652 32.188,55.078 55.383,36.164C79.422,16.563 109.602,5.137 142.668,3.125C178.73,0.934 215.82,-0.09 256.039,0.008C296.184,-0.078 333.254,0.934 369.316,3.125C402.379,5.137 432.559,16.563 456.598,36.164C479.797,55.078 495.633,80.652 503.676,112.168C510.676,139.605 511.047,166.543 511.402,192.59C511.66,211.281 511.93,233.43 511.98,255.953L511.98,256.047C511.93,278.57 511.66,300.719 511.402,319.41C511.047,345.457 510.68,372.391 503.676,399.832C495.633,431.348 479.797,456.922 456.598,475.836C432.559,495.438 402.379,506.863 369.316,508.875C334.781,510.977 299.305,512 261.039,512ZM255.941,471.992C295.422,472.086 331.672,471.09 366.887,468.949C391.887,467.43 413.563,459.316 431.32,444.836C447.734,431.449 459.039,412.98 464.918,389.941C470.746,367.102 471.082,342.578 471.406,318.863C471.66,300.297 471.926,278.305 471.98,256C471.926,233.691 471.66,211.703 471.406,193.137C471.082,169.422 470.746,144.898 464.918,122.055C459.039,99.016 447.734,80.547 431.32,67.16C413.562,52.684 391.887,44.57 366.887,43.051C331.672,40.906 295.422,39.918 256.035,40.004C216.562,39.91 180.309,40.906 145.094,43.051C120.094,44.57 98.418,52.684 80.66,67.16C64.246,80.547 52.941,99.016 47.062,122.055C41.234,144.898 40.898,169.418 40.574,193.137C40.32,211.719 40.055,233.723 40,256.047C40.055,278.273 40.32,300.281 40.574,318.863C40.898,342.578 41.234,367.102 47.062,389.941C52.941,412.98 64.246,431.449 80.66,444.836C98.418,459.312 120.094,467.426 145.094,468.945C180.309,471.09 216.57,472.09 255.941,471.992ZM254.988,381C186.066,381 129.988,324.926 129.988,256C129.988,187.074 186.066,131 254.988,131C323.914,131 379.988,187.074 379.988,256C379.988,324.926 323.914,381 254.988,381ZM254.988,171C208.121,171 169.988,209.133 169.988,256C169.988,302.867 208.121,341 254.988,341C301.859,341 339.988,302.867 339.988,256C339.988,209.133 301.859,171 254.988,171ZM393.988,91C377.422,91 363.988,104.43 363.988,121C363.988,137.57 377.422,151 393.988,151C410.559,151 423.988,137.57 423.988,121C423.988,104.43 410.559,91 393.988,91Z" style="fill:white;fill-rule:nonzero;"/>
</svg>
