<?xml version="1.0" encoding="UTF-8" standalone="no"?>
<!DOCTYPE svg PUBLIC "-//W3C//DTD SVG 1.1//EN" "http://www.w3.org/Graphics/SVG/1.1/DTD/svg11.dtd">
<svg width="100%" height="100%" viewBox="0 0 500 500" version="1.1" xmlns="http://www.w3.org/2000/svg" xmlns:xlink="http://www.w3.org/1999/xlink" xml:space="preserve" xmlns:serif="http://www.serif.com/" style="fill-rule:evenodd;clip-rule:evenodd;stroke-linejoin:round;stroke-miterlimit:2;">
    <g transform="matrix(3.39877,0,0,3.39877,-396.099,-487.548)">
        <path d="M231.104,225.972L252.236,225.972C252.236,225.972 261.52,163.256 192.681,154.575C192.529,154.879 161.156,178.638 161.156,178.638L161.156,226.307L183.239,226.307L183.239,176.506C183.239,176.506 190.482,174.532 198.962,176.481C207.442,178.431 234.777,186.893 231.104,225.972Z" style="fill:none;"/>
        <clipPath id="_clip1">
            <path d="M231.104,225.972L252.236,225.972C252.236,225.972 261.52,163.256 192.681,154.575C192.529,154.879 161.156,178.638 161.156,178.638L161.156,226.307L183.239,226.307L183.239,176.506C183.239,176.506 190.482,174.532 198.962,176.481C207.442,178.431 234.777,186.893 231.104,225.972Z"/>
        </clipPath>
        <g clip-path="url(#_clip1)">
            <g transform="matrix(0.66998,0,0,0.755611,86.615,14.5551)">
                <rect x="98.149" y="176.2" width="155.855" height="124.25" style="fill:url(#_Linear2);"/>
            </g>
        </g>
    </g>
    <g transform="matrix(3.39877,0,0,3.39877,-396.099,-487.548)">
        <path d="M223.838,241.362L238.463,256.483C238.463,256.483 216.897,287.22 174.51,277.552C132.122,267.885 120.224,219.549 131.626,196.248C131.379,196.248 154.679,196.248 154.679,196.248C154.679,196.248 147.243,205.419 148.73,220.788C150.217,236.157 160.618,254.42 182.6,258.386C204.583,262.352 220.972,245.596 223.838,241.362Z" style="fill:none;"/>
        <clipPath id="_clip3">
            <path d="M223.838,241.362L238.463,256.483C238.463,256.483 216.897,287.22 174.51,277.552C132.122,267.885 120.224,219.549 131.626,196.248C131.379,196.248 154.679,196.248 154.679,196.248C154.679,196.248 147.243,205.419 148.73,220.788C150.217,236.157 160.618,254.42 182.6,258.386C204.583,262.352 220.972,245.596 223.838,241.362Z"/>
        </clipPath>
        <g clip-path="url(#_clip3)">
            <rect x="106.258" y="181.045" width="140.052" height="112.476" style="fill:url(#_Linear4);"/>
        </g>
    </g>
    <defs>
        <linearGradient id="_Linear2" x1="0" y1="0" x2="1" y2="0" gradientUnits="userSpaceOnUse" gradientTransform="matrix(-96.1086,-16.0182,18.0655,-85.217,228.597,243.425)"><stop offset="0" style="stop-color:rgb(27,156,53);stop-opacity:1"/><stop offset="1" style="stop-color:rgb(52,181,54);stop-opacity:1"/></linearGradient>
        <linearGradient id="_Linear4" x1="0" y1="0" x2="1" y2="0" gradientUnits="userSpaceOnUse" gradientTransform="matrix(49.5523,70.1036,-70.1036,49.5523,133.45,219.157)"><stop offset="0" style="stop-color:rgb(1,131,165);stop-opacity:1"/><stop offset="1" style="stop-color:rgb(0,192,237);stop-opacity:1"/></linearGradient>
    </defs>
</svg>
