<?xml version="1.0" encoding="UTF-8" standalone="no"?>
<!DOCTYPE svg PUBLIC "-//W3C//DTD SVG 1.1//EN" "http://www.w3.org/Graphics/SVG/1.1/DTD/svg11.dtd">
<svg width="100%" height="100%" viewBox="0 0 1654 313" version="1.1" xmlns="http://www.w3.org/2000/svg" xmlns:xlink="http://www.w3.org/1999/xlink" xml:space="preserve" xmlns:serif="http://www.serif.com/" style="fill-rule:evenodd;clip-rule:evenodd;stroke-linejoin:round;stroke-miterlimit:2;">
    <g transform="matrix(7.4081,0,0,7.4081,-1035.46,-900.09)">
        <g id="Layer-1" serif:id="Layer 1">
            <g>
                <g transform="matrix(1,0,0,1,187.216,123.324)">
                    <path d="M0,10.857C-0.092,10.765 -0.191,10.712 -0.302,10.699C-0.417,10.684 -0.527,10.674 -0.639,10.674C-0.688,10.674 -0.757,10.667 -0.838,10.647C-0.919,10.626 -0.984,10.605 -1.036,10.585C-1.065,10.544 -1.1,10.462 -1.136,10.35C-1.168,10.231 -1.202,10.106 -1.235,9.976C-1.267,9.84 -1.291,9.716 -1.311,9.602C-1.331,9.482 -1.343,9.4 -1.343,9.347L-1.343,0.942C-1.343,0.626 -1.256,0.416 -1.081,0.313C-0.91,0.213 -0.687,0.136 -0.412,0.086C-0.308,0.062 -0.264,0.015 -0.272,-0.061C-0.283,-0.136 -0.34,-0.181 -0.44,-0.19C-0.737,-0.21 -1.026,-0.215 -1.311,-0.204C-1.598,-0.197 -1.877,-0.19 -2.165,-0.19C-2.46,-0.19 -2.753,-0.19 -3.043,-0.197C-3.333,-0.202 -3.625,-0.197 -3.919,-0.173C-4.013,-0.164 -4.055,-0.119 -4.055,-0.037C-4.055,0.044 -4.013,0.09 -3.919,0.103C-3.655,0.132 -3.427,0.205 -3.232,0.325C-3.042,0.437 -2.947,0.649 -2.947,0.956L-2.947,9.288C-2.947,9.39 -2.952,9.514 -2.968,9.662C-2.984,9.808 -3.01,9.954 -3.059,10.095C-3.104,10.238 -3.162,10.359 -3.232,10.462C-3.302,10.565 -3.396,10.614 -3.509,10.614C-3.54,10.614 -3.622,10.63 -3.761,10.669C-3.898,10.704 -3.992,10.712 -4.042,10.69C-4.083,10.669 -4.123,10.674 -4.165,10.699C-4.205,10.725 -4.235,10.756 -4.255,10.798C-4.277,10.836 -4.285,10.88 -4.285,10.917C-4.285,10.961 -4.267,10.99 -4.223,11.01C-4.152,11.042 -3.935,11.047 -3.576,11.034C-3.215,11.021 -2.81,11.01 -2.363,11.01C-2.089,11.01 -1.818,11.016 -1.553,11.021C-1.291,11.025 -1.048,11.032 -0.838,11.042C-0.624,11.053 -0.453,11.058 -0.319,11.063C-0.189,11.069 -0.12,11.072 -0.12,11.072C-0.039,11.072 0.015,11.047 0.04,11.004C0.065,10.958 0.053,10.91 0,10.857" style="fill:rgb(204,204,204);fill-rule:nonzero;"/>
                </g>
                <g transform="matrix(1,0,0,1,196.483,128.472)">
                    <path d="M0,0.499L-0.012,0.299C-0.476,0.278 -0.934,0.26 -1.39,0.256C-1.851,0.244 -2.313,0.242 -2.771,0.242C-2.842,0.242 -2.886,0.267 -2.907,0.318C-2.924,0.371 -2.905,0.41 -2.842,0.439C-2.771,0.481 -2.703,0.511 -2.63,0.53C-2.56,0.549 -2.485,0.569 -2.408,0.594C-2.297,0.634 -2.194,0.685 -2.094,0.749C-1.997,0.808 -1.946,0.919 -1.946,1.075L-1.946,3.668C-2.13,3.849 -2.341,3.967 -2.58,4.014C-2.827,4.071 -3.064,4.091 -3.3,4.091C-3.452,4.091 -3.63,4.079 -3.822,4.059C-4.013,4.034 -4.202,3.999 -4.392,3.958C-4.581,3.914 -4.759,3.856 -4.938,3.791C-5.111,3.728 -5.268,3.646 -5.4,3.554C-5.69,3.35 -5.959,3.111 -6.205,2.837C-6.452,2.565 -6.664,2.266 -6.838,1.938C-7.016,1.614 -7.153,1.275 -7.255,0.921C-7.357,0.569 -7.407,0.213 -7.407,-0.155C-7.407,-0.69 -7.316,-1.177 -7.126,-1.617C-6.937,-2.063 -6.678,-2.441 -6.347,-2.756C-6.011,-3.074 -5.62,-3.319 -5.171,-3.493C-4.722,-3.662 -4.234,-3.749 -3.708,-3.749C-3.404,-3.749 -3.113,-3.716 -2.831,-3.644C-2.55,-3.572 -2.296,-3.46 -2.067,-3.309C-1.839,-3.155 -1.646,-2.961 -1.493,-2.728C-1.336,-2.493 -1.229,-2.21 -1.173,-1.884C-1.168,-1.842 -1.143,-1.819 -1.102,-1.808C-1.065,-1.794 -1.023,-1.797 -0.974,-1.813C-0.913,-1.842 -0.859,-1.934 -0.816,-2.09C-0.772,-2.242 -0.74,-2.415 -0.719,-2.605C-0.691,-2.798 -0.678,-2.99 -0.671,-3.192C-0.661,-3.39 -0.659,-3.552 -0.659,-3.678L-0.659,-3.83C-0.659,-3.855 -0.671,-3.876 -0.691,-3.901C-0.719,-3.926 -0.749,-3.937 -0.788,-3.937C-0.943,-3.953 -1.095,-3.972 -1.237,-3.996C-1.385,-4.018 -1.536,-4.041 -1.689,-4.066C-2.029,-4.112 -2.374,-4.156 -2.728,-4.197C-3.085,-4.234 -3.441,-4.253 -3.793,-4.253C-4.451,-4.253 -5.069,-4.16 -5.653,-3.979C-6.237,-3.795 -6.744,-3.518 -7.181,-3.155C-7.614,-2.793 -7.958,-2.345 -8.213,-1.808C-8.466,-1.271 -8.593,-0.653 -8.593,0.042C-8.593,0.623 -8.497,1.182 -8.308,1.722C-8.115,2.26 -7.84,2.744 -7.484,3.17C-7.126,3.597 -6.699,3.951 -6.2,4.227C-5.695,4.507 -5.144,4.667 -4.531,4.713C-4.197,4.738 -3.849,4.752 -3.497,4.752C-3.28,4.752 -3.049,4.743 -2.807,4.733C-2.565,4.72 -2.32,4.692 -2.078,4.644C-1.835,4.599 -1.601,4.535 -1.379,4.45C-1.158,4.366 -0.95,4.258 -0.761,4.119C-0.723,4.103 -0.707,4.075 -0.707,4.034L-0.707,1.111C-0.707,1.001 -0.687,0.912 -0.649,0.84C-0.609,0.77 -0.556,0.714 -0.49,0.671C-0.42,0.627 -0.349,0.593 -0.265,0.565C-0.182,0.538 -0.095,0.515 0,0.499" style="fill:rgb(204,204,204);fill-rule:nonzero;"/>
                </g>
                <g transform="matrix(1,0,0,1,205.92,124.708)">
                    <path d="M0,8.373L-0.071,8.174C-0.369,8.221 -0.662,8.168 -0.95,8.016C-1.241,7.862 -1.525,7.654 -1.804,7.394C-2.08,7.13 -2.346,6.833 -2.6,6.5C-2.855,6.168 -3.099,5.845 -3.334,5.531C-3.474,5.344 -3.612,5.158 -3.749,4.967C-3.891,4.781 -4.02,4.62 -4.144,4.485C-3.971,4.323 -3.806,4.139 -3.645,3.941C-3.482,3.743 -3.342,3.525 -3.219,3.303C-3.094,3.074 -2.989,2.842 -2.911,2.603C-2.832,2.364 -2.795,2.123 -2.795,1.879C-2.795,1.825 -2.795,1.768 -2.8,1.707C-2.802,1.641 -2.814,1.594 -2.827,1.553C-2.921,1.159 -3.066,0.846 -3.263,0.608C-3.457,0.37 -3.692,0.184 -3.964,0.055C-4.229,-0.076 -4.527,-0.158 -4.842,-0.202C-5.16,-0.245 -5.48,-0.269 -5.812,-0.269L-6.437,-0.269C-6.502,-0.269 -6.569,-0.265 -6.637,-0.26C-6.706,-0.257 -6.773,-0.254 -6.844,-0.254C-6.972,-0.254 -7.089,-0.254 -7.209,-0.248C-7.324,-0.245 -7.45,-0.248 -7.583,-0.254L-8.569,-0.254C-8.622,-0.254 -8.664,-0.244 -8.687,-0.215C-8.709,-0.189 -8.709,-0.153 -8.687,-0.112C-8.664,-0.037 -8.612,0.015 -8.534,0.039C-8.454,0.06 -8.363,0.076 -8.251,0.085C-8.198,0.092 -8.14,0.104 -8.086,0.115C-8.033,0.126 -7.984,0.15 -7.935,0.184C-7.888,0.221 -7.849,0.278 -7.819,0.356C-7.786,0.435 -7.773,0.539 -7.773,0.673L-7.773,7.176C-7.773,7.361 -7.775,7.519 -7.782,7.636C-7.79,7.763 -7.814,7.854 -7.859,7.925C-7.902,7.995 -7.971,8.052 -8.065,8.093C-8.157,8.13 -8.292,8.166 -8.463,8.197C-8.543,8.213 -8.58,8.25 -8.575,8.308C-8.573,8.366 -8.531,8.401 -8.453,8.407C-7.972,8.431 -7.497,8.444 -7.021,8.444L-5.588,8.444C-5.524,8.444 -5.48,8.423 -5.461,8.385C-5.436,8.348 -5.445,8.307 -5.493,8.266C-5.563,8.206 -5.645,8.166 -5.735,8.15C-5.823,8.133 -5.913,8.123 -6,8.114C-6.041,8.106 -6.091,8.098 -6.157,8.093C-6.223,8.081 -6.276,8.071 -6.316,8.055C-6.337,8.039 -6.364,7.99 -6.386,7.903C-6.407,7.817 -6.437,7.722 -6.457,7.616C-6.479,7.508 -6.497,7.41 -6.511,7.318C-6.521,7.221 -6.527,7.156 -6.527,7.118L-6.527,4.935C-6.465,4.924 -6.396,4.921 -6.326,4.921L-6.114,4.921C-5.953,4.921 -5.766,4.935 -5.557,4.967C-5.351,4.999 -5.178,5.079 -5.037,5.205C-4.848,5.369 -4.667,5.569 -4.49,5.807C-4.313,6.045 -4.135,6.29 -3.955,6.541C-3.775,6.798 -3.592,7.053 -3.398,7.304C-3.205,7.555 -3.001,7.778 -2.777,7.979C-2.552,8.179 -2.31,8.339 -2.048,8.46C-1.787,8.58 -1.489,8.642 -1.161,8.642C-0.958,8.642 -0.759,8.618 -0.564,8.573C-0.369,8.526 -0.18,8.459 0,8.373M-4.073,2.481C-4.073,2.623 -4.085,2.765 -4.103,2.916C-4.123,3.06 -4.154,3.207 -4.201,3.349C-4.25,3.489 -4.312,3.62 -4.385,3.743C-4.457,3.863 -4.552,3.966 -4.662,4.052C-4.769,4.139 -4.909,4.191 -5.083,4.203C-5.254,4.221 -5.405,4.228 -5.54,4.228C-5.877,4.228 -6.202,4.203 -6.516,4.159L-6.516,0.296C-6.305,0.225 -6.082,0.191 -5.856,0.191C-5.561,0.191 -5.3,0.262 -5.074,0.397C-4.854,0.533 -4.668,0.71 -4.517,0.925C-4.371,1.139 -4.256,1.385 -4.185,1.657C-4.111,1.932 -4.073,2.205 -4.073,2.481" style="fill:rgb(204,204,204);fill-rule:nonzero;"/>
                </g>
                <g transform="matrix(1,0,0,1,211.189,125.826)">
                    <path d="M0,5.749C0.01,5.72 0,5.696 -0.027,5.674C-0.055,5.654 -0.086,5.645 -0.117,5.642C-0.146,5.637 -0.179,5.637 -0.211,5.648C-0.246,5.653 -0.262,5.674 -0.269,5.704C-0.356,6.058 -0.52,6.325 -0.768,6.502C-1.015,6.683 -1.307,6.773 -1.64,6.773C-1.9,6.773 -2.169,6.72 -2.447,6.614C-2.725,6.51 -2.936,6.336 -3.077,6.092L-3.077,2.923L-2.454,2.923C-2.28,2.923 -2.107,2.929 -1.928,2.939C-1.755,2.95 -1.592,2.972 -1.443,3C-1.293,3.024 -1.196,3.065 -1.146,3.11C-1.109,3.143 -1.081,3.194 -1.061,3.263C-1.039,3.334 -1.021,3.407 -0.996,3.476C-0.98,3.521 -0.958,3.579 -0.931,3.638C-0.903,3.703 -0.866,3.757 -0.821,3.803C-0.775,3.845 -0.724,3.856 -0.667,3.838C-0.611,3.822 -0.584,3.79 -0.584,3.745C-0.563,3.437 -0.526,3.143 -0.482,2.853C-0.467,2.733 -0.45,2.614 -0.434,2.494C-0.417,2.374 -0.4,2.254 -0.385,2.139C-0.38,2.098 -0.396,2.067 -0.434,2.044C-0.473,2.02 -0.514,2.013 -0.563,2.02C-0.602,2.027 -0.655,2.045 -0.719,2.073C-0.789,2.1 -0.863,2.132 -0.951,2.17C-1.03,2.21 -1.104,2.247 -1.187,2.272C-1.261,2.3 -1.322,2.312 -1.359,2.312L-3.087,2.312L-3.087,-0.822C-3.022,-0.806 -2.985,-0.803 -2.961,-0.808C-2.944,-0.819 -2.903,-0.822 -2.839,-0.822L-2.595,-0.822C-2.508,-0.822 -2.426,-0.824 -2.345,-0.833C-2.273,-0.84 -2.205,-0.847 -2.134,-0.847L-1.937,-0.847C-1.615,-0.847 -1.351,-0.787 -1.142,-0.673C-0.937,-0.56 -0.818,-0.326 -0.783,0.037C-0.776,0.099 -0.735,0.128 -0.655,0.128C-0.579,0.128 -0.531,0.099 -0.514,0.037C-0.509,-0.005 -0.498,-0.034 -0.492,-0.058C-0.483,-0.082 -0.477,-0.11 -0.468,-0.143C-0.421,-0.342 -0.377,-0.554 -0.336,-0.777C-0.292,-0.992 -0.257,-1.214 -0.232,-1.433C-0.227,-1.469 -0.246,-1.501 -0.286,-1.518C-0.33,-1.54 -0.38,-1.54 -0.434,-1.527C-0.526,-1.469 -0.599,-1.441 -0.645,-1.441L-5.15,-1.441C-5.217,-1.441 -5.26,-1.42 -5.281,-1.372C-5.307,-1.326 -5.286,-1.284 -5.221,-1.255C-5.145,-1.201 -5.067,-1.157 -4.989,-1.127C-4.909,-1.095 -4.826,-1.074 -4.742,-1.058C-4.684,-1.042 -4.632,-1.026 -4.583,-1.008C-4.532,-0.992 -4.484,-0.968 -4.441,-0.935C-4.396,-0.897 -4.364,-0.849 -4.343,-0.787C-4.319,-0.721 -4.306,-0.641 -4.306,-0.539L-4.306,6C-4.306,6.131 -4.316,6.259 -4.331,6.379C-4.348,6.501 -4.377,6.608 -4.425,6.704C-4.471,6.796 -4.538,6.872 -4.631,6.925C-4.721,6.979 -4.84,7.012 -4.989,7.018C-5.067,7.018 -5.108,7.053 -5.112,7.12C-5.116,7.186 -5.077,7.218 -4.998,7.218C-4.719,7.25 -4.417,7.27 -4.094,7.277C-3.775,7.287 -3.45,7.289 -3.12,7.289C-2.941,7.289 -2.763,7.289 -2.584,7.283C-2.401,7.277 -2.221,7.277 -2.043,7.277L-0.552,7.277L-0.341,7.218C-0.278,7.218 -0.236,7.19 -0.223,7.137L-0.187,6.856C-0.162,6.665 -0.137,6.481 -0.111,6.297C-0.085,6.115 -0.046,5.931 0,5.749" style="fill:rgb(204,204,204);fill-rule:nonzero;"/>
                </g>
                <g transform="matrix(1,0,0,1,214.981,135.66)">
                    <path d="M0,-11.032L-0.012,-11.23C-0.37,-11.246 -0.732,-11.259 -1.098,-11.271C-1.464,-11.283 -1.824,-11.29 -2.183,-11.29L-2.736,-11.29C-2.795,-11.29 -2.838,-11.271 -2.858,-11.239C-2.875,-11.2 -2.875,-11.163 -2.853,-11.125C-2.795,-11.036 -2.731,-10.987 -2.646,-10.968C-2.564,-10.946 -2.474,-10.938 -2.374,-10.938C-2.316,-10.938 -2.264,-10.936 -2.213,-10.924C-2.16,-10.92 -2.118,-10.895 -2.077,-10.854C-2.037,-10.817 -2.005,-10.757 -1.978,-10.681C-1.951,-10.599 -1.937,-10.491 -1.937,-10.35L-1.937,-3.493C-1.937,-3.353 -1.947,-3.18 -1.971,-2.968C-1.993,-2.756 -2.028,-2.537 -2.069,-2.311C-2.114,-2.083 -2.166,-1.867 -2.229,-1.663C-2.292,-1.463 -2.358,-1.295 -2.432,-1.17C-2.476,-1.111 -2.547,-1.021 -2.642,-0.908C-2.736,-0.793 -2.827,-0.687 -2.923,-0.583C-3.054,-0.435 -3.181,-0.3 -3.292,-0.178C-3.408,-0.06 -3.473,0.033 -3.485,0.097C-3.51,0.144 -3.499,0.183 -3.457,0.218C-3.412,0.257 -3.366,0.258 -3.309,0.228C-2.958,0.053 -2.621,-0.156 -2.309,-0.396C-1.987,-0.64 -1.712,-0.916 -1.473,-1.225C-1.234,-1.532 -1.046,-1.867 -0.904,-2.225C-0.765,-2.588 -0.694,-2.971 -0.694,-3.381L-0.694,-10.362C-0.694,-10.605 -0.628,-10.769 -0.497,-10.848C-0.369,-10.929 -0.202,-10.991 0,-11.032" style="fill:rgb(204,204,204);fill-rule:nonzero;"/>
                </g>
                <g transform="matrix(1,0,0,1,224.372,124.238)">
                    <path d="M0,8.865L0,8.655C-0.227,8.638 -0.438,8.583 -0.638,8.491C-0.839,8.394 -0.994,8.237 -1.104,8.01C-1.267,7.658 -1.436,7.284 -1.603,6.889C-1.77,6.493 -1.937,6.086 -2.101,5.674C-2.263,5.258 -2.424,4.847 -2.577,4.441C-2.729,4.034 -2.877,3.642 -3.016,3.265C-3.119,2.994 -3.226,2.727 -3.338,2.469C-3.451,2.209 -3.559,1.955 -3.649,1.705C-3.665,1.673 -3.68,1.636 -3.691,1.586C-3.703,1.543 -3.727,1.493 -3.756,1.445C-3.843,1.204 -3.938,0.942 -4.05,0.661C-4.16,0.378 -4.278,0.163 -4.415,0.015C-4.447,-0.022 -4.478,-0.033 -4.52,-0.01C-4.56,0.015 -4.587,0.043 -4.6,0.074C-4.889,0.834 -5.176,1.586 -5.459,2.339C-5.74,3.092 -6.016,3.843 -6.293,4.604C-6.478,5.122 -6.667,5.65 -6.847,6.197C-7.032,6.736 -7.228,7.268 -7.431,7.787C-7.47,7.879 -7.521,7.978 -7.587,8.085C-7.655,8.192 -7.733,8.289 -7.822,8.377C-7.913,8.47 -8.008,8.542 -8.105,8.599C-8.201,8.659 -8.303,8.69 -8.406,8.69C-8.41,8.69 -8.433,8.687 -8.469,8.683C-8.501,8.682 -8.53,8.69 -8.546,8.715C-8.574,8.747 -8.585,8.777 -8.568,8.806C-8.563,8.822 -8.547,8.838 -8.536,8.855C-8.517,8.871 -8.509,8.877 -8.509,8.877L-6.069,8.887C-5.991,8.887 -5.949,8.861 -5.946,8.802C-5.94,8.741 -5.979,8.703 -6.056,8.69C-6.173,8.675 -6.293,8.644 -6.415,8.599C-6.538,8.557 -6.597,8.47 -6.597,8.337C-6.597,8.237 -6.564,8.057 -6.499,7.803C-6.428,7.549 -6.349,7.278 -6.255,6.99C-6.163,6.706 -6.065,6.428 -5.968,6.16C-5.871,5.889 -5.789,5.687 -5.728,5.546L-3.417,5.546C-3.236,6.039 -3.049,6.531 -2.86,7.025C-2.666,7.517 -2.475,8.01 -2.29,8.502L-2.699,8.715C-2.745,8.752 -2.757,8.787 -2.734,8.818C-2.713,8.85 -2.669,8.871 -2.604,8.877C-2.442,8.893 -2.237,8.898 -1.995,8.887C-1.754,8.882 -1.543,8.877 -1.373,8.877C-1.136,8.877 -0.907,8.88 -0.683,8.882C-0.456,8.887 -0.227,8.882 0,8.865M-3.649,4.922L-5.54,4.922C-5.366,4.43 -5.209,3.958 -5.063,3.509C-4.919,3.056 -4.772,2.587 -4.614,2.093L-3.649,4.922Z" style="fill:rgb(204,204,204);fill-rule:nonzero;"/>
                </g>
                <g transform="matrix(1,0,0,1,239.869,134.034)">
                    <path d="M0,-10.457L-0.035,-10.717C-0.396,-10.739 -0.763,-10.744 -1.13,-10.739C-1.496,-10.733 -1.858,-10.733 -2.211,-10.733L-3.313,-10.733C-3.394,-10.733 -3.445,-10.705 -3.472,-10.657C-3.501,-10.604 -3.478,-10.561 -3.418,-10.517C-3.37,-10.457 -3.298,-10.416 -3.213,-10.397C-3.125,-10.377 -3.027,-10.355 -2.914,-10.336C-2.823,-10.316 -2.731,-10.294 -2.642,-10.274C-2.55,-10.253 -2.466,-10.211 -2.389,-10.143C-2.314,-10.078 -2.249,-9.98 -2.199,-9.845C-2.146,-9.715 -2.125,-9.53 -2.125,-9.298C-2.125,-8.176 -2.102,-7.064 -2.069,-5.957C-2.031,-4.846 -2.015,-3.733 -2.015,-2.615C-2.015,-2.534 -2.015,-2.451 -2.022,-2.376C-2.027,-2.3 -2.031,-2.221 -2.031,-2.142C-4.716,-5.1 -7.471,-8.019 -10.286,-10.9C-10.368,-10.961 -10.448,-10.961 -10.53,-10.9C-10.59,-10.838 -10.643,-10.784 -10.683,-10.723C-10.726,-10.668 -10.743,-10.598 -10.743,-10.517L-10.743,-0.903C-10.743,-0.648 -10.816,-0.443 -10.962,-0.285C-11.112,-0.129 -11.304,-0.026 -11.538,0.025L-11.751,0.072C-11.843,0.094 -11.895,0.137 -11.912,0.207C-11.929,0.28 -11.89,0.326 -11.797,0.348C-11.555,0.397 -11.293,0.405 -11.018,0.369C-10.743,0.332 -10.475,0.321 -10.212,0.332L-8.271,0.376C-8.19,0.376 -8.137,0.348 -8.104,0.294C-8.073,0.236 -8.093,0.188 -8.163,0.147C-8.278,0.078 -8.385,0.022 -8.492,-0.011C-8.6,-0.048 -8.705,-0.074 -8.808,-0.096C-8.896,-0.117 -8.988,-0.145 -9.081,-0.179C-9.17,-0.216 -9.252,-0.274 -9.315,-0.356C-9.381,-0.437 -9.436,-0.549 -9.479,-0.692C-9.517,-0.833 -9.538,-1.028 -9.538,-1.271C-9.538,-1.78 -9.55,-2.284 -9.569,-2.789C-9.586,-3.291 -9.61,-3.804 -9.631,-4.324C-9.648,-4.822 -9.67,-5.32 -9.69,-5.818C-9.711,-6.316 -9.723,-6.82 -9.723,-7.328C-9.723,-7.592 -9.706,-7.874 -9.674,-8.168C-9.493,-7.965 -9.34,-7.797 -9.22,-7.664C-9.093,-7.533 -8.95,-7.366 -8.774,-7.162C-8.195,-6.519 -7.604,-5.867 -7.003,-5.201C-6.405,-4.533 -5.796,-3.87 -5.181,-3.216C-4.567,-2.56 -3.94,-1.921 -3.307,-1.302C-2.669,-0.682 -2.027,-0.096 -1.374,0.455C-1.311,0.494 -1.248,0.504 -1.182,0.484C-1.117,0.461 -1.08,0.425 -1.067,0.361C-0.938,-1.326 -0.879,-3.021 -0.895,-4.722C-0.912,-6.418 -0.915,-8.117 -0.915,-9.817C-0.915,-9.989 -0.838,-10.106 -0.682,-10.168C-0.521,-10.229 -0.363,-10.283 -0.2,-10.336C-0.17,-10.343 -0.137,-10.365 -0.099,-10.397C-0.064,-10.427 -0.035,-10.446 0,-10.457" style="fill:rgb(204,204,204);fill-rule:nonzero;"/>
                </g>
                <g transform="matrix(1,0,0,1,248.627,124.238)">
                    <path d="M0,8.865L0,8.655C-0.228,8.638 -0.442,8.583 -0.64,8.491C-0.838,8.394 -0.997,8.237 -1.105,8.01C-1.268,7.658 -1.436,7.284 -1.603,6.889C-1.771,6.493 -1.939,6.086 -2.102,5.674C-2.266,5.258 -2.427,4.847 -2.579,4.441C-2.73,4.034 -2.877,3.642 -3.018,3.265C-3.121,2.994 -3.229,2.727 -3.345,2.469C-3.452,2.209 -3.559,1.955 -3.651,1.705C-3.668,1.673 -3.681,1.636 -3.693,1.586C-3.706,1.543 -3.728,1.493 -3.76,1.445C-3.843,1.204 -3.939,0.942 -4.053,0.661C-4.159,0.378 -4.282,0.163 -4.415,0.015C-4.447,-0.022 -4.479,-0.033 -4.521,-0.01C-4.562,0.015 -4.586,0.043 -4.604,0.074C-4.893,0.834 -5.18,1.586 -5.46,2.339C-5.741,3.092 -6.018,3.843 -6.296,4.604C-6.479,5.122 -6.669,5.65 -6.852,6.197C-7.036,6.736 -7.229,7.268 -7.431,7.787C-7.471,7.879 -7.523,7.978 -7.588,8.085C-7.656,8.192 -7.734,8.289 -7.824,8.377C-7.912,8.47 -8.007,8.542 -8.105,8.599C-8.206,8.659 -8.303,8.69 -8.407,8.69C-8.411,8.69 -8.434,8.687 -8.472,8.683C-8.506,8.682 -8.53,8.69 -8.547,8.715C-8.579,8.747 -8.585,8.777 -8.57,8.806C-8.563,8.822 -8.55,8.838 -8.538,8.855C-8.521,8.871 -8.51,8.877 -8.51,8.877L-6.07,8.887C-5.991,8.887 -5.95,8.861 -5.949,8.802C-5.941,8.741 -5.981,8.703 -6.056,8.69C-6.176,8.675 -6.296,8.644 -6.415,8.599C-6.537,8.557 -6.599,8.47 -6.599,8.337C-6.599,8.237 -6.565,8.057 -6.5,7.803C-6.432,7.549 -6.35,7.278 -6.256,6.99C-6.164,6.706 -6.068,6.428 -5.97,6.16C-5.871,5.889 -5.791,5.687 -5.73,5.546L-3.419,5.546C-3.236,6.039 -3.05,6.531 -2.861,7.025C-2.669,7.517 -2.479,8.01 -2.291,8.502L-2.701,8.715C-2.747,8.752 -2.759,8.787 -2.735,8.818C-2.715,8.85 -2.67,8.871 -2.606,8.877C-2.442,8.893 -2.237,8.898 -1.996,8.887C-1.755,8.882 -1.545,8.877 -1.376,8.877C-1.138,8.877 -0.911,8.88 -0.684,8.882C-0.454,8.887 -0.228,8.882 0,8.865M-3.651,4.922L-5.541,4.922C-5.368,4.43 -5.211,3.958 -5.063,3.509C-4.922,3.056 -4.772,2.587 -4.615,2.093L-3.651,4.922Z" style="fill:rgb(204,204,204);fill-rule:nonzero;"/>
                </g>
                <g transform="matrix(1,0,0,1,255.656,126.037)">
                    <path d="M0,5.341C0,5.201 -0.01,5.065 -0.034,4.93L-0.291,4.905C-0.435,5.198 -0.574,5.453 -0.71,5.67C-0.845,5.889 -1.003,6.071 -1.184,6.217C-1.365,6.362 -1.575,6.468 -1.813,6.539C-2.053,6.608 -2.339,6.645 -2.674,6.645C-3.262,6.645 -3.802,6.526 -4.29,6.283C-4.777,6.036 -5.203,5.714 -5.562,5.307C-5.922,4.901 -6.201,4.435 -6.402,3.909C-6.601,3.384 -6.702,2.842 -6.702,2.279C-6.702,1.738 -6.616,1.246 -6.449,0.805C-6.282,0.361 -6.044,-0.012 -5.735,-0.321C-5.424,-0.629 -5.053,-0.874 -4.62,-1.043C-4.185,-1.214 -3.697,-1.301 -3.157,-1.301C-2.826,-1.301 -2.518,-1.258 -2.231,-1.174C-1.937,-1.088 -1.681,-0.959 -1.456,-0.786C-1.229,-0.613 -1.035,-0.401 -0.879,-0.147C-0.723,0.108 -0.616,0.405 -0.563,0.741C-0.547,0.803 -0.504,0.834 -0.435,0.834C-0.356,0.834 -0.308,0.803 -0.291,0.741C-0.229,0.388 -0.18,0.035 -0.139,-0.321C-0.103,-0.68 -0.075,-1.035 -0.068,-1.395C-0.068,-1.466 -0.106,-1.502 -0.187,-1.502C-0.384,-1.518 -0.582,-1.54 -0.785,-1.566C-0.992,-1.594 -1.191,-1.622 -1.398,-1.652C-1.669,-1.694 -1.949,-1.728 -2.231,-1.767C-2.513,-1.799 -2.798,-1.818 -3.087,-1.818C-3.335,-1.818 -3.617,-1.804 -3.928,-1.771C-4.233,-1.741 -4.541,-1.684 -4.847,-1.606C-5.151,-1.529 -5.442,-1.425 -5.713,-1.301C-5.991,-1.178 -6.218,-1.019 -6.396,-0.833C-6.884,-0.339 -7.255,0.225 -7.519,0.866C-7.781,1.5 -7.912,2.164 -7.912,2.854C-7.912,3.496 -7.798,4.08 -7.577,4.609C-7.354,5.136 -7.046,5.588 -6.657,5.967C-6.263,6.349 -5.794,6.645 -5.254,6.85C-4.706,7.056 -4.115,7.159 -3.476,7.159C-2.967,7.159 -2.464,7.139 -1.965,7.083C-1.467,7.036 -0.973,6.969 -0.48,6.892C-0.435,6.892 -0.396,6.872 -0.374,6.834C-0.258,6.623 -0.164,6.379 -0.097,6.103C-0.032,5.832 0,5.578 0,5.341" style="fill:rgb(204,204,204);fill-rule:nonzero;"/>
                </g>
                <g transform="matrix(1,0,0,1,259.342,124.575)">
                    <path d="M0,8.354C-0.07,8.284 -0.149,8.243 -0.235,8.231C-0.318,8.218 -0.405,8.212 -0.491,8.212C-0.531,8.212 -0.582,8.205 -0.644,8.188C-0.705,8.172 -0.758,8.157 -0.799,8.141C-0.82,8.112 -0.848,8.05 -0.873,7.96C-0.901,7.868 -0.926,7.774 -0.951,7.674C-0.972,7.571 -0.993,7.474 -1.01,7.386C-1.023,7.294 -1.03,7.231 -1.03,7.191L-1.03,0.724C-1.03,0.481 -0.967,0.322 -0.831,0.244C-0.701,0.164 -0.527,0.107 -0.316,0.067C-0.239,0.051 -0.201,0.015 -0.208,-0.045C-0.218,-0.104 -0.26,-0.137 -0.338,-0.144C-0.565,-0.16 -0.788,-0.165 -1.01,-0.157C-1.226,-0.147 -1.448,-0.144 -1.665,-0.144C-1.893,-0.144 -2.117,-0.147 -2.343,-0.153C-2.563,-0.156 -2.788,-0.147 -3.014,-0.135C-3.084,-0.126 -3.12,-0.091 -3.12,-0.029C-3.12,0.037 -3.084,0.07 -3.014,0.078C-2.813,0.102 -2.635,0.16 -2.487,0.248C-2.338,0.338 -2.265,0.503 -2.265,0.736L-2.265,7.144C-2.265,7.223 -2.272,7.317 -2.28,7.43C-2.293,7.543 -2.317,7.658 -2.352,7.766C-2.39,7.874 -2.434,7.972 -2.487,8.047C-2.541,8.126 -2.615,8.166 -2.699,8.166C-2.722,8.166 -2.786,8.177 -2.894,8.206C-2.998,8.234 -3.071,8.24 -3.112,8.227C-3.142,8.21 -3.171,8.21 -3.203,8.231C-3.235,8.25 -3.257,8.275 -3.272,8.308C-3.289,8.339 -3.297,8.367 -3.297,8.399C-3.297,8.432 -3.281,8.454 -3.252,8.47C-3.194,8.496 -3.03,8.499 -2.751,8.489C-2.471,8.474 -2.164,8.47 -1.817,8.47C-1.606,8.47 -1.399,8.473 -1.194,8.474C-0.993,8.481 -0.809,8.486 -0.644,8.496C-0.479,8.502 -0.347,8.506 -0.244,8.514C-0.145,8.515 -0.095,8.519 -0.095,8.519C-0.029,8.519 0.012,8.499 0.031,8.465C0.053,8.432 0.041,8.395 0,8.354" style="fill:rgb(204,204,204);fill-rule:nonzero;"/>
                </g>
                <g transform="matrix(1,0,0,1,268.746,128.374)">
                    <path d="M0,0.646C0,0.073 -0.092,-0.503 -0.265,-1.086C-0.441,-1.668 -0.708,-2.197 -1.067,-2.663C-1.428,-3.134 -1.882,-3.52 -2.431,-3.817C-2.978,-4.116 -3.622,-4.26 -4.356,-4.26C-4.467,-4.26 -4.582,-4.256 -4.702,-4.244C-4.824,-4.236 -4.938,-4.215 -5.045,-4.191C-5.782,-4.034 -6.412,-3.824 -6.925,-3.562C-7.443,-3.302 -7.866,-2.976 -8.191,-2.582C-8.523,-2.192 -8.762,-1.732 -8.908,-1.199C-9.06,-0.664 -9.134,-0.055 -9.134,0.635C-9.134,0.977 -9.071,1.324 -8.944,1.664C-8.821,2.01 -8.653,2.341 -8.441,2.657C-8.231,2.974 -7.981,3.271 -7.694,3.543C-7.407,3.819 -7.104,4.056 -6.784,4.253C-6.466,4.453 -6.134,4.611 -5.788,4.729C-5.441,4.85 -5.111,4.906 -4.792,4.906L-4.613,4.906C-4.537,4.906 -4.459,4.903 -4.387,4.9C-4.31,4.896 -4.24,4.893 -4.176,4.88C-4.105,4.876 -4.05,4.864 -4.005,4.86C-3.453,4.735 -2.939,4.555 -2.45,4.329C-1.969,4.104 -1.545,3.819 -1.18,3.472C-0.816,3.13 -0.528,2.724 -0.318,2.253C-0.107,1.783 0,1.247 0,0.646M-1.185,0.621C-1.185,1.114 -1.254,1.586 -1.396,2.036C-1.536,2.488 -1.742,2.877 -2.014,3.216C-2.284,3.552 -2.618,3.819 -3.016,4.02C-3.416,4.221 -3.878,4.318 -4.402,4.318C-4.96,4.318 -5.451,4.192 -5.885,3.938C-6.322,3.683 -6.687,3.354 -6.985,2.945C-7.283,2.538 -7.505,2.081 -7.66,1.571C-7.812,1.063 -7.89,0.554 -7.89,0.044C-7.89,-0.454 -7.816,-0.926 -7.673,-1.368C-7.527,-1.812 -7.315,-2.197 -7.039,-2.53C-6.759,-2.864 -6.419,-3.124 -6.015,-3.319C-5.615,-3.507 -5.148,-3.606 -4.623,-3.606C-4.072,-3.606 -3.578,-3.478 -3.151,-3.229C-2.725,-2.977 -2.365,-2.651 -2.072,-2.255C-1.779,-1.857 -1.558,-1.405 -1.41,-0.898C-1.26,-0.393 -1.185,0.113 -1.185,0.621" style="fill:rgb(204,204,204);fill-rule:nonzero;"/>
                </g>
                <g transform="matrix(1,0,0,1,278.278,132.817)">
                    <path d="M0,-8.049L-0.024,-8.247C-0.308,-8.263 -0.587,-8.267 -0.87,-8.266C-1.151,-8.26 -1.427,-8.26 -1.703,-8.26L-2.549,-8.26C-2.612,-8.26 -2.652,-8.238 -2.671,-8.201C-2.689,-8.162 -2.679,-8.125 -2.63,-8.095C-2.591,-8.049 -2.539,-8.017 -2.472,-7.999C-2.405,-7.983 -2.328,-7.967 -2.242,-7.955C-2.171,-7.937 -2.103,-7.921 -2.032,-7.908C-1.962,-7.891 -1.896,-7.86 -1.839,-7.806C-1.78,-7.756 -1.73,-7.681 -1.693,-7.577C-1.652,-7.474 -1.634,-7.333 -1.634,-7.155C-1.634,-6.295 -1.618,-5.438 -1.592,-4.585C-1.562,-3.732 -1.55,-2.876 -1.55,-2.015C-1.55,-1.951 -1.552,-1.892 -1.558,-1.831C-1.562,-1.773 -1.562,-1.712 -1.562,-1.65C-3.628,-3.926 -5.745,-6.175 -7.912,-8.387C-7.977,-8.432 -8.039,-8.432 -8.101,-8.387C-8.146,-8.341 -8.188,-8.299 -8.22,-8.254C-8.25,-8.212 -8.263,-8.157 -8.263,-8.095L-8.263,-0.7C-8.263,-0.506 -8.323,-0.346 -8.438,-0.222C-8.55,-0.104 -8.696,-0.022 -8.875,0.016L-9.036,0.053C-9.107,0.066 -9.151,0.103 -9.163,0.157C-9.173,0.211 -9.147,0.247 -9.076,0.264C-8.885,0.303 -8.688,0.308 -8.475,0.282C-8.263,0.255 -8.057,0.243 -7.854,0.253L-6.361,0.286C-6.303,0.286 -6.26,0.264 -6.234,0.222C-6.211,0.178 -6.228,0.14 -6.28,0.111C-6.368,0.057 -6.453,0.016 -6.533,-0.012C-6.617,-0.038 -6.697,-0.06 -6.773,-0.077C-6.844,-0.093 -6.916,-0.114 -6.984,-0.14C-7.057,-0.168 -7.114,-0.214 -7.168,-0.275C-7.219,-0.339 -7.258,-0.426 -7.29,-0.538C-7.32,-0.645 -7.337,-0.792 -7.337,-0.98C-7.337,-1.371 -7.346,-1.76 -7.361,-2.151C-7.374,-2.536 -7.391,-2.931 -7.405,-3.329C-7.424,-3.712 -7.439,-4.095 -7.456,-4.481C-7.468,-4.864 -7.478,-5.25 -7.478,-5.642C-7.478,-5.844 -7.467,-6.062 -7.444,-6.288C-7.303,-6.131 -7.185,-6.003 -7.09,-5.898C-6.996,-5.795 -6.883,-5.67 -6.753,-5.511C-6.305,-5.02 -5.851,-4.518 -5.387,-4.004C-4.926,-3.49 -4.46,-2.982 -3.986,-2.477C-3.514,-1.972 -3.032,-1.483 -2.543,-1.005C-2.055,-0.526 -1.558,-0.077 -1.056,0.346C-1.011,0.379 -0.962,0.383 -0.911,0.367C-0.858,0.351 -0.833,0.322 -0.821,0.276C-0.722,-1.024 -0.675,-2.328 -0.687,-3.635C-0.699,-4.941 -0.705,-6.248 -0.705,-7.556C-0.705,-7.687 -0.646,-7.778 -0.522,-7.824C-0.401,-7.871 -0.279,-7.914 -0.155,-7.955C-0.132,-7.963 -0.106,-7.979 -0.08,-7.999C-0.049,-8.024 -0.024,-8.038 0,-8.049" style="fill:rgb(204,204,204);fill-rule:nonzero;"/>
                </g>
                <g transform="matrix(1,0,0,1,287.563,124.238)">
                    <path d="M0,8.865L0,8.655C-0.227,8.638 -0.441,8.583 -0.64,8.491C-0.839,8.394 -0.997,8.237 -1.105,8.01C-1.267,7.658 -1.436,7.284 -1.604,6.889C-1.771,6.493 -1.937,6.086 -2.101,5.674C-2.268,5.258 -2.428,4.847 -2.579,4.441C-2.729,4.034 -2.876,3.642 -3.018,3.265C-3.119,2.994 -3.229,2.727 -3.341,2.469C-3.456,2.209 -3.56,1.955 -3.65,1.705C-3.666,1.673 -3.683,1.636 -3.695,1.586C-3.702,1.543 -3.726,1.493 -3.758,1.445C-3.847,1.204 -3.942,0.942 -4.053,0.661C-4.16,0.378 -4.28,0.163 -4.416,0.015C-4.448,-0.022 -4.482,-0.033 -4.522,-0.01C-4.559,0.015 -4.588,0.043 -4.604,0.074C-4.891,0.834 -5.177,1.586 -5.46,2.339C-5.742,3.092 -6.018,3.843 -6.292,4.604C-6.48,5.122 -6.667,5.65 -6.853,6.197C-7.036,6.736 -7.228,7.268 -7.432,7.787C-7.47,7.879 -7.522,7.978 -7.591,8.085C-7.659,8.192 -7.733,8.289 -7.826,8.377C-7.913,8.47 -8.012,8.542 -8.107,8.599C-8.206,8.659 -8.304,8.69 -8.406,8.69C-8.414,8.69 -8.437,8.687 -8.47,8.683C-8.505,8.682 -8.53,8.69 -8.546,8.715C-8.578,8.747 -8.585,8.777 -8.568,8.806C-8.563,8.822 -8.552,8.838 -8.535,8.855C-8.52,8.871 -8.511,8.877 -8.511,8.877L-6.07,8.887C-5.99,8.887 -5.953,8.861 -5.946,8.802C-5.941,8.741 -5.979,8.703 -6.059,8.69C-6.173,8.675 -6.292,8.644 -6.419,8.599C-6.538,8.557 -6.599,8.47 -6.599,8.337C-6.599,8.237 -6.563,8.057 -6.499,7.803C-6.432,7.549 -6.353,7.278 -6.259,6.99C-6.164,6.706 -6.065,6.428 -5.969,6.16C-5.871,5.889 -5.793,5.687 -5.731,5.546L-3.417,5.546C-3.239,6.039 -3.052,6.531 -2.859,7.025C-2.667,7.517 -2.478,8.01 -2.292,8.502L-2.703,8.715C-2.745,8.752 -2.761,8.787 -2.735,8.818C-2.713,8.85 -2.671,8.871 -2.608,8.877C-2.443,8.893 -2.239,8.898 -1.999,8.887C-1.755,8.882 -1.548,8.877 -1.376,8.877C-1.14,8.877 -0.909,8.88 -0.683,8.882C-0.456,8.887 -0.227,8.882 0,8.865M-3.65,4.922L-5.54,4.922C-5.37,4.43 -5.209,3.958 -5.065,3.509C-4.922,3.056 -4.771,2.587 -4.614,2.093L-3.65,4.922Z" style="fill:rgb(204,204,204);fill-rule:nonzero;"/>
                </g>
                <g transform="matrix(1,0,0,1,293.77,126.071)">
                    <path d="M0,5.377C0.012,5.348 0,5.322 -0.022,5.299C-0.046,5.283 -0.07,5.27 -0.097,5.269C-0.123,5.261 -0.158,5.264 -0.191,5.273C-0.227,5.28 -0.255,5.294 -0.271,5.319C-0.442,5.679 -0.688,5.968 -1.009,6.188C-1.33,6.407 -1.682,6.52 -2.063,6.52C-2.456,6.52 -2.783,6.4 -3.05,6.166C-3.319,5.929 -3.45,5.603 -3.45,5.192L-3.45,-0.772C-3.45,-0.966 -3.39,-1.122 -3.273,-1.232C-3.158,-1.34 -3.006,-1.389 -2.827,-1.373L-2.664,-1.361C-2.594,-1.352 -2.553,-1.381 -2.539,-1.447C-2.528,-1.514 -2.554,-1.558 -2.616,-1.571C-2.812,-1.633 -3.017,-1.661 -3.232,-1.649C-3.448,-1.636 -3.66,-1.632 -3.872,-1.632L-5.481,-1.632C-5.536,-1.632 -5.577,-1.616 -5.604,-1.583C-5.634,-1.552 -5.634,-1.517 -5.61,-1.476C-5.578,-1.4 -5.524,-1.349 -5.446,-1.324C-5.368,-1.303 -5.277,-1.287 -5.175,-1.278C-5.12,-1.271 -5.062,-1.259 -5.005,-1.248C-4.943,-1.237 -4.894,-1.213 -4.848,-1.18C-4.8,-1.143 -4.761,-1.085 -4.729,-1.007C-4.699,-0.929 -4.683,-0.824 -4.683,-0.69L-4.683,5.787C-4.683,5.922 -4.69,6.046 -4.712,6.166C-4.73,6.281 -4.768,6.388 -4.811,6.48C-4.858,6.574 -4.923,6.652 -5.01,6.71C-5.096,6.767 -5.21,6.803 -5.352,6.811C-5.431,6.811 -5.469,6.842 -5.476,6.908C-5.479,6.976 -5.442,7.015 -5.361,7.022C-5.149,7.038 -4.938,7.032 -4.729,7.01C-4.517,6.985 -4.301,6.973 -4.072,6.973C-3.85,6.973 -3.639,6.978 -3.429,6.985C-3.217,6.994 -3,6.994 -2.781,6.985C-2.569,6.978 -2.356,6.973 -2.145,6.973L-1.524,6.973C-1.298,6.973 -1.067,6.976 -0.84,6.978C-0.605,6.985 -0.374,6.999 -0.143,7.022C-0.123,6.815 -0.108,6.599 -0.091,6.369C-0.076,6.138 -0.055,5.879 -0.022,5.59C-0.022,5.548 -0.022,5.516 -0.017,5.483C-0.012,5.451 -0.006,5.419 0,5.377" style="fill:rgb(204,204,204);fill-rule:nonzero;"/>
                </g>
                <g transform="matrix(1,0,0,1,309.836,128.975)">
                    <path d="M0,-0.376L0,-0.941C0,-1.157 -0.013,-1.359 -0.029,-1.552C-0.061,-1.931 -0.175,-2.3 -0.366,-2.668C-0.56,-3.031 -0.802,-3.379 -1.089,-3.703C-1.383,-4.03 -1.714,-4.327 -2.091,-4.598C-2.466,-4.869 -2.855,-5.1 -3.255,-5.301C-3.658,-5.495 -4.062,-5.653 -4.465,-5.766C-4.864,-5.875 -5.243,-5.935 -5.601,-5.935C-5.856,-5.935 -6.124,-5.929 -6.408,-5.923C-6.696,-5.919 -6.969,-5.907 -7.231,-5.885C-7.521,-5.866 -7.792,-5.848 -8.057,-5.832C-8.321,-5.819 -8.591,-5.81 -8.867,-5.81C-9.091,-5.81 -9.305,-5.816 -9.515,-5.825C-9.724,-5.837 -9.939,-5.85 -10.161,-5.869C-10.333,-5.881 -10.514,-5.891 -10.697,-5.902C-10.882,-5.914 -11.063,-5.919 -11.244,-5.919C-11.308,-5.919 -11.354,-5.897 -11.391,-5.855C-11.427,-5.816 -11.429,-5.771 -11.399,-5.717C-11.37,-5.636 -11.308,-5.582 -11.215,-5.561C-11.124,-5.533 -11.018,-5.511 -10.896,-5.49C-10.823,-5.479 -10.745,-5.462 -10.667,-5.445C-10.583,-5.425 -10.508,-5.387 -10.437,-5.338C-10.368,-5.284 -10.309,-5.215 -10.263,-5.12C-10.216,-5.034 -10.193,-4.911 -10.193,-4.758L-10.193,3.679C-10.193,3.907 -10.205,4.098 -10.224,4.253C-10.242,4.411 -10.284,4.542 -10.354,4.648C-10.419,4.758 -10.514,4.848 -10.635,4.917C-10.759,4.99 -10.919,5.044 -11.124,5.084C-11.227,5.104 -11.27,5.159 -11.253,5.239C-11.24,5.321 -11.181,5.358 -11.079,5.358C-10.671,5.339 -10.263,5.341 -9.851,5.369C-9.439,5.391 -9.029,5.42 -8.622,5.452C-8.276,5.484 -7.926,5.506 -7.567,5.527C-7.213,5.547 -6.858,5.559 -6.499,5.559C-5.525,5.559 -4.638,5.44 -3.839,5.201C-3.04,4.961 -2.357,4.597 -1.787,4.106C-1.215,3.62 -0.775,3.004 -0.466,2.26C-0.155,1.518 0,0.641 0,-0.376M-1.589,0.186C-1.589,0.962 -1.708,1.637 -1.954,2.217C-2.197,2.796 -2.536,3.279 -2.969,3.658C-3.401,4.04 -3.924,4.329 -4.532,4.519C-5.143,4.714 -5.811,4.811 -6.546,4.811C-6.819,4.811 -7.129,4.785 -7.469,4.724C-7.812,4.67 -8.099,4.563 -8.33,4.4C-8.383,4.356 -8.426,4.28 -8.461,4.169C-8.499,4.057 -8.525,3.938 -8.545,3.81C-8.564,3.685 -8.581,3.555 -8.583,3.423C-8.589,3.288 -8.591,3.181 -8.591,3.098L-8.591,-4.972C-8.347,-5.051 -8.099,-5.109 -7.848,-5.138C-7.6,-5.17 -7.346,-5.185 -7.079,-5.185C-6.277,-5.185 -5.536,-5.057 -4.86,-4.802C-4.183,-4.548 -3.601,-4.191 -3.119,-3.728C-2.638,-3.264 -2.26,-2.701 -1.991,-2.039C-1.725,-1.379 -1.589,-0.638 -1.589,0.186" style="fill:rgb(204,204,204);fill-rule:nonzero;"/>
                </g>
                <g transform="matrix(1,0,0,1,319.698,128.374)">
                    <path d="M0,0.646C0,0.073 -0.088,-0.503 -0.266,-1.086C-0.437,-1.668 -0.71,-2.197 -1.067,-2.663C-1.43,-3.134 -1.882,-3.52 -2.433,-3.817C-2.978,-4.116 -3.618,-4.26 -4.354,-4.26C-4.463,-4.26 -4.578,-4.256 -4.7,-4.244C-4.824,-4.236 -4.94,-4.215 -5.047,-4.191C-5.785,-4.034 -6.409,-3.824 -6.928,-3.562C-7.441,-3.302 -7.865,-2.976 -8.195,-2.582C-8.521,-2.192 -8.762,-1.732 -8.91,-1.199C-9.061,-0.664 -9.134,-0.055 -9.134,0.635C-9.134,0.977 -9.067,1.324 -8.945,1.664C-8.821,2.01 -8.649,2.341 -8.439,2.657C-8.229,2.974 -7.98,3.271 -7.697,3.543C-7.409,3.819 -7.105,4.056 -6.788,4.253C-6.463,4.453 -6.131,4.611 -5.788,4.729C-5.443,4.85 -5.109,4.906 -4.788,4.906L-4.616,4.906C-4.533,4.906 -4.459,4.903 -4.384,4.9C-4.311,4.896 -4.242,4.893 -4.174,4.88C-4.106,4.876 -4.051,4.864 -4.002,4.86C-3.456,4.735 -2.939,4.555 -2.454,4.329C-1.97,4.104 -1.545,3.819 -1.182,3.472C-0.816,3.13 -0.528,2.724 -0.315,2.253C-0.105,1.783 0,1.247 0,0.646M-1.187,0.621C-1.187,1.114 -1.258,1.586 -1.397,2.036C-1.537,2.488 -1.744,2.877 -2.015,3.216C-2.286,3.552 -2.619,3.819 -3.02,4.02C-3.418,4.221 -3.88,4.318 -4.404,4.318C-4.957,4.318 -5.455,4.192 -5.887,3.938C-6.321,3.683 -6.688,3.354 -6.984,2.945C-7.283,2.538 -7.509,2.081 -7.659,1.571C-7.81,1.063 -7.889,0.554 -7.889,0.044C-7.889,-0.454 -7.816,-0.926 -7.673,-1.368C-7.525,-1.812 -7.318,-2.197 -7.035,-2.53C-6.759,-2.864 -6.418,-3.124 -6.018,-3.319C-5.614,-3.507 -5.15,-3.606 -4.625,-3.606C-4.067,-3.606 -3.58,-3.478 -3.151,-3.229C-2.724,-2.977 -2.367,-2.651 -2.073,-2.255C-1.779,-1.857 -1.557,-1.405 -1.408,-0.898C-1.262,-0.393 -1.187,0.113 -1.187,0.621" style="fill:rgb(204,204,204);fill-rule:nonzero;"/>
                </g>
                <g transform="matrix(1,0,0,1,150.252,142.373)">
                    <path d="M0,9.58C0,8.922 -0.113,8.307 -0.341,7.741C-0.572,7.175 -0.873,6.638 -1.247,6.135C-1.62,5.632 -2.045,5.154 -2.519,4.692C-2.996,4.239 -3.48,3.789 -3.971,3.351C-4.38,2.969 -4.782,2.593 -5.184,2.223C-5.579,1.86 -5.937,1.478 -6.25,1.088C-6.564,0.692 -6.814,0.285 -7.003,-0.135C-7.189,-0.554 -7.285,-1.003 -7.285,-1.481C-7.285,-1.934 -7.206,-2.353 -7.052,-2.729C-6.901,-3.106 -6.694,-3.43 -6.429,-3.699C-6.166,-3.978 -5.86,-4.19 -5.514,-4.333C-5.165,-4.481 -4.795,-4.554 -4.403,-4.554C-3.997,-4.554 -3.618,-4.485 -3.271,-4.349C-2.926,-4.209 -2.612,-4.015 -2.34,-3.757C-2.069,-3.5 -1.864,-3.192 -1.717,-2.823C-1.572,-2.461 -1.501,-2.05 -1.501,-1.589C-1.501,-1.462 -1.433,-1.378 -1.297,-1.346C-1.162,-1.308 -1.051,-1.335 -0.963,-1.427C-0.729,-1.772 -0.593,-2.206 -0.559,-2.729C-0.526,-3.251 -0.51,-3.757 -0.51,-4.254L-0.51,-5.237C-0.51,-5.37 -0.575,-5.452 -0.712,-5.488C-1.493,-5.728 -2.334,-5.846 -3.234,-5.846C-3.877,-5.846 -4.581,-5.755 -5.346,-5.57C-6.111,-5.385 -6.824,-5.099 -7.485,-4.703C-8.148,-4.314 -8.704,-3.815 -9.153,-3.21C-9.606,-2.608 -9.831,-1.881 -9.831,-1.043C-9.831,-0.474 -9.716,0.08 -9.486,0.622C-9.257,1.157 -8.956,1.693 -8.582,2.223C-8.208,2.755 -7.782,3.274 -7.295,3.789C-6.813,4.301 -6.324,4.812 -5.832,5.326L-5.832,5.301C-5.391,5.773 -4.956,6.244 -4.534,6.697C-4.108,7.156 -3.732,7.608 -3.399,8.058C-3.069,8.507 -2.8,8.955 -2.593,9.417C-2.395,9.872 -2.292,10.333 -2.292,10.786C-2.292,11.264 -2.396,11.692 -2.609,12.077C-2.822,12.461 -3.093,12.791 -3.423,13.065C-3.753,13.338 -4.125,13.55 -4.534,13.695C-4.939,13.842 -5.342,13.919 -5.73,13.919C-6.17,13.919 -6.597,13.842 -7.003,13.695C-7.411,13.55 -7.774,13.338 -8.099,13.065C-8.423,12.791 -8.672,12.455 -8.851,12.065C-9.029,11.672 -9.099,11.226 -9.066,10.733L-9.04,10.293C-9.04,10.224 -9.066,10.166 -9.115,10.129C-9.169,10.095 -9.234,10.075 -9.321,10.075C-9.391,10.075 -9.453,10.089 -9.512,10.114C-9.57,10.141 -9.609,10.191 -9.625,10.267C-9.659,10.413 -9.696,10.573 -9.728,10.745C-9.762,10.923 -9.799,11.106 -9.831,11.308C-9.898,11.568 -9.958,11.821 -10.009,12.077C-10.058,12.335 -10.086,12.606 -10.086,12.897C-10.086,13.375 -9.976,13.779 -9.765,14.108C-9.554,14.436 -9.289,14.697 -8.963,14.892C-8.642,15.081 -8.284,15.219 -7.894,15.305C-7.505,15.385 -7.13,15.426 -6.774,15.426C-6.044,15.426 -5.28,15.283 -4.481,15.001C-3.683,14.717 -2.952,14.319 -2.292,13.809C-1.63,13.296 -1.082,12.684 -0.647,11.967C-0.217,11.253 0,10.456 0,9.58" style="fill:white;fill-rule:nonzero;"/>
                </g>
                <g transform="matrix(1,0,0,1,160.607,142.915)">
                    <path d="M0,9.783C0.014,9.733 -0.002,9.689 -0.047,9.655C-0.095,9.624 -0.146,9.602 -0.198,9.595C-0.25,9.589 -0.302,9.593 -0.359,9.608C-0.409,9.619 -0.441,9.655 -0.455,9.706C-0.602,10.305 -0.882,10.757 -1.297,11.063C-1.711,11.373 -2.203,11.523 -2.772,11.523C-3.208,11.523 -3.661,11.43 -4.129,11.253C-4.598,11.073 -4.951,10.775 -5.188,10.364L-5.188,4.976L-4.137,4.976C-3.851,4.976 -3.556,4.985 -3.257,5.003C-2.963,5.024 -2.685,5.056 -2.438,5.105C-2.186,5.152 -2.021,5.213 -1.939,5.294C-1.873,5.347 -1.824,5.435 -1.792,5.554C-1.759,5.673 -1.722,5.793 -1.685,5.912C-1.657,5.994 -1.62,6.086 -1.577,6.195C-1.527,6.299 -1.465,6.391 -1.387,6.47C-1.306,6.541 -1.22,6.556 -1.126,6.532C-1.035,6.506 -0.992,6.454 -0.992,6.374C-0.951,5.852 -0.89,5.347 -0.812,4.856C-0.784,4.656 -0.758,4.453 -0.73,4.243C-0.704,4.039 -0.68,3.838 -0.651,3.636C-0.638,3.572 -0.665,3.519 -0.73,3.478C-0.799,3.438 -0.872,3.424 -0.951,3.438C-1.019,3.45 -1.104,3.48 -1.219,3.526C-1.329,3.572 -1.458,3.633 -1.602,3.697C-1.735,3.762 -1.869,3.82 -1.998,3.864C-2.134,3.915 -2.231,3.935 -2.297,3.935L-5.21,3.935L-5.21,-1.395C-5.102,-1.368 -5.034,-1.363 -5.001,-1.373C-4.967,-1.389 -4.898,-1.395 -4.792,-1.395L-4.376,-1.395C-4.232,-1.395 -4.095,-1.4 -3.961,-1.417C-3.842,-1.427 -3.723,-1.436 -3.604,-1.436L-3.268,-1.436C-2.726,-1.436 -2.28,-1.337 -1.931,-1.147C-1.581,-0.95 -1.381,-0.55 -1.326,0.064C-1.313,0.171 -1.24,0.222 -1.11,0.222C-0.976,0.222 -0.899,0.171 -0.872,0.064C-0.858,-0.003 -0.845,-0.056 -0.832,-0.097C-0.816,-0.138 -0.808,-0.184 -0.792,-0.235C-0.712,-0.582 -0.635,-0.943 -0.564,-1.312C-0.493,-1.686 -0.433,-2.06 -0.396,-2.434C-0.38,-2.499 -0.412,-2.55 -0.484,-2.581C-0.557,-2.615 -0.638,-2.618 -0.73,-2.592C-0.89,-2.499 -1.01,-2.451 -1.087,-2.451L-8.697,-2.451C-8.801,-2.451 -8.874,-2.413 -8.915,-2.331C-8.953,-2.252 -8.919,-2.185 -8.816,-2.134C-8.682,-2.04 -8.552,-1.966 -8.42,-1.915C-8.286,-1.859 -8.148,-1.82 -8.003,-1.796C-7.91,-1.768 -7.82,-1.74 -7.735,-1.715C-7.647,-1.686 -7.573,-1.644 -7.496,-1.585C-7.425,-1.526 -7.368,-1.443 -7.328,-1.336C-7.29,-1.226 -7.269,-1.089 -7.269,-0.916L-7.269,10.203C-7.269,10.429 -7.285,10.647 -7.31,10.853C-7.335,11.059 -7.388,11.24 -7.469,11.405C-7.547,11.56 -7.664,11.688 -7.816,11.782C-7.967,11.875 -8.167,11.929 -8.42,11.94C-8.552,11.94 -8.618,11.999 -8.628,12.113C-8.632,12.223 -8.57,12.281 -8.438,12.281C-7.961,12.336 -7.455,12.369 -6.914,12.382C-6.372,12.396 -5.822,12.401 -5.27,12.401C-4.967,12.401 -4.664,12.398 -4.355,12.388C-4.054,12.385 -3.75,12.382 -3.445,12.382L-0.932,12.382L-0.574,12.281C-0.469,12.281 -0.401,12.232 -0.376,12.141L-0.317,11.664C-0.276,11.345 -0.231,11.026 -0.19,10.717C-0.14,10.401 -0.079,10.094 0,9.783" style="fill:white;fill-rule:nonzero;"/>
                </g>
                <g transform="matrix(1,0,0,1,177.05,154.807)">
                    <path d="M0,-13.687L-0.037,-14.026C-0.514,-14.049 -0.992,-14.059 -1.467,-14.055C-1.942,-14.049 -2.41,-14.042 -2.873,-14.042L-4.299,-14.042C-4.401,-14.042 -4.473,-14.011 -4.505,-13.943C-4.538,-13.876 -4.517,-13.816 -4.435,-13.766C-4.369,-13.687 -4.283,-13.631 -4.169,-13.606C-4.056,-13.577 -3.929,-13.553 -3.785,-13.523C-3.665,-13.497 -3.546,-13.475 -3.429,-13.446C-3.309,-13.419 -3.199,-13.361 -3.099,-13.275C-3,-13.19 -2.919,-13.06 -2.852,-12.884C-2.786,-12.713 -2.753,-12.473 -2.753,-12.167C-2.753,-10.701 -2.729,-9.245 -2.685,-7.794C-2.637,-6.346 -2.616,-4.886 -2.616,-3.423C-2.616,-3.315 -2.618,-3.211 -2.625,-3.115C-2.632,-3.014 -2.634,-2.911 -2.634,-2.807C-6.118,-6.679 -9.694,-10.497 -13.35,-14.265C-13.458,-14.342 -13.56,-14.342 -13.67,-14.265C-13.748,-14.186 -13.814,-14.109 -13.868,-14.034C-13.918,-13.963 -13.946,-13.87 -13.946,-13.766L-13.946,-1.186C-13.946,-0.855 -14.044,-0.583 -14.233,-0.379C-14.424,-0.173 -14.671,-0.034 -14.974,0.029L-15.254,0.095C-15.374,0.116 -15.44,0.179 -15.462,0.27C-15.481,0.362 -15.43,0.424 -15.313,0.448C-14.996,0.516 -14.662,0.525 -14.304,0.48C-13.946,0.432 -13.597,0.418 -13.251,0.431L-10.736,0.49C-10.631,0.49 -10.558,0.456 -10.517,0.38C-10.48,0.309 -10.507,0.243 -10.6,0.189C-10.745,0.098 -10.886,0.027 -11.024,-0.019C-11.161,-0.065 -11.296,-0.103 -11.431,-0.129C-11.548,-0.156 -11.669,-0.192 -11.786,-0.237C-11.904,-0.288 -12.007,-0.363 -12.094,-0.47C-12.18,-0.573 -12.251,-0.72 -12.301,-0.907C-12.353,-1.094 -12.381,-1.349 -12.381,-1.667C-12.381,-2.33 -12.395,-2.997 -12.42,-3.653C-12.444,-4.311 -12.472,-4.98 -12.499,-5.659C-12.527,-6.31 -12.555,-6.964 -12.579,-7.615C-12.605,-8.268 -12.618,-8.928 -12.618,-9.592C-12.618,-9.938 -12.596,-10.305 -12.559,-10.692C-12.321,-10.425 -12.123,-10.203 -11.962,-10.03C-11.807,-9.857 -11.616,-9.64 -11.389,-9.372C-10.636,-8.535 -9.874,-7.681 -9.094,-6.809C-8.313,-5.936 -7.521,-5.069 -6.727,-4.215C-5.924,-3.353 -5.11,-2.52 -4.289,-1.705C-3.464,-0.893 -2.625,-0.129 -1.781,0.592C-1.703,0.646 -1.618,0.655 -1.534,0.629C-1.451,0.6 -1.399,0.551 -1.386,0.472C-1.212,-1.737 -1.135,-3.954 -1.16,-6.18C-1.18,-8.4 -1.188,-10.624 -1.188,-12.847C-1.188,-13.075 -1.085,-13.227 -0.881,-13.308C-0.676,-13.387 -0.468,-13.459 -0.256,-13.523C-0.216,-13.541 -0.172,-13.568 -0.127,-13.606C-0.08,-13.644 -0.037,-13.671 0,-13.687" style="fill:white;fill-rule:nonzero;"/>
                </g>
                <g transform="matrix(1,0,0,1,193.852,140.723)">
                    <path d="M0,14.295C-0.119,14.179 -0.255,14.096 -0.406,14.066C-0.559,14.03 -0.711,14.007 -0.854,13.994C-0.92,13.982 -1.001,13.971 -1.101,13.964C-1.199,13.96 -1.263,13.943 -1.291,13.916C-1.344,13.899 -1.394,13.822 -1.447,13.675C-1.5,13.528 -1.55,13.366 -1.587,13.187C-1.625,13.007 -1.662,12.832 -1.685,12.663C-1.711,12.502 -1.725,12.384 -1.725,12.318L-1.725,1.297C-1.725,0.886 -1.614,0.615 -1.389,0.489C-1.164,0.363 -0.879,0.268 -0.536,0.199C-0.418,0.173 -0.362,0.11 -0.369,0.011C-0.374,-0.089 -0.438,-0.147 -0.559,-0.162C-1.323,-0.214 -2.091,-0.247 -2.865,-0.258C-3.636,-0.274 -4.414,-0.279 -5.194,-0.279C-5.259,-0.279 -5.32,-0.258 -5.369,-0.221C-5.422,-0.181 -5.443,-0.134 -5.431,-0.078C-5.406,0.094 -5.295,0.199 -5.103,0.24C-4.913,0.277 -4.718,0.305 -4.518,0.318C-4.454,0.318 -4.381,0.334 -4.299,0.36C-4.103,0.413 -3.969,0.528 -3.905,0.709C-3.841,0.887 -3.805,1.09 -3.805,1.318L-3.805,5.89L-11.673,5.89L-11.673,1.297C-11.673,0.95 -11.554,0.689 -11.325,0.516C-11.094,0.346 -10.827,0.252 -10.522,0.24C-10.402,0.24 -10.34,0.182 -10.335,0.072C-10.326,-0.044 -10.382,-0.106 -10.501,-0.12C-11.266,-0.188 -12.03,-0.23 -12.788,-0.25C-13.549,-0.269 -14.317,-0.279 -15.099,-0.279C-15.19,-0.279 -15.258,-0.253 -15.306,-0.198C-15.354,-0.147 -15.356,-0.087 -15.316,-0.019C-15.264,0.112 -15.174,0.199 -15.045,0.24C-14.922,0.277 -14.768,0.305 -14.583,0.318C-14.489,0.334 -14.397,0.347 -14.294,0.372C-14.198,0.389 -14.106,0.429 -14.029,0.489C-13.947,0.548 -13.888,0.647 -13.838,0.776C-13.794,0.911 -13.772,1.09 -13.772,1.318L-13.772,12.379C-13.772,12.711 -13.778,12.977 -13.79,13.177C-13.803,13.375 -13.851,13.537 -13.93,13.655C-14.007,13.775 -14.125,13.868 -14.287,13.937C-14.444,14.002 -14.667,14.063 -14.958,14.113C-15.077,14.142 -15.134,14.201 -15.128,14.306C-15.122,14.405 -15.056,14.462 -14.938,14.474C-14.135,14.515 -13.313,14.532 -12.484,14.532C-11.678,14.532 -10.879,14.515 -10.086,14.474C-9.955,14.462 -9.895,14.393 -9.908,14.274C-9.92,14.154 -9.994,14.1 -10.126,14.113C-10.453,14.142 -10.724,14.117 -10.929,14.047C-11.131,13.971 -11.291,13.863 -11.401,13.716C-11.515,13.569 -11.591,13.381 -11.627,13.146C-11.673,12.914 -11.69,12.638 -11.69,12.318L-11.69,6.886L-3.805,6.886L-3.805,12.379C-3.805,12.511 -3.816,12.677 -3.834,12.865C-3.856,13.06 -3.895,13.251 -3.953,13.433C-4.014,13.623 -4.088,13.779 -4.182,13.916C-4.275,14.05 -4.394,14.113 -4.538,14.113C-4.618,14.113 -4.724,14.091 -4.854,14.034C-4.96,13.994 -5.05,14.024 -5.124,14.125C-5.194,14.225 -5.171,14.302 -5.052,14.354C-4.948,14.409 -4.806,14.453 -4.618,14.485C-4.434,14.516 -4.236,14.54 -4.024,14.556C-3.814,14.565 -3.613,14.574 -3.431,14.574L-0.16,14.574C-0.055,14.574 0.017,14.545 0.056,14.485C0.097,14.425 0.076,14.359 0,14.295" style="fill:white;fill-rule:nonzero;"/>
                </g>
                <g transform="matrix(1,0,0,1,209.719,147.25)">
                    <path d="M0,1.101C0,0.125 -0.148,-0.854 -0.446,-1.846C-0.744,-2.836 -1.193,-3.733 -1.804,-4.532C-2.41,-5.327 -3.177,-5.983 -4.102,-6.485C-5.025,-6.994 -6.106,-7.246 -7.35,-7.246C-7.535,-7.246 -7.732,-7.235 -7.934,-7.215C-8.137,-7.197 -8.332,-7.163 -8.517,-7.126C-9.759,-6.859 -10.819,-6.502 -11.687,-6.059C-12.561,-5.612 -13.272,-5.057 -13.827,-4.391C-14.382,-3.724 -14.787,-2.94 -15.039,-2.035C-15.288,-1.13 -15.413,-0.091 -15.413,1.08C-15.413,1.663 -15.309,2.249 -15.099,2.833C-14.886,3.422 -14.599,3.983 -14.243,4.524C-13.886,5.06 -13.466,5.565 -12.984,6.03C-12.503,6.497 -11.994,6.9 -11.453,7.237C-10.91,7.579 -10.347,7.848 -9.769,8.047C-9.186,8.245 -8.626,8.347 -8.084,8.347L-7.786,8.347C-7.653,8.347 -7.527,8.343 -7.4,8.336C-7.272,8.331 -7.154,8.321 -7.044,8.304C-6.93,8.293 -6.835,8.277 -6.758,8.268C-5.831,8.052 -4.959,7.752 -4.141,7.369C-3.323,6.984 -2.604,6.497 -1.989,5.91C-1.38,5.326 -0.891,4.633 -0.531,3.832C-0.178,3.035 0,2.124 0,1.101M-2,1.058C-2,1.898 -2.12,2.7 -2.358,3.466C-2.597,4.233 -2.943,4.898 -3.399,5.473C-3.853,6.046 -4.416,6.501 -5.092,6.839C-5.766,7.178 -6.545,7.346 -7.429,7.346C-8.367,7.346 -9.202,7.131 -9.937,6.699C-10.668,6.269 -11.283,5.705 -11.788,5.011C-12.289,4.318 -12.672,3.541 -12.925,2.676C-13.186,1.812 -13.313,0.948 -13.313,0.083C-13.313,-0.773 -13.19,-1.575 -12.947,-2.324C-12.704,-3.075 -12.346,-3.735 -11.875,-4.3C-11.409,-4.868 -10.836,-5.311 -10.152,-5.64C-9.473,-5.964 -8.688,-6.13 -7.806,-6.13C-6.867,-6.13 -6.038,-5.918 -5.321,-5.489C-4.602,-5.063 -3.99,-4.51 -3.495,-3.835C-3.003,-3.152 -2.63,-2.384 -2.378,-1.526C-2.125,-0.668 -2,0.193 -2,1.058" style="fill:white;fill-rule:nonzero;"/>
                </g>
                <g transform="matrix(1,0,0,1,225.012,141.022)">
                    <path d="M0,14.233L-0.12,13.892C-0.619,13.974 -1.115,13.885 -1.603,13.629C-2.091,13.37 -2.572,13.014 -3.039,12.566C-3.51,12.122 -3.959,11.616 -4.389,11.05C-4.814,10.487 -5.229,9.934 -5.627,9.402C-5.863,9.084 -6.099,8.763 -6.33,8.445C-6.56,8.126 -6.781,7.854 -6.993,7.628C-6.699,7.345 -6.421,7.035 -6.151,6.699C-5.879,6.359 -5.639,5.997 -5.428,5.612C-5.217,5.222 -5.045,4.825 -4.91,4.42C-4.78,4.017 -4.713,3.606 -4.713,3.196C-4.713,3.102 -4.716,3.002 -4.723,2.893C-4.729,2.789 -4.746,2.703 -4.771,2.635C-4.932,1.969 -5.177,1.435 -5.508,1.03C-5.839,0.623 -6.228,0.309 -6.683,0.09C-7.142,-0.13 -7.635,-0.274 -8.174,-0.352C-8.704,-0.421 -9.251,-0.461 -9.808,-0.461L-10.853,-0.461C-10.973,-0.461 -11.089,-0.453 -11.199,-0.45C-11.314,-0.443 -11.428,-0.437 -11.548,-0.437C-11.759,-0.437 -11.964,-0.437 -12.164,-0.428C-12.358,-0.421 -12.572,-0.428 -12.799,-0.437L-14.462,-0.437C-14.554,-0.437 -14.619,-0.416 -14.659,-0.369C-14.7,-0.324 -14.7,-0.264 -14.659,-0.199C-14.619,-0.068 -14.535,0.019 -14.401,0.061C-14.269,0.098 -14.108,0.126 -13.924,0.141C-13.832,0.153 -13.741,0.169 -13.649,0.19C-13.557,0.209 -13.471,0.249 -13.393,0.309C-13.313,0.368 -13.245,0.466 -13.193,0.6C-13.141,0.731 -13.112,0.91 -13.112,1.137L-13.112,12.199C-13.112,12.516 -13.12,12.781 -13.135,12.99C-13.145,13.194 -13.188,13.356 -13.265,13.476C-13.335,13.596 -13.45,13.687 -13.61,13.759C-13.768,13.823 -13.993,13.882 -14.282,13.936C-14.417,13.963 -14.478,14.022 -14.47,14.126C-14.463,14.224 -14.396,14.28 -14.26,14.295C-13.457,14.336 -12.651,14.352 -11.845,14.352L-9.429,14.352C-9.325,14.352 -9.251,14.32 -9.213,14.256C-9.17,14.188 -9.192,14.122 -9.272,14.054C-9.389,13.948 -9.524,13.882 -9.677,13.855C-9.827,13.828 -9.977,13.808 -10.124,13.796C-10.188,13.782 -10.277,13.768 -10.389,13.759C-10.503,13.743 -10.591,13.722 -10.658,13.695C-10.698,13.67 -10.734,13.582 -10.778,13.435C-10.815,13.289 -10.853,13.128 -10.895,12.946C-10.935,12.767 -10.964,12.599 -10.983,12.436C-11.005,12.279 -11.014,12.167 -11.014,12.096L-11.014,8.384C-10.908,8.373 -10.795,8.364 -10.677,8.364L-10.321,8.364C-10.042,8.364 -9.729,8.389 -9.38,8.445C-9.029,8.499 -8.735,8.631 -8.499,8.845C-8.183,9.125 -7.874,9.468 -7.577,9.876C-7.28,10.277 -6.98,10.694 -6.677,11.12C-6.372,11.559 -6.059,11.992 -5.734,12.419C-5.412,12.841 -5.062,13.227 -4.684,13.566C-4.309,13.902 -3.898,14.179 -3.455,14.384C-3.014,14.591 -2.515,14.694 -1.959,14.694C-1.617,14.694 -1.28,14.653 -0.951,14.575C-0.619,14.496 -0.302,14.38 0,14.233M-6.873,4.215C-6.873,4.452 -6.89,4.697 -6.923,4.952C-6.955,5.206 -7.013,5.45 -7.091,5.69C-7.171,5.932 -7.272,6.154 -7.4,6.359C-7.523,6.566 -7.68,6.742 -7.865,6.887C-8.048,7.034 -8.287,7.122 -8.577,7.148C-8.865,7.175 -9.124,7.187 -9.348,7.187C-9.916,7.187 -10.464,7.148 -10.993,7.067L-10.993,0.499C-10.639,0.38 -10.269,0.32 -9.885,0.32C-9.38,0.32 -8.942,0.434 -8.568,0.668C-8.189,0.901 -7.877,1.203 -7.627,1.566C-7.376,1.933 -7.187,2.348 -7.062,2.814C-6.936,3.281 -6.873,3.748 -6.873,4.215" style="fill:white;fill-rule:nonzero;"/>
                </g>
                <g transform="matrix(1,0,0,1,234.886,161.6)">
                    <path d="M0,-24.119L-0.026,-24.558C-0.812,-24.591 -1.604,-24.621 -2.399,-24.645C-3.196,-24.672 -3.985,-24.683 -4.775,-24.683L-5.979,-24.683C-6.119,-24.683 -6.209,-24.645 -6.251,-24.569C-6.293,-24.493 -6.289,-24.412 -6.236,-24.326C-6.119,-24.137 -5.969,-24.022 -5.788,-23.979C-5.608,-23.934 -5.406,-23.913 -5.185,-23.913C-5.064,-23.913 -4.949,-23.906 -4.838,-23.889C-4.728,-23.871 -4.628,-23.822 -4.545,-23.736C-4.46,-23.649 -4.387,-23.522 -4.325,-23.35C-4.267,-23.177 -4.236,-22.939 -4.236,-22.631L-4.236,-7.642C-4.236,-7.332 -4.262,-6.947 -4.311,-6.485C-4.363,-6.025 -4.436,-5.544 -4.529,-5.049C-4.627,-4.551 -4.739,-4.078 -4.877,-3.637C-5.016,-3.192 -5.159,-2.835 -5.313,-2.557C-5.417,-2.423 -5.568,-2.226 -5.773,-1.98C-5.979,-1.737 -6.185,-1.496 -6.391,-1.275C-6.684,-0.949 -6.952,-0.655 -7.199,-0.387C-7.447,-0.126 -7.587,0.079 -7.624,0.215C-7.674,0.318 -7.654,0.404 -7.559,0.484C-7.464,0.561 -7.357,0.564 -7.237,0.499C-6.468,0.12 -5.735,-0.331 -5.043,-0.864C-4.35,-1.394 -3.743,-1.999 -3.223,-2.671C-2.697,-3.349 -2.286,-4.078 -1.979,-4.87C-1.669,-5.655 -1.513,-6.494 -1.513,-7.384L-1.513,-22.657C-1.513,-23.189 -1.374,-23.543 -1.09,-23.723C-0.808,-23.902 -0.444,-24.034 0,-24.119" style="fill:white;fill-rule:nonzero;"/>
                </g>
                <g transform="matrix(1,0,0,1,244.794,143.19)">
                    <path d="M0,9.791C0.016,9.738 -0.001,9.694 -0.051,9.662C-0.096,9.628 -0.146,9.606 -0.196,9.603C-0.252,9.595 -0.305,9.596 -0.358,9.61C-0.412,9.624 -0.446,9.656 -0.458,9.71C-0.604,10.312 -0.887,10.761 -1.309,11.069C-1.725,11.372 -2.223,11.526 -2.795,11.526C-3.233,11.526 -3.69,11.438 -4.163,11.26C-4.633,11.077 -4.989,10.783 -5.229,10.372L-5.229,4.979L-4.173,4.979C-3.881,4.979 -3.582,4.986 -3.283,5.008C-2.983,5.03 -2.708,5.063 -2.453,5.108C-2.202,5.154 -2.037,5.221 -1.958,5.299C-1.891,5.349 -1.837,5.437 -1.806,5.556C-1.773,5.679 -1.737,5.8 -1.697,5.92C-1.671,5.998 -1.633,6.088 -1.586,6.195C-1.541,6.303 -1.475,6.395 -1.396,6.476C-1.318,6.54 -1.23,6.562 -1.137,6.536C-1.045,6.508 -0.997,6.456 -0.997,6.376C-0.959,5.857 -0.897,5.349 -0.817,4.856C-0.793,4.66 -0.767,4.456 -0.737,4.25C-0.713,4.044 -0.685,3.838 -0.657,3.642C-0.646,3.574 -0.672,3.521 -0.737,3.48C-0.804,3.443 -0.876,3.426 -0.959,3.443C-1.025,3.454 -1.113,3.483 -1.228,3.529C-1.34,3.579 -1.471,3.633 -1.616,3.701C-1.751,3.769 -1.882,3.822 -2.017,3.871C-2.148,3.917 -2.249,3.941 -2.314,3.941L-5.251,3.941L-5.251,-1.389C-5.142,-1.364 -5.071,-1.355 -5.039,-1.371C-5.006,-1.382 -4.936,-1.389 -4.831,-1.389L-4.41,-1.389C-4.265,-1.389 -4.123,-1.397 -3.994,-1.41C-3.872,-1.423 -3.754,-1.43 -3.63,-1.43L-3.294,-1.43C-2.749,-1.43 -2.299,-1.334 -1.948,-1.139C-1.594,-0.949 -1.388,-0.542 -1.339,0.068C-1.324,0.172 -1.251,0.225 -1.12,0.225C-0.98,0.225 -0.903,0.172 -0.876,0.068C-0.864,0.001 -0.852,-0.053 -0.836,-0.093C-0.825,-0.132 -0.811,-0.18 -0.799,-0.236C-0.717,-0.579 -0.642,-0.94 -0.568,-1.311C-0.494,-1.684 -0.437,-2.055 -0.396,-2.426C-0.388,-2.493 -0.414,-2.545 -0.49,-2.58C-0.559,-2.612 -0.646,-2.615 -0.737,-2.587C-0.897,-2.493 -1.019,-2.451 -1.097,-2.451L-8.765,-2.451C-8.868,-2.451 -8.943,-2.41 -8.982,-2.331C-9.021,-2.25 -8.989,-2.184 -8.885,-2.131C-8.749,-2.034 -8.618,-1.961 -8.483,-1.907C-8.352,-1.858 -8.214,-1.816 -8.065,-1.789C-7.973,-1.762 -7.883,-1.734 -7.796,-1.711C-7.708,-1.684 -7.628,-1.64 -7.557,-1.581C-7.481,-1.52 -7.43,-1.438 -7.384,-1.328C-7.346,-1.226 -7.325,-1.084 -7.325,-0.912L-7.325,10.209C-7.325,10.436 -7.342,10.652 -7.366,10.857C-7.392,11.065 -7.446,11.248 -7.524,11.405C-7.606,11.566 -7.724,11.691 -7.877,11.788C-8.029,11.879 -8.231,11.933 -8.483,11.946C-8.618,11.946 -8.688,12.002 -8.695,12.113C-8.7,12.229 -8.636,12.286 -8.506,12.286C-8.023,12.336 -7.514,12.372 -6.968,12.385C-6.421,12.398 -5.869,12.406 -5.31,12.406C-5.005,12.406 -4.697,12.402 -4.392,12.395C-4.086,12.39 -3.779,12.385 -3.475,12.385L-0.939,12.385L-0.58,12.286C-0.475,12.286 -0.404,12.24 -0.379,12.147L-0.317,11.665C-0.28,11.344 -0.235,11.033 -0.19,10.719C-0.143,10.405 -0.078,10.094 0,9.791" style="fill:white;fill-rule:nonzero;"/>
                </g>
                <g transform="matrix(1,0,0,1,253.601,144.654)">
                    <path d="M0,6.967C0,6.49 -0.091,6.045 -0.272,5.63C-0.451,5.219 -0.687,4.829 -0.979,4.464C-1.273,4.097 -1.605,3.748 -1.979,3.415C-2.35,3.085 -2.732,2.756 -3.115,2.437C-3.437,2.157 -3.75,1.885 -4.063,1.617C-4.378,1.353 -4.656,1.073 -4.902,0.788C-5.148,0.503 -5.345,0.21 -5.49,-0.1C-5.638,-0.404 -5.711,-0.733 -5.711,-1.074C-5.711,-1.412 -5.651,-1.714 -5.532,-1.985C-5.412,-2.258 -5.25,-2.495 -5.044,-2.695C-4.835,-2.893 -4.593,-3.046 -4.325,-3.156C-4.051,-3.256 -3.762,-3.312 -3.454,-3.312C-3.137,-3.312 -2.84,-3.264 -2.565,-3.162C-2.294,-3.061 -2.05,-2.923 -1.836,-2.731C-1.626,-2.547 -1.462,-2.321 -1.351,-2.054C-1.236,-1.791 -1.181,-1.49 -1.181,-1.156C-1.181,-1.065 -1.125,-1.006 -1.021,-0.976C-0.913,-0.951 -0.824,-0.972 -0.761,-1.038C-0.572,-1.292 -0.468,-1.606 -0.441,-1.985C-0.413,-2.364 -0.4,-2.731 -0.4,-3.096L-0.4,-3.811C-0.4,-3.906 -0.453,-3.968 -0.56,-3.991C-1.173,-4.166 -1.832,-4.252 -2.537,-4.252C-3.042,-4.252 -3.596,-4.184 -4.194,-4.051C-4.793,-3.918 -5.354,-3.708 -5.869,-3.423C-6.392,-3.136 -6.827,-2.775 -7.179,-2.335C-7.531,-1.895 -7.709,-1.371 -7.709,-0.755C-7.709,-0.345 -7.617,0.058 -7.437,0.451C-7.261,0.842 -7.021,1.234 -6.729,1.617C-6.437,2.004 -6.099,2.382 -5.722,2.756C-5.343,3.128 -4.959,3.502 -4.573,3.875L-4.573,3.854C-4.227,4.2 -3.889,4.542 -3.555,4.872C-3.223,5.205 -2.927,5.534 -2.666,5.86C-2.407,6.189 -2.194,6.515 -2.039,6.848C-1.877,7.182 -1.8,7.514 -1.8,7.848C-1.8,8.193 -1.882,8.505 -2.05,8.786C-2.214,9.065 -2.429,9.304 -2.688,9.501C-2.948,9.703 -3.235,9.855 -3.555,9.964C-3.874,10.071 -4.189,10.122 -4.492,10.122C-4.839,10.122 -5.174,10.071 -5.49,9.964C-5.811,9.855 -6.098,9.703 -6.35,9.501C-6.604,9.304 -6.799,9.062 -6.939,8.778C-7.077,8.489 -7.135,8.164 -7.107,7.808L-7.09,7.488C-7.09,7.435 -7.107,7.396 -7.148,7.37C-7.189,7.341 -7.243,7.329 -7.31,7.329C-7.363,7.329 -7.412,7.336 -7.462,7.36C-7.504,7.378 -7.536,7.414 -7.548,7.466C-7.572,7.574 -7.601,7.692 -7.627,7.818C-7.656,7.944 -7.684,8.081 -7.709,8.228C-7.762,8.415 -7.807,8.598 -7.849,8.786C-7.888,8.972 -7.906,9.172 -7.906,9.383C-7.906,9.731 -7.824,10.024 -7.658,10.26C-7.491,10.503 -7.28,10.695 -7.028,10.832C-6.777,10.971 -6.496,11.07 -6.188,11.131C-5.885,11.192 -5.591,11.219 -5.312,11.219C-4.74,11.219 -4.14,11.115 -3.517,10.91C-2.889,10.704 -2.317,10.415 -1.8,10.043C-1.279,9.67 -0.85,9.226 -0.511,8.706C-0.17,8.186 0,7.607 0,6.967" style="fill:white;fill-rule:nonzero;"/>
                </g>
                <g transform="matrix(1,0,0,1,268.991,155.445)">
                    <path d="M0,-14.265L-0.019,-14.621C-0.736,-14.676 -1.45,-14.693 -2.155,-14.672C-2.859,-14.65 -3.576,-14.644 -4.292,-14.644C-4.359,-14.644 -4.421,-14.627 -4.471,-14.592C-4.523,-14.556 -4.544,-14.514 -4.534,-14.463C-4.506,-14.317 -4.392,-14.223 -4.191,-14.174C-3.992,-14.128 -3.799,-14.098 -3.613,-14.084C-3.531,-14.071 -3.472,-14.067 -3.434,-14.075C-3.394,-14.08 -3.354,-14.075 -3.313,-14.063C-3.142,-13.997 -3.027,-13.869 -2.973,-13.684C-2.921,-13.495 -2.894,-13.299 -2.894,-13.083L-2.894,-12.067C-2.894,-11.709 -2.893,-11.346 -2.885,-10.976C-2.876,-10.613 -2.876,-10.251 -2.876,-9.891L-2.876,-8.894C-2.859,-8.188 -2.855,-7.49 -2.855,-6.795L-2.855,-4.679C-2.855,-4.082 -2.956,-3.536 -3.162,-3.041C-3.369,-2.549 -3.655,-2.133 -4.024,-1.786C-4.386,-1.44 -4.819,-1.169 -5.318,-0.977C-5.82,-0.784 -6.354,-0.688 -6.927,-0.688C-7.502,-0.688 -8.029,-0.779 -8.516,-0.969C-9.001,-1.153 -9.42,-1.417 -9.771,-1.764C-10.124,-2.112 -10.401,-2.523 -10.601,-3.005C-10.799,-3.483 -10.9,-4.023 -10.9,-4.618C-10.9,-5.339 -10.901,-6.05 -10.91,-6.758C-10.917,-7.462 -10.915,-8.174 -10.9,-8.894C-10.886,-9.614 -10.88,-10.322 -10.88,-11.03L-10.88,-13.166C-10.88,-13.565 -10.778,-13.832 -10.571,-13.965C-10.362,-14.098 -10.083,-14.183 -9.721,-14.223C-9.589,-14.238 -9.523,-14.297 -9.523,-14.404C-9.523,-14.508 -9.589,-14.569 -9.721,-14.585C-10.387,-14.649 -11.047,-14.661 -11.699,-14.612C-12.35,-14.566 -13.005,-14.556 -13.655,-14.585L-14.412,-14.601C-14.481,-14.601 -14.54,-14.585 -14.592,-14.553C-14.646,-14.519 -14.667,-14.476 -14.653,-14.422C-14.627,-14.277 -14.516,-14.179 -14.314,-14.124C-14.114,-14.071 -13.923,-14.038 -13.736,-14.025C-13.655,-14.01 -13.594,-14.006 -13.556,-14.013C-13.516,-14.023 -13.474,-14.016 -13.438,-14.006C-13.264,-13.938 -13.151,-13.811 -13.096,-13.625C-13.042,-13.436 -13.017,-13.24 -13.017,-13.025L-13.017,-5.1C-13.017,-5.046 -13.007,-4.954 -12.988,-4.829C-12.967,-4.705 -12.946,-4.569 -12.93,-4.417C-12.906,-4.276 -12.885,-4.137 -12.857,-4.001C-12.831,-3.869 -12.802,-3.775 -12.778,-3.72C-12.55,-3.125 -12.245,-2.565 -11.86,-2.059C-11.473,-1.543 -11.028,-1.105 -10.521,-0.736C-10.014,-0.372 -9.46,-0.086 -8.854,0.12C-8.248,0.325 -7.614,0.428 -6.947,0.428C-6.069,0.428 -5.274,0.271 -4.573,-0.046C-3.867,-0.369 -3.267,-0.799 -2.765,-1.347C-2.264,-1.892 -1.885,-2.531 -1.615,-3.261C-1.35,-3.996 -1.219,-4.784 -1.219,-5.619L-1.219,-13.166C-1.219,-13.55 -1.099,-13.815 -0.864,-13.965C-0.633,-14.113 -0.347,-14.212 0,-14.265" style="fill:white;fill-rule:nonzero;"/>
                </g>
                <g transform="matrix(1,0,0,1,277.896,144.654)">
                    <path d="M0,6.967C0,6.49 -0.091,6.045 -0.272,5.63C-0.451,5.219 -0.687,4.829 -0.979,4.464C-1.271,4.097 -1.604,3.748 -1.979,3.415C-2.353,3.085 -2.732,2.756 -3.115,2.437C-3.437,2.157 -3.75,1.885 -4.062,1.617C-4.377,1.353 -4.656,1.073 -4.901,0.788C-5.149,0.503 -5.346,0.21 -5.493,-0.1C-5.638,-0.404 -5.71,-0.733 -5.71,-1.074C-5.71,-1.412 -5.651,-1.714 -5.531,-1.985C-5.411,-2.258 -5.249,-2.495 -5.045,-2.695C-4.835,-2.893 -4.597,-3.046 -4.322,-3.156C-4.051,-3.256 -3.761,-3.312 -3.456,-3.312C-3.137,-3.312 -2.839,-3.264 -2.566,-3.162C-2.292,-3.061 -2.049,-2.923 -1.837,-2.731C-1.625,-2.547 -1.462,-2.321 -1.349,-2.054C-1.236,-1.791 -1.18,-1.49 -1.18,-1.156C-1.18,-1.065 -1.123,-1.006 -1.019,-0.976C-0.911,-0.951 -0.823,-0.972 -0.759,-1.038C-0.572,-1.292 -0.468,-1.606 -0.439,-1.985C-0.412,-2.364 -0.402,-2.731 -0.402,-3.096L-0.402,-3.811C-0.402,-3.906 -0.453,-3.968 -0.56,-3.991C-1.17,-4.166 -1.83,-4.252 -2.534,-4.252C-3.042,-4.252 -3.593,-4.184 -4.192,-4.051C-4.791,-3.918 -5.353,-3.708 -5.873,-3.423C-6.391,-3.136 -6.826,-2.775 -7.176,-2.335C-7.53,-1.895 -7.707,-1.371 -7.707,-0.755C-7.707,-0.345 -7.616,0.058 -7.436,0.451C-7.26,0.842 -7.021,1.234 -6.728,1.617C-6.436,2.004 -6.1,2.382 -5.721,2.756C-5.341,3.128 -4.956,3.502 -4.571,3.875L-4.571,3.854C-4.225,4.2 -3.889,4.542 -3.556,4.872C-3.223,5.205 -2.927,5.534 -2.667,5.86C-2.405,6.189 -2.197,6.515 -2.037,6.848C-1.877,7.182 -1.798,7.514 -1.798,7.848C-1.798,8.193 -1.879,8.505 -2.049,8.786C-2.214,9.065 -2.428,9.304 -2.687,9.501C-2.946,9.703 -3.233,9.855 -3.556,9.964C-3.873,10.071 -4.188,10.122 -4.49,10.122C-4.838,10.122 -5.174,10.071 -5.493,9.964C-5.81,9.855 -6.095,9.703 -6.349,9.501C-6.603,9.304 -6.797,9.062 -6.938,8.778C-7.079,8.489 -7.134,8.164 -7.107,7.808L-7.086,7.488C-7.086,7.435 -7.107,7.396 -7.147,7.37C-7.189,7.341 -7.243,7.329 -7.307,7.329C-7.362,7.329 -7.41,7.336 -7.458,7.36C-7.502,7.378 -7.535,7.414 -7.547,7.466C-7.572,7.574 -7.6,7.692 -7.626,7.818C-7.653,7.944 -7.681,8.081 -7.707,8.228C-7.762,8.415 -7.806,8.598 -7.847,8.786C-7.885,8.972 -7.909,9.172 -7.909,9.383C-7.909,9.731 -7.821,10.024 -7.657,10.26C-7.49,10.503 -7.279,10.695 -7.028,10.832C-6.777,10.971 -6.494,11.07 -6.193,11.131C-5.883,11.192 -5.59,11.219 -5.312,11.219C-4.739,11.219 -4.139,11.115 -3.516,10.91C-2.887,10.704 -2.315,10.415 -1.798,10.043C-1.279,9.67 -0.851,9.226 -0.509,8.706C-0.169,8.186 0,7.607 0,6.967" style="fill:white;fill-rule:nonzero;"/>
                </g>
                <g transform="matrix(1,0,0,1,301.109,140.907)">
                    <path d="M0,12.512C0,12.183 -0.023,11.863 -0.076,11.554L-0.639,11.496C-0.948,12.175 -1.251,12.771 -1.553,13.286C-1.854,13.797 -2.2,14.225 -2.591,14.562C-2.984,14.903 -3.441,15.157 -3.965,15.319C-4.484,15.487 -5.116,15.569 -5.85,15.569C-7.135,15.569 -8.313,15.283 -9.382,14.715C-10.448,14.146 -11.38,13.385 -12.165,12.433C-12.952,11.48 -13.565,10.388 -14.002,9.161C-14.438,7.932 -14.655,6.656 -14.655,5.337C-14.655,4.068 -14.472,2.919 -14.104,1.883C-13.735,0.846 -13.217,-0.031 -12.537,-0.756C-11.861,-1.482 -11.049,-2.045 -10.097,-2.446C-9.147,-2.853 -8.086,-3.052 -6.906,-3.052C-6.184,-3.052 -5.509,-2.953 -4.874,-2.752C-4.24,-2.549 -3.677,-2.246 -3.183,-1.842C-2.686,-1.439 -2.265,-0.94 -1.922,-0.346C-1.582,0.252 -1.347,0.945 -1.229,1.732C-1.196,1.879 -1.103,1.952 -0.948,1.952C-0.776,1.952 -0.673,1.879 -0.639,1.732C-0.504,0.906 -0.394,0.077 -0.308,-0.756C-0.221,-1.59 -0.171,-2.431 -0.152,-3.275C-0.152,-3.438 -0.237,-3.523 -0.409,-3.523C-0.836,-3.557 -1.272,-3.608 -1.718,-3.67C-2.163,-3.735 -2.607,-3.806 -3.057,-3.876C-3.649,-3.969 -4.26,-4.054 -4.874,-4.139C-5.492,-4.222 -6.114,-4.263 -6.748,-4.263C-7.295,-4.263 -7.908,-4.229 -8.585,-4.152C-9.262,-4.08 -9.933,-3.952 -10.6,-3.768C-11.267,-3.584 -11.898,-3.345 -12.5,-3.052C-13.097,-2.76 -13.595,-2.393 -13.991,-1.954C-15.048,-0.798 -15.867,0.528 -16.438,2.022C-17.012,3.517 -17.3,5.071 -17.3,6.683C-17.3,8.188 -17.057,9.557 -16.566,10.796C-16.081,12.031 -15.409,13.098 -14.553,13.986C-13.699,14.873 -12.674,15.564 -11.485,16.05C-10.296,16.534 -9.002,16.775 -7.595,16.775C-6.482,16.775 -5.383,16.716 -4.297,16.599C-3.212,16.479 -2.129,16.326 -1.052,16.147C-0.948,16.147 -0.873,16.097 -0.82,16.005C-0.562,15.513 -0.364,14.945 -0.216,14.301C-0.068,13.662 0,13.067 0,12.512" style="fill:white;fill-rule:nonzero;"/>
                </g>
                <g transform="matrix(1,0,0,1,317.679,140.117)">
                    <path d="M0,14.235L-0.119,13.896C-0.626,13.974 -1.126,13.887 -1.618,13.629C-2.109,13.369 -2.591,13.016 -3.066,12.57C-3.537,12.123 -3.989,11.618 -4.423,11.05C-4.854,10.486 -5.271,9.937 -5.671,9.403C-5.91,9.084 -6.148,8.763 -6.382,8.445C-6.613,8.124 -6.835,7.854 -7.047,7.625C-6.755,7.347 -6.472,7.038 -6.201,6.701C-5.926,6.359 -5.684,5.997 -5.473,5.61C-5.26,5.225 -5.086,4.828 -4.951,4.421C-4.818,4.019 -4.753,3.607 -4.753,3.195C-4.753,3.103 -4.756,3.001 -4.761,2.895C-4.769,2.79 -4.786,2.704 -4.812,2.638C-4.975,1.973 -5.217,1.435 -5.552,1.03C-5.883,0.622 -6.277,0.309 -6.739,0.091C-7.197,-0.13 -7.698,-0.276 -8.235,-0.348C-8.775,-0.423 -9.325,-0.461 -9.884,-0.461L-10.942,-0.461C-11.062,-0.461 -11.178,-0.456 -11.291,-0.449C-11.401,-0.444 -11.521,-0.438 -11.641,-0.438C-11.851,-0.438 -12.058,-0.435 -12.258,-0.429C-12.457,-0.423 -12.674,-0.424 -12.897,-0.438L-14.575,-0.438C-14.67,-0.438 -14.733,-0.415 -14.776,-0.369C-14.814,-0.321 -14.814,-0.266 -14.776,-0.201C-14.733,-0.065 -14.646,0.022 -14.517,0.059C-14.381,0.1 -14.225,0.128 -14.034,0.141C-13.941,0.152 -13.852,0.17 -13.758,0.19C-13.663,0.212 -13.576,0.248 -13.499,0.309C-13.417,0.368 -13.353,0.467 -13.296,0.602C-13.244,0.731 -13.217,0.91 -13.217,1.136L-13.217,12.198C-13.217,12.516 -13.222,12.783 -13.237,12.989C-13.249,13.194 -13.291,13.356 -13.368,13.476C-13.439,13.595 -13.558,13.689 -13.715,13.759C-13.877,13.824 -14.103,13.882 -14.398,13.935C-14.527,13.964 -14.592,14.025 -14.583,14.125C-14.58,14.227 -14.509,14.282 -14.375,14.293C-13.563,14.339 -12.751,14.355 -11.938,14.355L-9.504,14.355C-9.398,14.355 -9.325,14.321 -9.284,14.256C-9.243,14.19 -9.262,14.124 -9.344,14.055C-9.464,13.951 -9.6,13.882 -9.756,13.856C-9.908,13.829 -10.056,13.808 -10.202,13.797C-10.271,13.784 -10.36,13.767 -10.472,13.759C-10.585,13.741 -10.677,13.725 -10.741,13.698C-10.781,13.672 -10.822,13.584 -10.859,13.437C-10.901,13.293 -10.942,13.13 -10.979,12.948C-11.022,12.767 -11.049,12.6 -11.073,12.439C-11.09,12.279 -11.103,12.166 -11.103,12.1L-11.103,8.384C-10.994,8.375 -10.883,8.366 -10.762,8.366L-10.402,8.366C-10.124,8.366 -9.808,8.391 -9.452,8.445C-9.1,8.5 -8.806,8.633 -8.564,8.844C-8.244,9.126 -7.936,9.467 -7.638,9.876C-7.337,10.281 -7.037,10.696 -6.728,11.12C-6.423,11.557 -6.106,11.992 -5.78,12.422C-5.457,12.845 -5.103,13.226 -4.724,13.568C-4.345,13.906 -3.93,14.179 -3.484,14.384C-3.039,14.591 -2.536,14.696 -1.979,14.696C-1.632,14.696 -1.291,14.657 -0.958,14.576C-0.626,14.495 -0.308,14.381 0,14.235M-6.929,4.215C-6.929,4.454 -6.946,4.7 -6.979,4.952C-7.012,5.205 -7.069,5.451 -7.147,5.693C-7.226,5.932 -7.328,6.154 -7.459,6.359C-7.584,6.564 -7.74,6.743 -7.929,6.888C-8.114,7.036 -8.354,7.125 -8.645,7.151C-8.938,7.176 -9.196,7.187 -9.427,7.187C-9.995,7.187 -10.55,7.151 -11.081,7.068L-11.081,0.499C-10.719,0.379 -10.35,0.321 -9.962,0.321C-9.456,0.321 -9.016,0.437 -8.635,0.668C-8.255,0.903 -7.941,1.203 -7.687,1.57C-7.435,1.934 -7.246,2.352 -7.118,2.816C-6.993,3.283 -6.929,3.75 -6.929,4.215" style="fill:white;fill-rule:nonzero;"/>
                </g>
                <g transform="matrix(1,0,0,1,322.948,139.889)">
                    <path d="M0,14.203C-0.119,14.085 -0.253,14.013 -0.4,13.996C-0.544,13.974 -0.691,13.965 -0.84,13.965C-0.904,13.965 -0.992,13.954 -1.097,13.927C-1.203,13.9 -1.289,13.873 -1.357,13.846C-1.397,13.792 -1.441,13.688 -1.487,13.538C-1.533,13.382 -1.576,13.222 -1.619,13.045C-1.659,12.873 -1.692,12.712 -1.718,12.557C-1.745,12.405 -1.755,12.296 -1.755,12.23L-1.755,1.226C-1.755,0.814 -1.641,0.543 -1.417,0.408C-1.191,0.278 -0.899,0.176 -0.54,0.11C-0.407,0.082 -0.347,0.019 -0.358,-0.08C-0.372,-0.18 -0.446,-0.236 -0.58,-0.251C-0.964,-0.275 -1.342,-0.281 -1.718,-0.269C-2.091,-0.259 -2.463,-0.251 -2.833,-0.251C-3.221,-0.251 -3.602,-0.252 -3.981,-0.259C-4.36,-0.267 -4.744,-0.259 -5.13,-0.232C-5.248,-0.215 -5.31,-0.156 -5.31,-0.05C-5.31,0.056 -5.248,0.115 -5.13,0.131C-4.783,0.169 -4.485,0.267 -4.231,0.419C-3.977,0.57 -3.852,0.848 -3.852,1.246L-3.852,12.151C-3.852,12.279 -3.862,12.443 -3.882,12.639C-3.902,12.834 -3.943,13.019 -4.003,13.206C-4.063,13.392 -4.138,13.553 -4.231,13.686C-4.326,13.817 -4.444,13.886 -4.593,13.886C-4.632,13.886 -4.738,13.909 -4.922,13.954C-5.1,14.004 -5.222,14.013 -5.293,13.988C-5.343,13.959 -5.396,13.963 -5.449,13.996C-5.504,14.028 -5.54,14.072 -5.568,14.125C-5.595,14.18 -5.611,14.23 -5.611,14.284C-5.611,14.338 -5.584,14.377 -5.531,14.403C-5.437,14.444 -5.155,14.456 -4.68,14.435C-4.21,14.415 -3.677,14.403 -3.094,14.403C-2.737,14.403 -2.385,14.408 -2.037,14.415C-1.692,14.419 -1.377,14.432 -1.097,14.444C-0.82,14.457 -0.59,14.469 -0.417,14.474C-0.244,14.479 -0.158,14.484 -0.158,14.484C-0.055,14.484 0.015,14.456 0.049,14.391C0.082,14.335 0.067,14.27 0,14.203" style="fill:white;fill-rule:nonzero;"/>
                </g>
                <g transform="matrix(1,0,0,1,331.773,143.471)">
                    <path d="M0,6.969C0,6.487 -0.09,6.044 -0.271,5.633C-0.449,5.219 -0.686,4.831 -0.978,4.462C-1.271,4.097 -1.606,3.746 -1.978,3.416C-2.349,3.079 -2.727,2.756 -3.117,2.437C-3.435,2.158 -3.751,1.886 -4.065,1.619C-4.376,1.353 -4.655,1.077 -4.901,0.79C-5.147,0.503 -5.345,0.207 -5.489,-0.098C-5.636,-0.406 -5.71,-0.732 -5.71,-1.078C-5.71,-1.41 -5.651,-1.711 -5.529,-1.986C-5.41,-2.26 -5.25,-2.496 -5.04,-2.693C-4.834,-2.893 -4.595,-3.048 -4.323,-3.153C-4.049,-3.262 -3.761,-3.311 -3.452,-3.311C-3.135,-3.311 -2.837,-3.262 -2.564,-3.164C-2.294,-3.064 -2.05,-2.919 -1.838,-2.735C-1.625,-2.546 -1.46,-2.322 -1.346,-2.053C-1.234,-1.789 -1.178,-1.489 -1.178,-1.156C-1.178,-1.062 -1.124,-1.002 -1.02,-0.974C-0.913,-0.949 -0.826,-0.97 -0.76,-1.035C-0.571,-1.29 -0.465,-1.604 -0.442,-1.986C-0.416,-2.366 -0.396,-2.735 -0.396,-3.094L-0.396,-3.815C-0.396,-3.906 -0.452,-3.967 -0.559,-3.992C-1.172,-4.165 -1.831,-4.253 -2.538,-4.253C-3.041,-4.253 -3.595,-4.183 -4.191,-4.052C-4.789,-3.918 -5.352,-3.711 -5.868,-3.424C-6.389,-3.137 -6.825,-2.774 -7.18,-2.336C-7.53,-1.895 -7.704,-1.372 -7.704,-0.759C-7.704,-0.344 -7.617,0.059 -7.439,0.448C-7.258,0.846 -7.021,1.236 -6.73,1.619C-6.437,2.002 -6.102,2.384 -5.723,2.756C-5.34,3.129 -4.958,3.502 -4.575,3.874L-4.575,3.856C-4.229,4.202 -3.887,4.537 -3.556,4.873C-3.22,5.204 -2.925,5.535 -2.667,5.861C-2.407,6.186 -2.196,6.515 -2.035,6.849C-1.876,7.182 -1.794,7.516 -1.794,7.849C-1.794,8.196 -1.883,8.508 -2.045,8.783C-2.213,9.068 -2.427,9.304 -2.684,9.505C-2.945,9.704 -3.236,9.857 -3.556,9.964C-3.875,10.071 -4.187,10.122 -4.492,10.122C-4.838,10.122 -5.168,10.071 -5.489,9.964C-5.809,9.857 -6.097,9.704 -6.35,9.505C-6.604,9.304 -6.801,9.06 -6.937,8.774C-7.077,8.49 -7.135,8.166 -7.109,7.809L-7.088,7.488C-7.088,7.436 -7.109,7.396 -7.147,7.367C-7.187,7.342 -7.239,7.326 -7.309,7.326C-7.361,7.326 -7.41,7.339 -7.455,7.359C-7.504,7.375 -7.534,7.413 -7.546,7.468C-7.575,7.577 -7.601,7.689 -7.63,7.818C-7.652,7.945 -7.681,8.079 -7.704,8.228C-7.76,8.411 -7.806,8.601 -7.846,8.783C-7.887,8.974 -7.903,9.171 -7.903,9.385C-7.903,9.734 -7.824,10.025 -7.657,10.263C-7.493,10.502 -7.283,10.692 -7.027,10.832C-6.775,10.972 -6.498,11.07 -6.187,11.13C-5.885,11.191 -5.592,11.222 -5.312,11.222C-4.739,11.222 -4.14,11.119 -3.512,10.913C-2.889,10.707 -2.316,10.413 -1.794,10.043C-1.278,9.67 -0.847,9.224 -0.51,8.706C-0.17,8.189 0,7.61 0,6.969" style="fill:white;fill-rule:nonzero;"/>
                </g>
                <g transform="matrix(1,0,0,1,345.19,153.64)">
                    <path d="M0,-13.542L0,-13.983C0,-14.047 -0.031,-14.093 -0.09,-14.121C-0.149,-14.147 -0.215,-14.155 -0.279,-14.139C-0.348,-14.128 -0.425,-14.118 -0.51,-14.114C-0.596,-14.105 -0.676,-14.086 -0.74,-14.061C-0.847,-14.032 -0.962,-14.003 -1.09,-13.971C-1.218,-13.937 -1.319,-13.921 -1.398,-13.921L-9.943,-13.921C-10.024,-13.921 -10.14,-13.931 -10.296,-13.951C-10.446,-13.971 -10.604,-14.001 -10.77,-14.042C-10.938,-14.079 -11.096,-14.123 -11.243,-14.171C-11.388,-14.215 -11.502,-14.267 -11.581,-14.319C-11.649,-14.345 -11.717,-14.349 -11.79,-14.329C-11.864,-14.311 -11.913,-14.267 -11.942,-14.199C-11.969,-14.093 -11.99,-13.987 -12.012,-13.879C-12.03,-13.773 -12.062,-13.663 -12.098,-13.542C-12.194,-13.249 -12.278,-12.959 -12.358,-12.671C-12.438,-12.387 -12.479,-12.125 -12.479,-11.887C-12.479,-11.818 -12.479,-11.76 -12.469,-11.713C-12.462,-11.669 -12.453,-11.619 -12.438,-11.566C-12.412,-11.472 -12.342,-11.42 -12.228,-11.415C-12.116,-11.41 -12.038,-11.444 -12.001,-11.525C-11.839,-11.871 -11.613,-12.178 -11.321,-12.455C-11.028,-12.726 -10.69,-12.861 -10.302,-12.861L-7.207,-12.861L-7.207,-1.221C-7.207,-0.902 -7.219,-0.649 -7.239,-0.464C-7.26,-0.279 -7.308,-0.125 -7.389,-0.007C-7.466,0.117 -7.587,0.203 -7.749,0.262C-7.906,0.321 -8.128,0.381 -8.404,0.435C-8.54,0.459 -8.601,0.52 -8.585,0.616C-8.572,0.706 -8.499,0.76 -8.364,0.771C-7.555,0.799 -6.747,0.807 -5.939,0.792C-5.136,0.78 -4.325,0.771 -3.514,0.771C-3.421,0.771 -3.356,0.752 -3.316,0.705C-3.275,0.657 -3.275,0.602 -3.316,0.533C-3.385,0.4 -3.481,0.321 -3.616,0.295C-3.745,0.27 -3.91,0.245 -4.094,0.237C-4.213,0.219 -4.341,0.203 -4.473,0.176C-4.608,0.149 -4.74,0.066 -4.873,-0.064C-4.885,-0.077 -4.905,-0.15 -4.932,-0.286C-4.958,-0.418 -4.981,-0.563 -5.003,-0.723C-5.021,-0.884 -5.042,-1.039 -5.062,-1.194C-5.083,-1.346 -5.092,-1.443 -5.092,-1.479L-5.092,-12.823C-4.997,-12.809 -4.899,-12.801 -4.791,-12.801L-4.453,-12.801C-4.348,-12.801 -4.218,-12.807 -4.065,-12.812C-3.91,-12.816 -3.774,-12.829 -3.654,-12.844C-3.522,-12.855 -3.394,-12.867 -3.275,-12.871C-3.155,-12.88 -3.024,-12.882 -2.874,-12.882C-2.317,-12.882 -1.84,-12.781 -1.449,-12.583C-1.055,-12.386 -0.799,-11.978 -0.68,-11.365C-0.653,-11.274 -0.58,-11.226 -0.459,-11.226C-0.33,-11.226 -0.247,-11.274 -0.22,-11.365C-0.139,-11.713 -0.085,-12.068 -0.053,-12.433C-0.017,-12.798 0,-13.17 0,-13.542" style="fill:white;fill-rule:nonzero;"/>
                </g>
                <g transform="matrix(1,0,0,1,361.779,146.345)">
                    <path d="M0,1.102C0,0.129 -0.148,-0.855 -0.447,-1.844C-0.749,-2.836 -1.206,-3.729 -1.818,-4.532C-2.429,-5.329 -3.202,-5.981 -4.132,-6.485C-5.064,-6.992 -6.156,-7.246 -7.407,-7.246C-7.592,-7.246 -7.789,-7.235 -7.996,-7.213C-8.203,-7.198 -8.398,-7.165 -8.582,-7.127C-9.833,-6.86 -10.9,-6.504 -11.776,-6.058C-12.654,-5.609 -13.375,-5.058 -13.934,-4.39C-14.494,-3.724 -14.9,-2.94 -15.152,-2.036C-15.407,-1.13 -15.531,-0.091 -15.531,1.079C-15.531,1.664 -15.424,2.251 -15.21,2.835C-15,3.424 -14.713,3.984 -14.354,4.524C-13.991,5.063 -13.569,5.564 -13.087,6.03C-12.601,6.495 -12.086,6.902 -11.539,7.239C-10.992,7.58 -10.43,7.849 -9.842,8.047C-9.257,8.247 -8.689,8.348 -8.144,8.348L-7.845,8.348C-7.713,8.348 -7.585,8.341 -7.456,8.337C-7.33,8.332 -7.212,8.321 -7.098,8.308C-6.984,8.293 -6.886,8.279 -6.808,8.267C-5.873,8.054 -4.997,7.753 -4.173,7.368C-3.346,6.983 -2.625,6.495 -2.007,5.91C-1.386,5.325 -0.897,4.633 -0.54,3.835C-0.18,3.038 0,2.123 0,1.102M-2.017,1.061C-2.017,1.896 -2.137,2.699 -2.375,3.469C-2.614,4.231 -2.966,4.902 -3.423,5.474C-3.884,6.045 -4.453,6.501 -5.133,6.843C-5.808,7.177 -6.594,7.349 -7.486,7.349C-8.432,7.349 -9.271,7.134 -10.012,6.7C-10.748,6.268 -11.371,5.705 -11.878,5.011C-12.383,4.321 -12.769,3.543 -13.025,2.677C-13.283,1.811 -13.415,0.949 -13.415,0.082C-13.415,-0.771 -13.294,-1.572 -13.045,-2.322C-12.801,-3.076 -12.44,-3.737 -11.968,-4.299C-11.497,-4.868 -10.916,-5.314 -10.231,-5.638C-9.546,-5.963 -8.758,-6.127 -7.868,-6.127C-6.92,-6.127 -6.085,-5.913 -5.359,-5.486C-4.635,-5.062 -4.021,-4.51 -3.523,-3.833C-3.024,-3.151 -2.65,-2.384 -2.396,-1.527C-2.143,-0.667 -2.017,0.196 -2.017,1.061" style="fill:white;fill-rule:nonzero;"/>
                </g>
            </g>
        </g>
    </g>
</svg>
